<svg width="530" height="70" viewBox="0 0 530 70" fill="none" xmlns="http://www.w3.org/2000/svg">
	<path d="M294.936 40.2258C295.254 39.8372 295.464 39.5668 295.689 39.308C300.467 33.8025 305.246 28.2983 310.026 22.7941C311.132 21.5208 311.134 21.5212 310.166 20.2213C305.818 14.3826 301.47 8.54478 297.122 2.70569C296.874 2.37211 296.639 2.02907 296.298 1.54976C296.729 1.52654 296.968 1.50205 297.207 1.50248C303.187 1.50634 309.168 1.46162 315.147 1.54587C317.251 1.57554 319.373 1.79307 321.447 2.14987C325.562 2.85703 329.212 4.39127 331.337 8.26708C331.446 8.46612 331.797 8.53705 332.035 8.66774C331.088 5.92595 329.944 3.38192 328.868 0.809506C328.598 0.162963 328.239 -0.00296919 327.567 3.99819e-05C321.733 0.0249731 315.898 0.0142085 310.064 0.0142085C303.975 0.0142085 297.885 0.0090484 291.796 0.028823C291.443 0.0301126 290.861 0.159516 290.789 0.365429C290.668 0.711914 290.833 1.17877 290.952 1.5734C291.021 1.79994 291.237 1.9835 291.387 2.18597C296.419 8.95318 301.451 15.7195 306.482 22.4876C306.715 22.801 306.932 23.1255 307.191 23.4939C301.645 29.8824 296.129 36.2352 290.393 42.8421C291.133 42.9216 291.473 42.9904 291.814 42.9908C303.738 42.9964 315.662 42.99 327.585 43.0106C328.276 43.0119 328.602 42.8137 328.841 42.1607C329.83 39.4671 330.886 36.7979 331.91 34.1172C332.016 33.839 332.068 33.5407 332.146 33.2518C332.052 33.1942 331.959 33.1366 331.866 33.079C331.64 33.3296 331.415 33.582 331.186 33.8304C330.101 35.0131 329.174 36.4072 327.896 37.334C324.78 39.5956 321.036 40.0973 317.301 40.1755C310.157 40.3255 303.009 40.2864 295.863 40.3208C295.619 40.3225 295.376 40.2727 294.936 40.2258Z" fill="white"/>
	<path d="M41.4248 8.67254C41.4813 8.60634 41.5382 8.53971 41.5946 8.47308C40.4305 5.81254 39.2829 3.14471 38.075 0.503944C37.9607 0.254612 37.4649 0.0353544 37.1458 0.0344946C25.1127 0.0108511 13.08 0.013006 1.04689 0.0185945C0.141365 0.0190243 -0.181631 0.509962 0.181192 1.32674C0.309428 1.61605 0.540952 1.86278 0.734399 2.12243C5.78635 8.9193 10.84 15.7153 15.892 22.5122C16.124 22.8243 16.3437 23.1445 16.5879 23.4867C11.0243 29.8954 5.51237 36.2452 0 42.5946C0.0682755 42.6969 0.136551 42.7992 0.204389 42.9015C0.548393 42.9329 0.892396 42.9913 1.2364 42.9913C13.1601 42.9961 25.0838 42.9913 37.0071 43.0072C37.636 43.0081 37.9752 42.8542 38.2054 42.2326C39.226 39.4745 40.307 36.7378 41.3552 33.9896C41.4472 33.7484 41.4594 33.4776 41.5089 33.2205C41.427 33.1741 41.3452 33.1277 41.2633 33.0813C41.0454 33.3074 40.7548 33.4987 40.6217 33.7656C39.6681 35.6795 38.127 37.0048 36.2674 38.0073C33.2773 39.6189 29.9874 40.1188 26.662 40.1803C19.5539 40.3119 12.4432 40.2869 5.33337 40.3209C5.05632 40.3222 4.77928 40.2676 4.32761 40.2212C4.70138 39.7719 4.96617 39.4418 5.24321 39.122C10.0444 33.589 14.8315 28.0435 19.6686 22.541C20.347 21.7694 20.3776 21.2694 19.7539 20.4427C15.2823 14.5159 10.8659 8.54918 6.43453 2.59316C6.21044 2.29182 6.01043 1.97285 5.72332 1.55071C6.10584 1.52706 6.31329 1.50256 6.52118 1.50256C12.501 1.506 18.4821 1.4557 24.4606 1.5464C26.6734 1.57993 28.909 1.79573 31.085 2.19036C35.073 2.91385 38.6172 4.44766 40.6909 8.2001C40.813 8.42278 41.1745 8.51779 41.4248 8.67254Z" fill="white"/>
	<path d="M71.269 15.2454C71.4113 15.2411 71.5539 15.2368 71.6962 15.233C71.7662 14.8994 71.859 14.5688 71.9019 14.2322C72.0914 12.7397 72.2608 11.245 72.449 9.7524C72.6118 8.46147 72.5593 8.38624 71.2651 8.38538C66.2687 8.38194 61.2719 8.38366 56.2756 8.38452C56.0204 8.38452 55.7429 8.33808 55.5171 8.42062C55.3193 8.49327 55.1792 8.71725 55.0138 8.87459C55.1805 9.01473 55.3293 9.2374 55.518 9.27695C55.869 9.35046 56.2445 9.30103 56.6073 9.33155C57.7999 9.43171 57.9417 9.61484 57.6621 10.7209C56.3272 16.0016 54.9617 21.2754 53.668 26.5659C53.3835 27.7296 52.8171 28.3323 51.5842 28.2786C51.3304 28.2674 51.0525 28.2382 50.8245 28.3212C50.4993 28.4394 50.2104 28.6535 49.9058 28.8263C50.2279 28.966 50.5496 29.2265 50.8726 29.2278C56.1609 29.2531 61.4492 29.236 66.7375 29.2579C67.4211 29.2609 67.8019 29.0356 68.0618 28.411C68.9035 26.3897 69.7976 24.3899 70.655 22.375C70.7771 22.0879 70.809 21.7637 70.8826 21.4564C70.7718 21.4061 70.6607 21.3562 70.5499 21.3059C70.3626 21.56 70.139 21.7955 69.995 22.0715C69.5639 22.8999 69.1945 23.7601 68.7455 24.5786C67.8487 26.2139 66.6259 27.6746 64.694 27.896C61.9932 28.2051 59.2504 28.166 56.525 28.261C56.3653 28.2666 56.2007 28.1385 55.9399 28.0323C56.6743 25.1246 57.3885 22.2469 58.1509 19.3809C58.2065 19.1724 58.6035 18.9196 58.8477 18.9132C60.0859 18.8814 61.3301 18.8706 62.5648 18.9557C63.7421 19.037 64.0804 19.4922 63.9828 20.6542C63.9364 21.2062 63.834 21.7539 63.7491 22.3596C64.6389 22.0887 66.4552 15.4918 65.9409 14.1398C65.6731 14.7597 65.4691 15.1676 65.3186 15.5945C64.9706 16.5802 64.5098 17.5453 63.3535 17.685C61.7927 17.8737 60.2088 17.8789 58.4669 17.9722C59.1768 15.2871 59.8591 12.8764 60.4351 10.4411C60.6487 9.53875 61.1507 9.29673 61.9783 9.30662C63.5828 9.32554 65.189 9.27782 66.7922 9.32898C70.6961 9.45278 71.5102 10.3998 71.1325 14.2357C71.101 14.5649 71.22 14.9084 71.269 15.2454Z" fill="white"/>
	<path d="M346.55 28.0289C347.285 25.1216 348.002 22.2439 348.758 19.3753C348.81 19.1776 349.145 18.9192 349.353 18.9158C350.665 18.8926 351.98 18.8913 353.289 18.9665C354.246 19.0215 354.735 19.5701 354.604 20.5536C354.526 21.1391 354.446 21.7242 354.359 22.3677C355.257 22.0797 357.068 15.4699 356.545 14.1484C356.281 14.7618 356.081 15.1732 355.926 15.6001C355.586 16.5407 355.169 17.5062 354.061 17.6511C352.469 17.8591 350.852 17.878 349.096 17.9872C349.805 15.2115 350.412 12.707 351.118 10.2296C351.222 9.86418 351.795 9.37669 352.155 9.37325C354.558 9.3496 356.97 9.34617 359.363 9.52973C360.969 9.65311 361.72 10.6079 361.801 12.2019C361.838 12.9125 361.72 13.6295 361.727 14.3431C361.73 14.6522 361.874 14.96 361.954 15.2682C362.071 15.2553 362.19 15.2429 362.307 15.23C362.377 14.8964 362.469 14.5654 362.512 14.2283C362.701 12.7358 362.871 11.2411 363.059 9.74856C363.221 8.46149 363.167 8.38538 361.871 8.38452C356.875 8.38109 351.878 8.38282 346.881 8.3841C346.626 8.3841 346.349 8.33723 346.123 8.42063C345.926 8.49371 345.787 8.71941 345.622 8.87803C345.791 9.01688 345.944 9.24645 346.13 9.2774C346.631 9.35994 347.147 9.3406 347.653 9.39261C348.283 9.45666 348.531 9.74984 348.36 10.4149C346.931 15.9681 345.521 21.526 344.114 27.0844C343.93 27.81 343.492 28.1871 342.732 28.2202C342.332 28.2378 341.916 28.218 341.538 28.3212C341.177 28.4196 340.854 28.6556 340.515 28.831C340.839 28.9694 341.162 29.2269 341.487 29.2282C346.775 29.2532 352.063 29.236 357.352 29.2583C358.038 29.2613 358.414 29.0288 358.673 28.4067C359.515 26.3858 360.409 24.3856 361.266 22.3708C361.388 22.0849 361.417 21.7607 361.489 21.4542C361.377 21.4048 361.266 21.3549 361.154 21.3055C360.968 21.5613 360.746 21.7994 360.602 22.0767C360.171 22.9055 359.799 23.764 359.353 24.5842C358.338 26.4486 356.873 27.8646 354.66 28.0482C352.161 28.2554 349.64 28.2111 347.129 28.261C346.969 28.2644 346.806 28.1355 346.55 28.0289Z" fill="white"/>
	<path d="M500.476 9.96211C500.409 10.3847 500.373 10.7312 500.297 11.0691C499.025 16.6885 497.007 22.047 494.433 27.2098C493.706 28.6671 492.832 28.8275 491.59 27.721C491.299 27.4613 491.039 27.1402 490.853 26.8002C490.561 26.2645 490.179 26.2074 489.68 26.4546C489.355 26.6153 489.029 26.7752 488.713 26.9515C488.017 27.3388 487.855 27.8061 488.326 28.5279C489.243 29.9345 491.129 30.5857 492.844 29.9718C494.546 29.3623 495.943 28.3632 496.733 26.7151C497.68 24.7406 498.561 22.7361 499.505 20.7603C499.656 20.4444 499.982 19.9822 500.235 19.9771C502.089 19.9388 503.954 19.8941 505.795 20.0674C506.967 20.1778 508.251 19.5519 508.577 18.2189C505.914 18.2189 503.283 18.2189 500.591 18.2189C501.364 15.5317 502.08 12.9855 502.853 10.4565C502.924 10.2248 503.354 9.95566 503.623 9.94878C505.335 9.90493 507.051 9.89978 508.763 9.94534C509.662 9.96942 510.607 10.0382 510.871 11.3898C511.622 10.9706 512.301 10.7028 512.837 10.2661C513.654 9.60102 513.414 8.68923 512.375 8.42958C511.782 8.2817 511.149 8.23742 510.533 8.23484C506.595 8.22066 502.657 8.18413 498.72 8.26323C497.618 8.28559 496.489 8.57531 495.434 8.92222C494.51 9.22572 493.674 9.7833 493.381 11.0437C494.601 10.6573 495.675 10.1689 496.798 10.0008C497.966 9.82671 499.182 9.96211 500.476 9.96211Z" fill="white"/>
	<path d="M213.77 9.94744C215.733 9.94744 217.7 9.898 219.662 9.97538C220.312 10.0012 221.197 9.90619 221.402 10.9173C221.424 11.0247 221.862 11.1778 222.013 11.1094C222.57 10.8601 223.154 10.5996 223.604 10.2071C224.315 9.58763 224.112 8.74635 223.201 8.46951C222.653 8.30272 222.053 8.23952 221.476 8.23694C217.355 8.2206 213.231 8.13849 209.116 8.28852C207.797 8.33667 206.468 8.94153 205.212 9.45524C204.719 9.65729 204.414 10.3055 204.023 10.7505C204.107 10.8902 204.19 11.0295 204.273 11.1692C206.431 9.78582 208.752 9.73982 211.197 10.033C211.124 10.4268 211.077 10.7427 211.007 11.0535C209.726 16.7091 207.69 22.1002 205.096 27.2945C204.439 28.6099 203.645 28.7939 202.473 27.8645C202.087 27.558 201.86 27.0589 201.477 26.746C201.229 26.5435 200.8 26.3836 200.507 26.4468C200.062 26.5426 199.655 26.8319 199.252 27.0714C198.676 27.4131 198.621 27.8323 198.972 28.4212C199.859 29.9077 201.776 30.6033 203.537 29.9757C205.239 29.3687 206.64 28.373 207.432 26.724C208.379 24.75 209.261 22.745 210.205 20.7693C210.357 20.4516 210.683 19.9783 210.929 19.9779C212.846 19.9753 214.769 20.0071 216.679 20.1619C217.678 20.2427 219.035 19.3808 219.183 18.2244C216.568 18.2244 213.967 18.2244 211.295 18.2244C212.075 15.5166 212.815 12.9416 213.56 10.3683C213.599 10.2342 213.686 10.1134 213.77 9.94744Z" fill="white"/>
	<path d="M466.859 21.7107C466.733 21.6592 466.607 21.6076 466.481 21.5555C466.296 21.8904 466.072 22.2107 465.931 22.5628C464.675 25.7005 462.448 27.8108 459.117 28.6955C454.916 29.811 451.467 27.5103 451.202 23.2682C450.966 19.465 452.157 15.9912 454.433 12.9063C456.058 10.7049 458.243 9.30005 460.963 8.7326C464.334 8.02932 466.741 9.54551 467.368 12.859C467.578 13.966 467.533 15.1194 467.604 16.2517C467.692 16.3097 467.78 16.3677 467.869 16.4258C468.097 16.1317 468.446 15.8686 468.535 15.5381C469.165 13.1862 469.746 10.8218 470.329 8.45792C470.383 8.23868 470.336 7.99493 470.336 7.7628C470.25 7.70219 470.164 7.64114 470.079 7.58052C469.232 8.45834 468.386 9.33573 467.542 10.2101C465.122 7.97903 463.85 7.4477 461.517 7.65748C454.96 8.24728 449.09 13.9071 448.341 20.3635C447.849 24.6039 450.2 28.3159 453.958 29.4899C459.585 31.2477 465.265 27.1281 466.767 22.5017C466.848 22.2537 466.83 21.9751 466.859 21.7107Z" fill="white"/>
	<path d="M299.52 55.4268C301.194 55.2867 301.455 54.9767 302.041 53.8225C302.298 53.3165 302.894 52.6816 303.383 52.639C305.064 52.4929 306.766 52.5831 308.566 52.5831C307.151 57.7477 305.761 62.8234 304.366 67.9171C305.443 67.7464 306.303 67.1927 306.629 66.0948C307.731 62.3883 308.81 58.6746 309.849 54.951C310.527 52.5208 310.491 52.5599 313.072 52.4907C314.441 52.4542 315.824 52.3072 317.16 52.0269C317.922 51.867 318.653 51.3872 318.896 50.3409C318.492 50.4432 318.225 50.5163 317.956 50.5773C317.127 50.7652 316.3 51.091 315.467 51.1074C312.259 51.1701 309.049 51.1181 305.839 51.1383C303.577 51.1525 301.762 52.1344 300.344 53.8092C299.962 54.2606 299.789 54.883 299.52 55.4268Z" fill="white"/>
	<path d="M17.9673 52.5501C16.5493 57.7245 15.1571 62.8045 13.7618 67.8951C13.8047 67.893 13.9535 67.9153 14.0809 67.8745C15.0341 67.5684 15.772 67.0121 16.0556 66.0312C17.1782 62.1442 18.3004 58.2568 19.3871 54.3599C19.9 52.5208 19.8642 52.5458 21.7715 52.4993C23.2223 52.4641 24.6885 52.4314 26.1131 52.1954C27.044 52.0411 27.9137 51.5269 28.3469 50.3495C27.9141 50.4445 27.6476 50.5047 27.3806 50.561C26.4794 50.7519 25.5814 51.0867 24.6763 51.1061C21.505 51.1736 18.3306 51.1069 15.158 51.1413C12.8992 51.1658 11.0886 52.1718 9.69155 53.8651C9.32304 54.3122 9.17992 54.9385 8.82935 55.7114C10.2487 55.4019 11.1039 54.9931 11.3941 53.8419C11.5879 53.0715 12.1206 52.5763 12.9491 52.5595C14.5776 52.5268 16.2079 52.5501 17.9673 52.5501Z" fill="white"/>
	<path d="M375.668 3.12234C375.668 15.4342 375.668 27.6187 375.668 39.802C377.665 39.802 379.57 39.802 381.487 39.802C381.487 39.3984 381.487 39.0936 381.487 38.6512C379.923 38.6512 378.417 38.6512 376.876 38.6512C376.876 27.1459 376.876 15.7789 376.876 4.29334C378.457 4.29334 379.971 4.29334 381.563 4.29334C381.528 3.83208 381.502 3.49548 381.474 3.12234C379.498 3.12234 377.618 3.12234 375.668 3.12234Z" fill="white"/>
	<path d="M86.5097 38.6856C86.5097 27.1557 86.5097 15.7643 86.5097 4.28602C88.0875 4.28602 89.5716 4.28602 91.0907 4.28602C91.0907 3.86216 91.0907 3.52684 91.0907 3.14123C89.1143 3.14123 87.2043 3.14123 85.2593 3.14123C85.2593 15.4032 85.2593 27.5925 85.2593 39.8218C87.2424 39.8218 89.1536 39.8218 91.1559 39.8218C91.1323 39.4087 91.1131 39.0772 91.0907 38.6856C89.5322 38.6856 88.08 38.6856 86.5097 38.6856Z" fill="white"/>
	<path d="M234.981 39.8226C236.962 39.8226 238.876 39.8226 240.91 39.8226C240.91 39.3605 240.91 38.974 240.91 38.5876C240.91 27.2069 240.91 15.8257 240.91 4.44502C240.91 4.19439 240.977 3.91412 240.885 3.70133C240.781 3.46102 240.536 3.10723 240.344 3.1025C238.57 3.0565 236.794 3.07542 234.98 3.07542C234.98 3.54399 234.98 3.88102 234.98 4.33154C236.55 4.33154 238.061 4.33154 239.587 4.33154C239.587 15.8339 239.587 27.2223 239.587 38.7341C237.981 38.7341 236.472 38.7341 234.906 38.7341C234.936 39.17 234.957 39.4796 234.981 39.8226Z" fill="white"/>
	<path d="M528.692 4.30617C528.692 15.8283 528.692 27.1909 528.692 38.6757C527.114 38.6757 525.603 38.6757 524.072 38.6757C524.072 39.1309 524.072 39.4632 524.072 39.8114C526.059 39.8114 527.969 39.8114 529.987 39.8114C529.987 39.3381 529.987 38.9504 529.987 38.5622C529.987 27.1815 529.987 15.8003 529.986 4.41965C529.986 4.13335 530.034 3.83074 529.953 3.56679C529.895 3.37721 529.663 3.1025 529.504 3.09949C527.696 3.06639 525.887 3.07842 523.996 3.07842C524.018 3.56419 524.033 3.89993 524.052 4.30659C525.624 4.30616 527.11 4.30617 528.692 4.30617Z" fill="white"/>
	<path d="M260.662 18.6243C261.003 18.4467 261.159 18.3569 261.323 18.2812C266.293 15.974 271.265 13.6699 276.235 11.3606C276.595 11.1929 276.973 11.0317 277.278 10.7888C277.433 10.6654 277.571 10.2867 277.491 10.1655C277.363 9.9703 277.057 9.8104 276.811 9.7889C276.586 9.76913 276.336 9.93935 276.106 10.0455C270.573 12.6068 265.038 15.1633 259.517 17.7495C259.136 17.9283 258.862 18.3311 258.539 18.6298C258.874 18.923 259.164 19.3116 259.553 19.4943C263.231 21.222 266.927 22.9136 270.617 24.6177C272.528 25.5002 274.427 26.4098 276.358 27.2455C276.66 27.3758 277.109 27.1772 277.49 27.1303C277.286 26.8101 277.126 26.4498 276.865 26.1837C276.676 25.9903 276.356 25.9194 276.093 25.7977C271.317 23.589 266.54 21.3811 261.765 19.1711C261.442 19.0219 261.126 18.8555 260.662 18.6243Z" fill="white"/>
	<path d="M483.645 21.6123C483.645 16.9949 483.654 12.3776 483.632 7.76023C483.629 7.21213 483.889 6.30162 482.993 6.31667C482.087 6.33172 482.409 7.24349 482.408 7.78342C482.388 16.982 482.394 26.1811 482.394 35.3801C482.394 35.5951 482.327 35.8427 482.413 36.0172C482.565 36.3246 482.811 36.5872 483.018 36.8684C483.223 36.5795 483.489 36.3134 483.616 35.994C483.715 35.7442 483.645 35.4287 483.645 35.1424C483.646 30.6321 483.646 26.1222 483.645 21.6123Z" fill="white"/>
	<path d="M194.569 21.6175C194.569 17.0001 194.579 12.3827 194.555 7.76536C194.553 7.21726 194.816 6.30763 193.922 6.31708C193.011 6.32654 193.333 7.23963 193.332 7.77827C193.312 16.9773 193.318 26.1764 193.318 35.375C193.318 35.6256 193.249 35.9093 193.344 36.1182C193.474 36.399 193.733 36.6221 193.937 36.8697C194.141 36.6173 194.422 36.3925 194.527 36.1053C194.633 35.8182 194.568 35.4691 194.568 35.1471C194.569 30.6372 194.569 26.1274 194.569 21.6175Z" fill="white"/>
	<path d="M434.996 12.8393C434.644 13.3182 434.453 13.5792 434.261 13.8397C433.878 14.3594 433.59 15.0094 433.086 15.3623C432.544 15.7415 431.801 15.8416 431.146 16.0634C431.04 15.4324 430.749 14.7665 430.864 14.1767C431.2 12.4576 431.772 10.7828 432.106 9.06323C432.324 7.94081 432.786 7.44216 433.984 7.61755C434.439 7.68418 434.93 7.51352 435.404 7.45076C435.394 7.30202 435.384 7.15327 435.373 7.00453C434.513 6.94262 433.653 6.88115 432.722 6.81409C433.006 5.69511 433.315 4.66511 433.505 3.61448C433.558 3.31786 433.264 2.96064 433.129 2.63135C432.762 2.78353 432.302 2.85015 432.056 3.11195C431.808 3.37504 431.756 3.82728 431.651 4.20515C431.405 5.08985 431.179 5.98012 430.965 6.79045C429.949 7.09911 428.89 6.56435 428.097 7.18381C428.112 7.30504 428.127 7.42624 428.142 7.54747C428.981 7.60464 429.82 7.66183 430.73 7.72373C430.197 9.87357 429.714 11.8914 429.19 13.899C428.95 14.8172 429.063 15.628 429.825 16.235C430.594 16.848 431.491 16.9352 432.404 16.5612C433.771 16.0007 434.561 14.9049 435.114 13.617C435.167 13.494 435.073 13.3087 434.996 12.8393Z" fill="white"/>
	<path d="M140.09 7.71692C139.995 8.16915 139.929 8.54573 139.837 8.91586C139.424 10.5847 139.022 12.256 138.579 13.9171C138.333 14.8375 138.465 15.6461 139.23 16.2466C140.004 16.8541 140.905 16.9418 141.811 16.554C143.199 15.9599 144.03 14.8615 144.527 13.4954C144.561 13.4021 144.452 13.2581 144.323 12.8966C144.021 13.3226 143.837 13.5917 143.644 13.8543C143.262 14.3745 142.97 15.0236 142.464 15.3731C141.922 15.7475 141.178 15.8382 140.522 16.0528C140.423 15.4191 140.137 14.7485 140.259 14.1591C140.657 12.2324 141.225 10.3405 141.681 8.4245C141.825 7.82009 142.114 7.60772 142.735 7.62535C143.413 7.64469 144.095 7.55614 144.776 7.51444C144.778 7.34765 144.781 7.18085 144.783 7.01406C143.914 6.94828 143.045 6.8825 142.113 6.812C142.392 5.71322 142.699 4.71849 142.872 3.70139C142.928 3.37253 142.636 2.98606 142.503 2.62582C142.122 2.81625 141.651 2.92844 141.387 3.22076C141.145 3.48772 141.121 3.94815 141.015 4.32687C140.777 5.17546 140.549 6.02618 140.335 6.80856C139.291 6.89583 138.387 6.97148 137.482 7.04714C137.489 7.20921 137.496 7.37171 137.503 7.53378C138.333 7.59353 139.164 7.65201 140.09 7.71692Z" fill="white"/>
	<path d="M417.017 10.3997C417.152 10.1066 417.3 9.81769 417.421 9.5185C417.623 9.02112 417.72 8.45412 418.028 8.03584C418.265 7.71429 418.76 7.57629 419.14 7.35662C419.333 7.73879 419.644 8.10893 419.688 8.507C419.736 8.94892 419.561 9.42176 419.449 9.87271C418.965 11.8201 418.443 13.7593 418.002 15.7157C417.936 16.0093 418.224 16.3794 418.348 16.7143C418.719 16.5634 419.17 16.4925 419.437 16.2367C419.668 16.0153 419.715 15.5902 419.805 15.2454C420.255 13.5112 420.659 11.7651 421.145 10.0408C421.686 8.12225 423.424 7.02216 425.095 7.55178C424.948 7.68805 424.776 7.7779 424.722 7.91331C424.562 8.31654 424.345 8.74299 424.365 9.15009C424.374 9.32505 425 9.67497 425.195 9.59459C425.62 9.41876 426.109 9.08647 426.282 8.69442C426.599 7.97995 426.265 7.22723 425.541 7.02734C424.786 6.81884 423.896 6.80122 423.135 6.98263C422.478 7.13867 421.92 7.69149 421.319 8.06806C420.416 6.83516 419.367 6.40659 418.376 6.85152C417.4 7.28957 416.536 9.11741 417.017 10.3997Z" fill="white"/>
	<path d="M134.549 7.52205C134.324 7.71937 134.135 7.81051 134.074 7.95409C133.915 8.32593 133.689 8.73603 133.735 9.101C133.761 9.31078 134.321 9.65943 134.541 9.59839C134.949 9.48533 135.432 9.19344 135.62 8.84051C136.014 8.09939 135.741 7.31699 134.973 7.05434C134.27 6.81317 133.4 6.76028 132.679 6.93052C131.982 7.09473 131.38 7.65016 130.734 8.03576C129.683 6.75128 128.616 6.36481 127.616 6.92107C126.695 7.43435 125.888 9.36065 126.279 10.5471C126.507 10.122 126.679 9.855 126.799 9.56698C127.004 9.07133 127.08 8.49058 127.395 8.08176C127.655 7.74258 128.18 7.59899 128.588 7.36901C128.76 7.76622 129.082 8.16773 129.07 8.55892C129.049 9.22782 128.835 9.89415 128.672 10.5544C128.26 12.2241 127.794 13.8822 127.437 15.563C127.363 15.9134 127.665 16.3406 127.793 16.7323C128.185 16.4937 128.624 16.3033 128.952 15.9976C129.134 15.8278 129.138 15.468 129.21 15.1903C129.647 13.4901 130.054 11.7813 130.524 10.0897C131.059 8.16772 132.702 7.0797 134.549 7.52205Z" fill="white"/>
	<path d="M268.095 32.2395C265.257 32.2395 262.419 32.2206 259.582 32.2636C259.233 32.2687 258.889 32.604 258.543 32.7863C258.887 33.0107 259.222 33.251 259.58 33.45C259.691 33.5115 259.866 33.4638 260.011 33.4638C265.36 33.4638 270.708 33.4659 276.056 33.459C276.416 33.4586 276.788 33.4328 277.131 33.3361C277.295 33.2897 277.525 33.0378 277.51 32.9019C277.487 32.6973 277.316 32.4136 277.135 32.3435C276.845 32.2309 276.496 32.2416 276.172 32.2408C273.48 32.2352 270.787 32.2377 268.095 32.2395Z" fill="white"/>
	<path d="M180.826 27.5955C180.978 27.3603 181.147 27.1346 181.277 26.8887C181.511 26.4459 181.616 25.8733 181.968 25.569C182.468 25.1352 183.142 24.8941 183.741 24.5708C183.779 25.1696 183.892 25.7762 183.829 26.3647C183.782 26.8109 183.509 27.2331 183.339 27.6672C182.857 28.9027 182.336 30.1257 181.907 31.3793C181.526 32.494 182.009 33.4509 183.043 33.8214C183.964 34.1516 184.778 33.9091 185.462 33.2772C186.308 32.4948 186.803 31.5405 186.767 30.3566C186.427 30.4967 186.255 30.722 186.125 30.9692C185.926 31.3492 185.801 31.7731 185.563 32.126C185.119 32.7867 184.581 33.5798 183.7 33.1959C183.452 33.0876 183.505 31.9037 183.7 31.2998C184.226 29.6653 184.993 28.1027 185.472 26.4575C185.639 25.8806 185.451 24.9482 185.047 24.5373C184.633 24.1151 183.724 23.9144 183.086 24.0016C181.737 24.1869 180.526 26.0032 180.826 27.5955Z" fill="white"/>
	<path d="M475.837 30.2637C475.465 30.9597 475.146 31.6905 474.704 32.3413C474.302 32.9333 473.717 33.6314 472.959 33.186C472.684 33.0248 472.75 32 472.93 31.4558C473.47 29.8248 474.141 28.2355 474.766 26.632C475.118 25.7284 474.992 24.9168 474.189 24.3249C473.375 23.7243 472.346 23.6151 471.673 24.3163C470.882 25.1386 470.382 26.231 469.775 27.218C469.742 27.2713 469.894 27.4342 470.09 27.7691C470.328 27.3126 470.47 27.0249 470.626 26.7442C470.902 26.2439 471.087 25.6373 471.496 25.2801C471.906 24.9224 472.542 24.8154 473.079 24.5983C473.128 25.1004 473.234 25.6055 473.205 26.1037C473.186 26.4459 472.986 26.7799 472.856 27.114C472.299 28.5511 471.681 29.9683 471.194 31.4282C470.736 32.8008 471.693 33.9856 473.134 33.9658C474.669 33.9435 476.3 31.9626 475.837 30.2637Z" fill="white"/>
	<path d="M23.9253 69.1604C24.0036 69.3216 24.0706 69.5847 24.1406 69.5851C26.2064 69.607 28.2726 69.6027 30.3384 69.6027C30.3493 69.4596 30.3602 69.3164 30.3712 69.1733C30.0005 69.1152 29.6276 68.9966 29.26 69.0112C28.2459 69.0512 27.8432 68.6776 27.8704 67.621C27.9391 64.975 27.8958 62.3261 27.8896 59.678C27.8888 59.3032 27.8445 58.9283 27.8165 58.5019C26.3779 58.9833 25.0851 59.4162 23.7927 59.8487C23.8299 59.9738 23.8671 60.0985 23.9038 60.2236C24.7052 60.1157 25.5061 60.0078 26.3035 59.9003C26.3333 59.9798 26.3797 60.046 26.3797 60.1127C26.3915 62.2947 26.4016 64.4772 26.4055 66.6593C26.4095 68.8229 26.4064 68.8216 24.2732 69.0215C24.1747 69.0314 24.0811 69.0967 23.9253 69.1604Z" fill="white"/>
	<path d="M146.861 15.6452C147.323 14.8851 147.553 14.294 147.97 13.8882C148.307 13.5607 148.869 13.4562 149.331 13.2529C149.357 13.715 149.518 14.221 149.382 14.6315C148.999 15.7853 148.464 16.8892 148.045 18.0323C147.622 19.1865 148.324 20.1409 149.554 20.1615C150.807 20.1826 152.072 18.7902 151.995 17.1996C151.72 17.5457 151.553 17.725 151.423 17.9274C151.209 18.258 151.091 18.6896 150.802 18.9205C150.441 19.2085 149.947 19.3357 149.511 19.5326C149.473 19.0765 149.292 18.5744 149.425 18.1724C149.807 17.0186 150.351 15.9177 150.766 14.7729C151.224 13.5108 150.435 12.5449 149.078 12.636C147.862 12.7172 146.761 14.0211 146.861 15.6452Z" fill="white"/>
	<path d="M437.645 15.3834C437.961 14.8603 438.2 14.2657 438.617 13.838C438.925 13.5225 439.464 13.4249 439.9 13.2302C439.944 13.6863 440.137 14.1892 440.005 14.5899C439.626 15.7445 439.114 16.8562 438.66 17.9876C438.358 18.7412 438.457 19.4084 439.192 19.8645C439.916 20.3133 440.664 20.2493 441.346 19.7772C442.156 19.2175 442.58 18.4377 442.598 17.4563C442.076 17.9017 441.806 18.5181 441.359 18.9635C441.055 19.267 440.504 19.331 440.063 19.5021C440.039 19.0697 439.884 18.5951 440.014 18.2133C440.405 17.0621 440.938 15.9577 441.358 14.8147C441.855 13.4623 440.966 12.4465 439.514 12.6571C438.399 12.8188 437.45 13.9932 437.645 15.3834Z" fill="white"/>
	<path d="M406.166 11.4539C408.35 11.4539 410.535 11.4706 412.719 11.4341C413.011 11.4294 413.299 11.1568 413.589 11.0085C413.293 10.8241 413 10.4811 412.703 10.4789C408.407 10.4437 404.111 10.4432 399.816 10.4755C399.506 10.4776 399.199 10.7974 398.891 10.9694C399.204 11.1315 399.515 11.4276 399.832 11.4341C401.943 11.4758 404.054 11.456 406.166 11.4539Z" fill="white"/>
	<path d="M115.757 11.4582C117.25 11.4582 118.743 11.4603 120.236 11.4573C121.037 11.4556 121.84 11.4775 122.636 11.4135C122.836 11.3976 123.013 11.0924 123.2 10.92C123.02 10.7751 122.857 10.5945 122.653 10.4974C122.501 10.4252 122.296 10.4518 122.115 10.4518C117.928 10.4501 113.741 10.4385 109.554 10.4725C109.202 10.4755 108.852 10.7841 108.501 10.9505C108.845 11.119 109.185 11.4259 109.533 11.4337C111.607 11.4801 113.682 11.4569 115.757 11.4582Z" fill="white"/>
	<path d="M475.966 20.0661C475.962 19.9208 475.957 19.7751 475.953 19.6298C475.612 19.4002 475.133 18.9046 474.958 18.9927C474.477 19.2347 474.123 19.7218 473.719 20.1117C473.995 20.3834 474.345 20.9246 474.533 20.8747C475.047 20.738 475.493 20.3528 475.966 20.0661Z" fill="white"/>
	<path d="M186.686 20.0055C186.672 19.8602 186.658 19.7144 186.644 19.5691C186.289 19.3606 185.786 18.8947 185.607 18.9935C185.138 19.2536 184.81 19.7596 184.426 20.1675C184.72 20.4207 185.098 20.9362 185.292 20.8764C185.8 20.7208 186.227 20.3128 186.686 20.0055Z" fill="white"/>
	<path d="M441.283 10.7324C441.669 10.1551 441.978 9.83182 442.086 9.45309C442.121 9.33144 441.502 8.84652 441.399 8.9037C441.068 9.08812 440.749 9.41309 440.608 9.75614C440.545 9.90703 440.923 10.2329 441.283 10.7324Z" fill="white"/>
	<path d="M150.846 8.5254C150.45 9.06877 150.138 9.38302 149.995 9.75916C149.949 9.88254 150.468 10.3748 150.521 10.3451C150.886 10.1375 151.263 9.8791 151.487 9.54207C151.559 9.43417 151.18 9.03739 150.846 8.5254Z" fill="white"/>
	<path d="M294.936 40.2258C295.376 40.2727 295.619 40.3225 295.863 40.3208C303.009 40.2864 310.157 40.3255 317.301 40.1755C321.036 40.0973 324.78 39.5956 327.896 37.334C329.174 36.4072 330.101 35.0131 331.186 33.8304C331.415 33.582 331.64 33.3296 331.866 33.079C331.959 33.1366 332.052 33.1942 332.146 33.2518C332.068 33.5407 332.016 33.839 331.91 34.1172C330.886 36.7979 329.83 39.4671 328.841 42.1607C328.602 42.8137 328.276 43.0119 327.585 43.0106C315.662 42.99 303.738 42.9964 291.814 42.9908C291.473 42.9904 291.133 42.9216 290.393 42.8421C296.129 36.2352 301.645 29.8824 307.191 23.4939C306.932 23.1255 306.715 22.801 306.482 22.4876C301.451 15.7195 296.419 8.95318 291.387 2.18597C291.237 1.9835 291.021 1.79994 290.952 1.5734C290.833 1.17877 290.668 0.711914 290.789 0.365429C290.861 0.159516 291.443 0.0301126 291.796 0.028823C297.885 0.0090484 303.975 0.0142085 310.064 0.0142085C315.898 0.0142085 321.733 0.0249731 327.567 3.99819e-05C328.239 -0.00296919 328.598 0.162963 328.868 0.809506C329.944 3.38192 331.088 5.92595 332.035 8.66774C331.797 8.53705 331.446 8.46612 331.337 8.26708C329.212 4.39127 325.562 2.85703 321.447 2.14987C319.373 1.79307 317.251 1.57554 315.147 1.54587C309.168 1.46162 303.187 1.50634 297.207 1.50248C296.968 1.50205 296.729 1.52654 296.298 1.54976C296.639 2.02907 296.874 2.37211 297.122 2.70569C301.47 8.54478 305.818 14.3826 310.166 20.2213C311.134 21.5212 311.132 21.5208 310.026 22.7941C305.246 28.2983 300.467 33.8025 295.689 39.308C295.464 39.5668 295.254 39.8372 294.936 40.2258Z" fill="white"/>
	<path d="M41.4248 8.67254C41.1745 8.51779 40.813 8.42278 40.6909 8.2001C38.6172 4.44766 35.073 2.91385 31.085 2.19036C28.909 1.79573 26.6734 1.57993 24.4606 1.5464C18.4821 1.4557 12.501 1.506 6.52118 1.50256C6.31329 1.50256 6.10584 1.52706 5.72332 1.55071C6.01043 1.97285 6.21044 2.29182 6.43453 2.59316C10.8659 8.54918 15.2823 14.5159 19.7539 20.4427C20.3776 21.2694 20.347 21.7694 19.6686 22.541C14.8315 28.0435 10.0444 33.589 5.24321 39.122C4.96617 39.4418 4.70138 39.7719 4.32761 40.2212C4.77928 40.2676 5.05632 40.3222 5.33337 40.3209C12.4432 40.2869 19.5539 40.3119 26.662 40.1803C29.9874 40.1188 33.2773 39.6189 36.2674 38.0073C38.127 37.0048 39.6681 35.6795 40.6217 33.7656C40.7548 33.4987 41.0454 33.3074 41.2633 33.0813C41.3452 33.1277 41.427 33.1741 41.5089 33.2205C41.4594 33.4776 41.4472 33.7484 41.3552 33.9896C40.307 36.7378 39.226 39.4745 38.2054 42.2326C37.9752 42.8542 37.636 43.0081 37.0071 43.0072C25.0838 42.9913 13.1601 42.9961 1.2364 42.9913C0.892396 42.9913 0.548393 42.9329 0.204389 42.9015C0.136551 42.7992 0.0682755 42.6969 0 42.5946C5.51237 36.2452 11.0243 29.8954 16.5879 23.4867C16.3437 23.1445 16.124 22.8243 15.892 22.5122C10.84 15.7153 5.78635 8.9193 0.734399 2.12243C0.540952 1.86278 0.309428 1.61605 0.181192 1.32674C-0.181631 0.509962 0.141365 0.0190243 1.04689 0.0185945C13.08 0.013006 25.1127 0.0108511 37.1458 0.0344946C37.4649 0.0353544 37.9607 0.254612 38.075 0.503944C39.2829 3.14471 40.4305 5.81254 41.5946 8.47308C41.5382 8.53971 41.4813 8.60634 41.4248 8.67254Z" fill="white"/>
	<path d="M172.394 18.8332C175.09 19.9449 175.481 21.8652 175.134 24.1749C174.949 25.4078 174.865 26.6708 174.899 27.9158C174.932 29.1096 175.822 29.6314 176.845 29.0034C177.571 28.558 178.086 27.7615 178.646 27.0827C178.899 26.7753 179.035 26.3742 179.333 25.8093C179.51 26.2225 179.682 26.4224 179.641 26.5634C179.216 28.0482 178.423 29.3082 176.842 29.7441C175.284 30.1744 173.689 29.944 172.637 28.6771C172.107 28.0387 171.882 26.9743 171.91 26.115C171.948 24.9543 172.375 23.8082 172.613 22.6514C173.014 20.6998 171.984 19.3039 169.977 19.1548C168.889 19.074 167.791 19.1165 166.698 19.1053C166.373 19.1019 166.049 19.1049 165.603 19.1049C164.906 21.8789 164.2 24.607 163.569 27.3513C163.515 27.5839 163.91 28.083 164.197 28.1857C164.657 28.3504 165.209 28.2459 165.706 28.3383C165.924 28.3787 166.102 28.6251 166.298 28.7781C166.088 28.9324 165.883 29.0932 165.665 29.2359C165.614 29.2695 165.522 29.2441 165.45 29.2441C163.044 29.2441 160.638 29.2553 158.232 29.2273C157.969 29.2243 157.709 28.9952 157.447 28.871C157.698 28.6848 157.943 28.3457 158.2 28.3358C161.046 28.2261 160.744 28.1208 161.404 25.5364C162.671 20.5725 163.931 15.6065 165.19 10.6405C165.482 9.48672 165.362 9.33024 164.158 9.26232C163.794 9.24169 163.419 9.28641 163.068 9.21462C162.869 9.17378 162.706 8.95712 162.527 8.81956C162.685 8.65319 162.823 8.46058 163.008 8.33119C163.11 8.2594 163.29 8.28091 163.435 8.2822C166.824 8.31186 170.223 8.21512 173.599 8.44081C174.94 8.53066 176.376 9.12303 177.514 9.86372C179.474 11.1409 179.703 13.4571 178.319 15.3421C177.135 16.9546 175.421 17.8032 173.584 18.464C173.278 18.5749 172.962 18.6583 172.394 18.8332ZM165.79 18.4244C167.017 18.4244 168.031 18.4467 169.043 18.4167C169.77 18.3952 170.504 18.3603 171.216 18.2327C174.171 17.7031 175.974 15.7441 176.255 12.8187C176.424 11.0579 175.65 9.82462 173.866 9.54391C172.228 9.28598 170.538 9.30231 168.87 9.29758C168.561 9.29673 168.058 9.71972 167.971 10.0344C167.22 12.7491 166.543 15.4849 165.79 18.4244Z" fill="white"/>
	<path d="M71.269 15.2454C71.22 14.9084 71.101 14.5649 71.1325 14.2357C71.5102 10.3998 70.6961 9.45278 66.7922 9.32898C65.189 9.27782 63.5828 9.32554 61.9783 9.30662C61.1507 9.29673 60.6487 9.53875 60.4351 10.4411C59.8591 12.8764 59.1768 15.2871 58.4669 17.9722C60.2088 17.8789 61.7927 17.8737 63.3535 17.685C64.5098 17.5453 64.9706 16.5802 65.3186 15.5945C65.4691 15.1676 65.6731 14.7597 65.9409 14.1398C66.4552 15.4918 64.6389 22.0887 63.7491 22.3596C63.834 21.7539 63.9364 21.2062 63.9828 20.6542C64.0804 19.4922 63.7421 19.037 62.5648 18.9557C61.3301 18.8706 60.0859 18.8814 58.8477 18.9132C58.6035 18.9196 58.2065 19.1724 58.1509 19.3809C57.3885 22.2469 56.6743 25.1246 55.9399 28.0323C56.2007 28.1385 56.3653 28.2666 56.525 28.261C59.2504 28.166 61.9932 28.2051 64.694 27.896C66.6259 27.6746 67.8487 26.2139 68.7455 24.5786C69.1945 23.7601 69.5639 22.8999 69.995 22.0715C70.139 21.7955 70.3626 21.56 70.5499 21.3059C70.6607 21.3562 70.7718 21.4061 70.8826 21.4564C70.809 21.7637 70.7771 22.0879 70.655 22.375C69.7976 24.3899 68.9035 26.3897 68.0618 28.411C67.8019 29.0356 67.4211 29.2609 66.7375 29.2579C61.4492 29.236 56.1609 29.2531 50.8726 29.2278C50.5496 29.2265 50.2279 28.966 49.9058 28.8263C50.2104 28.6535 50.4993 28.4394 50.8245 28.3212C51.0525 28.2382 51.3304 28.2674 51.5842 28.2786C52.8171 28.3323 53.3835 27.7296 53.668 26.5659C54.9617 21.2754 56.3272 16.0016 57.6621 10.7209C57.9417 9.61484 57.7999 9.43171 56.6073 9.33155C56.2445 9.30103 55.869 9.35046 55.518 9.27695C55.3293 9.2374 55.1805 9.01473 55.0138 8.87459C55.1792 8.71725 55.3193 8.49327 55.5171 8.42062C55.7429 8.33808 56.0204 8.38452 56.2756 8.38452C61.2719 8.38366 66.2687 8.38194 71.2651 8.38538C72.5593 8.38624 72.6118 8.46147 72.449 9.7524C72.2608 11.245 72.0914 12.7397 71.9019 14.2322C71.859 14.5688 71.7662 14.8994 71.6962 15.233C71.5539 15.2368 71.4113 15.2411 71.269 15.2454Z" fill="white"/>
	<path d="M346.55 28.0289C346.806 28.1355 346.969 28.2644 347.129 28.261C349.64 28.2111 352.161 28.2554 354.66 28.0482C356.873 27.8646 358.338 26.4486 359.353 24.5842C359.799 23.764 360.171 22.9055 360.602 22.0767C360.746 21.7994 360.968 21.5613 361.154 21.3055C361.266 21.3549 361.377 21.4048 361.489 21.4542C361.417 21.7607 361.388 22.0849 361.266 22.3708C360.409 24.3856 359.515 26.3858 358.673 28.4067C358.414 29.0288 358.038 29.2613 357.352 29.2583C352.063 29.236 346.775 29.2532 341.487 29.2282C341.162 29.2269 340.839 28.9694 340.515 28.831C340.854 28.6556 341.177 28.4196 341.538 28.3212C341.916 28.218 342.332 28.2378 342.732 28.2202C343.492 28.1871 343.93 27.81 344.114 27.0844C345.521 21.526 346.931 15.9681 348.36 10.4149C348.531 9.74984 348.283 9.45666 347.653 9.39261C347.147 9.3406 346.631 9.35994 346.13 9.2774C345.944 9.24645 345.791 9.01688 345.622 8.87803C345.787 8.71941 345.926 8.49371 346.123 8.42063C346.349 8.33723 346.626 8.3841 346.881 8.3841C351.878 8.38282 356.875 8.38109 361.871 8.38452C363.167 8.38538 363.221 8.46149 363.059 9.74856C362.871 11.2411 362.701 12.7358 362.512 14.2283C362.469 14.5654 362.377 14.8964 362.307 15.23C362.19 15.2429 362.071 15.2553 361.954 15.2682C361.874 14.96 361.73 14.6522 361.727 14.3431C361.72 13.6295 361.838 12.9125 361.801 12.2019C361.72 10.6079 360.969 9.65311 359.363 9.52973C356.97 9.34617 354.558 9.3496 352.155 9.37325C351.795 9.37669 351.222 9.86418 351.118 10.2296C350.412 12.707 349.805 15.2115 349.096 17.9872C350.852 17.878 352.469 17.8591 354.061 17.6511C355.169 17.5062 355.586 16.5407 355.926 15.6001C356.081 15.1732 356.281 14.7618 356.545 14.1484C357.068 15.4699 355.257 22.0797 354.359 22.3677C354.446 21.7242 354.526 21.1391 354.604 20.5536C354.735 19.5701 354.246 19.0215 353.289 18.9665C351.98 18.8913 350.665 18.8926 349.353 18.9158C349.145 18.9192 348.81 19.1776 348.758 19.3753C348.002 22.2439 347.285 25.1216 346.55 28.0289Z" fill="white"/>
	<path d="M500.476 9.96211C499.182 9.96211 497.966 9.82671 496.798 10.0008C495.675 10.1689 494.601 10.6573 493.381 11.0437C493.674 9.7833 494.51 9.22572 495.434 8.92222C496.489 8.57531 497.618 8.28559 498.72 8.26323C502.657 8.18413 506.595 8.22066 510.533 8.23484C511.149 8.23742 511.782 8.2817 512.375 8.42958C513.414 8.68923 513.654 9.60102 512.837 10.2661C512.301 10.7028 511.622 10.9706 510.871 11.3898C510.607 10.0382 509.662 9.96942 508.763 9.94534C507.051 9.89978 505.335 9.90493 503.623 9.94878C503.354 9.95566 502.924 10.2248 502.853 10.4565C502.08 12.9855 501.364 15.5317 500.591 18.2189C503.283 18.2189 505.914 18.2189 508.577 18.2189C508.251 19.5519 506.967 20.1778 505.795 20.0674C503.954 19.8941 502.089 19.9388 500.235 19.9771C499.982 19.9822 499.656 20.4444 499.505 20.7603C498.561 22.7361 497.68 24.7406 496.733 26.7151C495.943 28.3632 494.546 29.3623 492.844 29.9718C491.129 30.5857 489.243 29.9345 488.326 28.5279C487.855 27.8061 488.017 27.3388 488.713 26.9515C489.029 26.7752 489.355 26.6153 489.68 26.4546C490.179 26.2074 490.561 26.2645 490.853 26.8002C491.039 27.1402 491.299 27.4613 491.59 27.721C492.832 28.8275 493.706 28.6671 494.433 27.2098C497.007 22.047 499.025 16.6885 500.297 11.0691C500.373 10.7312 500.409 10.3847 500.476 9.96211Z" fill="white"/>
	<path d="M213.77 9.94744C213.686 10.1134 213.599 10.2342 213.56 10.3683C212.815 12.9416 212.075 15.5166 211.295 18.2244C213.967 18.2244 216.568 18.2244 219.183 18.2244C219.035 19.3808 217.678 20.2427 216.679 20.1619C214.769 20.0071 212.846 19.9753 210.929 19.9779C210.683 19.9783 210.357 20.4516 210.205 20.7693C209.261 22.745 208.379 24.75 207.432 26.724C206.64 28.373 205.239 29.3687 203.537 29.9757C201.776 30.6033 199.859 29.9077 198.972 28.4212C198.621 27.8323 198.676 27.4131 199.252 27.0714C199.655 26.8319 200.062 26.5426 200.507 26.4468C200.8 26.3836 201.229 26.5435 201.477 26.746C201.86 27.0589 202.087 27.558 202.473 27.8645C203.645 28.7939 204.439 28.6099 205.096 27.2945C207.69 22.1002 209.726 16.7091 211.007 11.0535C211.077 10.7427 211.124 10.4268 211.197 10.033C208.752 9.73982 206.431 9.78582 204.273 11.1692C204.19 11.0295 204.107 10.8902 204.023 10.7505C204.414 10.3055 204.719 9.65729 205.212 9.45524C206.468 8.94153 207.797 8.33667 209.116 8.28852C213.231 8.13849 217.355 8.2206 221.476 8.23694C222.053 8.23952 222.653 8.30272 223.201 8.46951C224.112 8.74635 224.315 9.58763 223.604 10.2071C223.154 10.5996 222.57 10.8601 222.013 11.1094C221.862 11.1778 221.424 11.0247 221.402 10.9173C221.197 9.90619 220.312 10.0012 219.662 9.97538C217.7 9.898 215.733 9.94744 213.77 9.94744Z" fill="white"/>
	<path d="M466.859 21.7107C466.83 21.9751 466.848 22.2537 466.767 22.5017C465.265 27.1281 459.585 31.2477 453.958 29.4899C450.2 28.3159 447.849 24.6039 448.341 20.3635C449.09 13.9071 454.96 8.24728 461.517 7.65748C463.85 7.4477 465.122 7.97903 467.542 10.2101C468.386 9.33573 469.232 8.45834 470.079 7.58052C470.164 7.64114 470.25 7.70219 470.336 7.7628C470.336 7.99493 470.383 8.23868 470.329 8.45792C469.746 10.8218 469.165 13.1862 468.535 15.5381C468.446 15.8686 468.097 16.1317 467.869 16.4258C467.78 16.3677 467.692 16.3097 467.604 16.2517C467.533 15.1194 467.578 13.966 467.368 12.859C466.741 9.54551 464.334 8.02932 460.963 8.7326C458.243 9.30005 456.058 10.7049 454.433 12.9063C452.157 15.9912 450.966 19.465 451.202 23.2682C451.467 27.5103 454.916 29.811 459.117 28.6955C462.448 27.8108 464.675 25.7005 465.931 22.5628C466.072 22.2107 466.296 21.8904 466.481 21.5555C466.607 21.6076 466.733 21.6592 466.859 21.7107Z" fill="white"/>
	<path d="M232.111 26.5203C231.713 28.2777 231.508 29.925 230.951 31.4485C230.29 33.26 228.788 34.1847 226.793 34.2001C224.777 34.2156 223.184 33.3898 222.468 31.5194C221.19 28.184 221.169 24.7754 222.564 21.4649C223.275 19.7763 224.709 18.8968 226.625 18.883C228.566 18.8693 230.125 19.6547 230.808 21.421C231.442 23.0615 231.699 24.8438 232.111 26.5203ZM223.739 26.3922C223.691 26.3926 223.643 26.3931 223.595 26.3935C223.648 27.5714 223.652 28.754 223.771 29.925C223.842 30.6257 224.005 31.3449 224.283 31.9914C224.729 33.0322 225.578 33.5906 226.772 33.5699C227.922 33.5502 228.725 32.9776 229.146 31.9807C229.419 31.332 229.624 30.6076 229.642 29.9117C229.705 27.5929 229.701 25.2711 229.652 22.9519C229.639 22.3264 229.457 21.6717 229.206 21.0913C228.752 20.0416 227.87 19.5175 226.703 19.5115C225.525 19.5051 224.658 20.0553 224.215 21.1038C223.955 21.7185 223.802 22.4072 223.758 23.0727C223.685 24.1749 223.739 25.2853 223.739 26.3922Z" fill="white"/>
	<path d="M521.18 26.5105C520.792 28.2601 520.596 29.8713 520.064 31.3677C519.402 33.2308 517.892 34.1899 515.851 34.1998C513.784 34.2101 512.199 33.3276 511.491 31.4043C510.287 28.129 510.267 24.7884 511.6 21.5432C512.312 19.8091 513.756 18.8909 515.721 18.8827C517.663 18.8745 519.215 19.6707 519.893 21.4375C520.524 23.08 520.778 24.8628 521.18 26.5105ZM518.973 26.6188C518.844 24.9634 518.823 23.4902 518.591 22.05C518.319 20.3679 517.23 19.4961 515.721 19.5086C514.337 19.5202 513.121 20.3799 513.037 21.9675C512.875 25.0188 512.889 28.0942 513.089 31.1434C513.194 32.7374 514.415 33.5743 515.8 33.57C517.185 33.5657 518.228 32.7292 518.511 31.1176C518.782 29.5769 518.839 27.9992 518.973 26.6188Z" fill="white"/>
	<path d="M299.52 55.4268C299.789 54.883 299.962 54.2606 300.344 53.8092C301.762 52.1344 303.577 51.1525 305.839 51.1383C309.049 51.1181 312.259 51.1701 315.467 51.1074C316.3 51.091 317.127 50.7652 317.956 50.5773C318.225 50.5163 318.492 50.4432 318.896 50.3409C318.653 51.3872 317.922 51.867 317.16 52.0269C315.824 52.3072 314.441 52.4542 313.072 52.4907C310.491 52.5599 310.527 52.5208 309.849 54.951C308.81 58.6746 307.731 62.3883 306.629 66.0948C306.303 67.1927 305.443 67.7464 304.366 67.9171C305.761 62.8234 307.151 57.7477 308.566 52.5831C306.766 52.5831 305.064 52.4929 303.383 52.639C302.894 52.6816 302.298 53.3165 302.041 53.8225C301.455 54.9767 301.194 55.2867 299.52 55.4268Z" fill="white"/>
	<path d="M17.9673 52.5501C16.2079 52.5501 14.5776 52.5268 12.9491 52.5595C12.1206 52.5763 11.5879 53.0715 11.3941 53.8419C11.1039 54.9931 10.2487 55.4019 8.82935 55.7114C9.17992 54.9385 9.32304 54.3122 9.69155 53.8651C11.0886 52.1718 12.8992 51.1658 15.158 51.1413C18.3306 51.1069 21.505 51.1736 24.6763 51.1061C25.5814 51.0867 26.4794 50.7519 27.3806 50.561C27.6476 50.5047 27.9141 50.4445 28.3469 50.3495C27.9137 51.5269 27.044 52.0411 26.1131 52.1954C24.6885 52.4314 23.2223 52.4641 21.7715 52.4993C19.8642 52.5458 19.9 52.5208 19.3871 54.3599C18.3004 58.2568 17.1782 62.1442 16.0556 66.0312C15.772 67.0121 15.0341 67.5684 14.0809 67.8745C13.9535 67.9153 13.8047 67.893 13.7618 67.8951C15.1571 62.8045 16.5493 57.7245 17.9673 52.5501Z" fill="white"/>
	<path d="M375.668 3.12234C377.618 3.12234 379.498 3.12234 381.474 3.12234C381.502 3.49548 381.528 3.83208 381.563 4.29334C379.971 4.29334 378.457 4.29334 376.876 4.29334C376.876 15.7789 376.876 27.1459 376.876 38.6512C378.417 38.6512 379.923 38.6512 381.487 38.6512C381.487 39.0936 381.487 39.3984 381.487 39.802C379.57 39.802 377.665 39.802 375.668 39.802C375.668 27.6187 375.668 15.4342 375.668 3.12234Z" fill="white"/>
	<path d="M86.5097 38.6856C88.08 38.6856 89.5322 38.6856 91.0907 38.6856C91.1131 39.0772 91.1323 39.4087 91.1559 39.8218C89.1536 39.8218 87.2424 39.8218 85.2593 39.8218C85.2593 27.5925 85.2593 15.4032 85.2593 3.14123C87.2043 3.14123 89.1143 3.14123 91.0907 3.14123C91.0907 3.52684 91.0907 3.86216 91.0907 4.28602C89.5716 4.28602 88.0875 4.28602 86.5097 4.28602C86.5097 15.7643 86.5097 27.1557 86.5097 38.6856Z" fill="white"/>
	<path d="M234.981 39.8226C234.957 39.4796 234.936 39.17 234.906 38.7341C236.472 38.7341 237.981 38.7341 239.587 38.7341C239.587 27.2223 239.587 15.8339 239.587 4.33154C238.061 4.33154 236.55 4.33154 234.98 4.33154C234.98 3.88102 234.98 3.54399 234.98 3.07542C236.794 3.07542 238.57 3.0565 240.344 3.1025C240.536 3.10723 240.781 3.46102 240.885 3.70133C240.977 3.91412 240.91 4.19439 240.91 4.44502C240.91 15.8257 240.91 27.2069 240.91 38.5876C240.91 38.974 240.91 39.3605 240.91 39.8226C238.876 39.8226 236.962 39.8226 234.981 39.8226Z" fill="white"/>
	<path d="M528.692 4.30617C527.11 4.30617 525.624 4.30616 524.052 4.30659C524.033 3.89993 524.018 3.56419 523.996 3.07842C525.887 3.07842 527.696 3.06639 529.504 3.09949C529.663 3.1025 529.895 3.37721 529.953 3.56679C530.034 3.83074 529.986 4.13335 529.986 4.41965C529.987 15.8003 529.987 27.1815 529.987 38.5622C529.987 38.9504 529.987 39.3381 529.987 39.8114C527.969 39.8114 526.059 39.8114 524.072 39.8114C524.072 39.4632 524.072 39.1309 524.072 38.6757C525.603 38.6757 527.114 38.6757 528.692 38.6757C528.692 27.1909 528.692 15.8283 528.692 4.30617Z" fill="white"/>
	<path d="M260.662 18.6243C261.126 18.8555 261.442 19.0219 261.765 19.1711C266.54 21.3811 271.317 23.589 276.093 25.7977C276.356 25.9194 276.676 25.9903 276.865 26.1837C277.126 26.4498 277.286 26.8101 277.49 27.1303C277.109 27.1772 276.66 27.3758 276.358 27.2455C274.427 26.4098 272.528 25.5002 270.617 24.6177C266.927 22.9136 263.231 21.222 259.553 19.4943C259.164 19.3116 258.874 18.923 258.539 18.6298C258.862 18.3311 259.136 17.9283 259.517 17.7495C265.038 15.1633 270.573 12.6068 276.106 10.0455C276.336 9.93935 276.586 9.76913 276.811 9.7889C277.057 9.8104 277.363 9.9703 277.491 10.1655C277.571 10.2867 277.433 10.6654 277.278 10.7888C276.973 11.0317 276.595 11.1929 276.235 11.3606C271.265 13.6699 266.293 15.974 261.323 18.2812C261.159 18.3569 261.003 18.4467 260.662 18.6243Z" fill="white"/>
	<path d="M96.0014 22.1476C95.551 23.7678 95.235 25.3042 95.6911 26.8806C96.1095 28.328 96.9787 28.9488 98.5066 28.874C100.599 28.7717 102.383 27.9549 103.828 26.474C104.142 26.1515 104.305 25.6864 104.537 25.2871C104.731 25.4328 104.926 25.5789 105.12 25.7246C105.003 26.0238 104.963 26.3931 104.758 26.6119C102.669 28.8349 100.081 29.9143 97.0181 29.4251C94.9619 29.0967 93.8835 27.602 93.4165 25.6851C92.2598 20.9405 96.1099 15.9423 101.084 15.7101C102.975 15.622 104.403 16.4663 104.681 17.8363C104.975 19.285 103.959 20.9504 102.249 21.4546C100.974 21.8304 99.6187 21.9666 98.2895 22.1321C97.5748 22.2211 96.8386 22.1476 96.0014 22.1476ZM96.173 21.4748C98.3486 21.5217 100.358 21.5441 102.196 20.5876C103.496 19.9109 104.016 18.6196 103.523 17.544C103.093 16.6069 101.782 16.1323 100.486 16.5024C98.009 17.2104 96.8527 19.0439 96.173 21.4748Z" fill="white"/>
	<path d="M386.598 22.1488C386.16 23.8168 385.838 25.3545 386.313 26.9287C386.735 28.3254 387.58 28.9341 389.057 28.8752C391.151 28.7918 392.928 27.972 394.406 26.5242C394.735 26.2027 395.032 25.8501 395.344 25.5118C395.464 25.5746 395.584 25.6378 395.705 25.7005C395.608 25.9933 395.595 26.36 395.403 26.5668C393.298 28.8331 390.684 29.9357 387.578 29.4139C385.525 29.0691 384.464 27.5525 384.013 25.636C382.892 20.8781 386.773 15.9061 391.744 15.7071C393.575 15.6336 394.972 16.4529 395.279 17.7795C395.61 19.214 394.614 20.9241 392.913 21.4353C391.606 21.8273 390.213 21.9606 388.848 22.1329C388.133 22.2228 387.398 22.1488 386.598 22.1488ZM386.907 21.4782C388.951 21.5212 390.993 21.5543 392.855 20.5566C394.113 19.8825 394.6 18.6599 394.148 17.5895C393.744 16.6339 392.454 16.1954 391.138 16.4748C388.961 16.9365 387.01 19.4797 386.907 21.4782Z" fill="white"/>
	<path d="M483.645 21.6123C483.646 26.1222 483.646 30.6321 483.645 35.1424C483.645 35.4287 483.715 35.7442 483.616 35.994C483.489 36.3134 483.223 36.5795 483.018 36.8684C482.811 36.5872 482.565 36.3246 482.413 36.0172C482.327 35.8427 482.394 35.5951 482.394 35.3801C482.394 26.1811 482.388 16.982 482.408 7.78342C482.409 7.24349 482.087 6.33172 482.993 6.31667C483.889 6.30162 483.629 7.21213 483.632 7.76023C483.654 12.3776 483.645 16.9949 483.645 21.6123Z" fill="white"/>
	<path d="M194.569 21.6175C194.569 26.1274 194.569 30.6372 194.568 35.1471C194.568 35.4691 194.633 35.8182 194.527 36.1053C194.422 36.3925 194.141 36.6173 193.937 36.8697C193.733 36.6221 193.474 36.399 193.344 36.1182C193.249 35.9093 193.318 35.6256 193.318 35.375C193.318 26.1764 193.312 16.9773 193.332 7.77827C193.333 7.23963 193.011 6.32654 193.922 6.31708C194.816 6.30763 194.553 7.21726 194.555 7.76536C194.579 12.3827 194.569 17.0001 194.569 21.6175Z" fill="white"/>
	<path d="M312.953 64.2451C313.282 62.9787 313.475 61.6559 313.977 60.4583C314.554 59.0792 315.818 58.4864 317.33 58.4834C318.835 58.4804 320.082 59.0504 320.728 60.4101C321.913 62.9056 321.917 65.4789 320.794 67.9954C320.157 69.4226 318.86 70.0064 317.33 69.9999C315.796 69.9935 314.49 69.3973 313.911 67.9468C313.455 66.8038 313.279 65.5528 312.953 64.2451ZM319.982 64.3427C319.891 63.1519 319.894 62.0699 319.708 61.0206C319.474 59.7034 318.518 59.0036 317.256 59.0414C316.02 59.0779 315.091 59.7623 315.011 61.0846C314.886 63.1773 314.903 65.2889 315.031 67.382C315.108 68.6549 316.102 69.4144 317.279 69.4458C318.497 69.4781 319.415 68.8126 319.66 67.5268C319.866 66.4453 319.889 65.3297 319.982 64.3427Z" fill="white"/>
	<path d="M434.996 12.8393C435.073 13.3087 435.167 13.494 435.114 13.617C434.561 14.9049 433.771 16.0007 432.404 16.5612C431.491 16.9352 430.594 16.848 429.825 16.235C429.063 15.628 428.95 14.8172 429.19 13.899C429.714 11.8914 430.197 9.87357 430.73 7.72373C429.82 7.66183 428.981 7.60464 428.142 7.54747C428.127 7.42624 428.112 7.30504 428.097 7.18381C428.89 6.56435 429.949 7.09911 430.965 6.79045C431.179 5.98012 431.405 5.08985 431.651 4.20515C431.756 3.82728 431.808 3.37504 432.056 3.11195C432.302 2.85015 432.762 2.78353 433.129 2.63135C433.264 2.96064 433.558 3.31786 433.505 3.61448C433.315 4.66511 433.006 5.69511 432.722 6.81409C433.653 6.88115 434.513 6.94262 435.373 7.00453C435.384 7.15327 435.394 7.30202 435.404 7.45076C434.93 7.51352 434.439 7.68418 433.984 7.61755C432.786 7.44216 432.324 7.94081 432.106 9.06323C431.772 10.7828 431.2 12.4576 430.864 14.1767C430.749 14.7665 431.04 15.4324 431.146 16.0634C431.801 15.8416 432.544 15.7415 433.086 15.3623C433.59 15.0094 433.878 14.3594 434.261 13.8397C434.454 13.5779 434.644 13.3182 434.996 12.8393Z" fill="white"/>
	<path d="M140.09 7.71692C139.164 7.65201 138.334 7.59224 137.503 7.53378C137.496 7.37171 137.489 7.20921 137.482 7.04714C138.387 6.97148 139.291 6.89583 140.335 6.80856C140.549 6.02618 140.777 5.17546 141.015 4.32687C141.121 3.94815 141.145 3.48772 141.387 3.22076C141.651 2.92844 142.122 2.81625 142.503 2.62582C142.636 2.98606 142.928 3.37253 142.872 3.70139C142.699 4.71849 142.392 5.71322 142.113 6.812C143.045 6.8825 143.914 6.94828 144.783 7.01406C144.781 7.18085 144.778 7.34765 144.776 7.51444C144.095 7.55614 143.413 7.64469 142.735 7.62535C142.114 7.60772 141.825 7.82009 141.681 8.4245C141.225 10.3405 140.657 12.2324 140.259 14.1591C140.137 14.7485 140.423 15.4191 140.522 16.0528C141.178 15.8382 141.922 15.7475 142.464 15.3731C142.97 15.0236 143.262 14.3745 143.644 13.8543C143.837 13.5917 144.021 13.3226 144.323 12.8966C144.452 13.2581 144.561 13.4021 144.527 13.4954C144.03 14.8615 143.199 15.9599 141.811 16.554C140.905 16.9418 140.004 16.8541 139.23 16.2466C138.465 15.6461 138.333 14.8375 138.579 13.9171C139.022 12.256 139.424 10.5847 139.837 8.91586C139.929 8.54573 139.995 8.16915 140.09 7.71692Z" fill="white"/>
	<path d="M417.017 10.3997C416.536 9.11741 417.4 7.28957 418.376 6.85152C419.367 6.40659 420.416 6.83516 421.319 8.06806C421.92 7.69149 422.478 7.13867 423.135 6.98263C423.896 6.80122 424.786 6.81884 425.541 7.02734C426.265 7.22723 426.599 7.97995 426.282 8.69442C426.109 9.08647 425.62 9.41876 425.195 9.59459C425 9.67497 424.374 9.32505 424.365 9.15009C424.345 8.74299 424.562 8.31654 424.722 7.91331C424.776 7.7779 424.948 7.68805 425.095 7.55178C423.424 7.02216 421.686 8.12225 421.145 10.0408C420.659 11.7651 420.255 13.5112 419.805 15.2454C419.715 15.5902 419.668 16.0153 419.437 16.2367C419.17 16.4925 418.719 16.5634 418.348 16.7143C418.224 16.3794 417.936 16.0093 418.002 15.7157C418.443 13.7593 418.965 11.8201 419.449 9.87271C419.561 9.42176 419.736 8.94892 419.688 8.507C419.644 8.10893 419.333 7.73879 419.14 7.35662C418.76 7.57629 418.265 7.71429 418.028 8.03584C417.72 8.45412 417.623 9.02112 417.421 9.5185C417.3 9.81769 417.152 10.1066 417.017 10.3997Z" fill="white"/>
	<path d="M134.549 7.52205C132.702 7.0797 131.059 8.16772 130.524 10.0897C130.054 11.7813 129.647 13.4901 129.21 15.1903C129.138 15.468 129.134 15.8278 128.952 15.9976C128.624 16.3033 128.185 16.4937 127.793 16.7323C127.665 16.3406 127.363 15.9134 127.437 15.563C127.794 13.8822 128.26 12.2241 128.672 10.5544C128.835 9.89415 129.049 9.22782 129.07 8.55892C129.082 8.16773 128.76 7.76622 128.588 7.36901C128.18 7.59899 127.655 7.74258 127.395 8.08176C127.08 8.49058 127.004 9.07133 126.799 9.56698C126.679 9.855 126.507 10.122 126.279 10.5471C125.888 9.36065 126.695 7.43435 127.616 6.92107C128.616 6.36481 129.683 6.75128 130.734 8.03576C131.38 7.65016 131.982 7.09473 132.679 6.93052C133.4 6.76028 134.27 6.81317 134.973 7.05434C135.741 7.31699 136.014 8.09939 135.62 8.84051C135.432 9.19344 134.949 9.48533 134.541 9.59839C134.321 9.65943 133.761 9.31078 133.735 9.101C133.689 8.73603 133.915 8.32593 134.074 7.95409C134.135 7.81051 134.324 7.71937 134.549 7.52205Z" fill="white"/>
	<path d="M268.095 32.2395C270.787 32.2377 273.48 32.2352 276.172 32.2408C276.496 32.2416 276.845 32.2309 277.135 32.3435C277.316 32.4136 277.487 32.6973 277.51 32.9019C277.525 33.0378 277.295 33.2897 277.131 33.3361C276.788 33.4328 276.416 33.4586 276.056 33.459C270.708 33.4659 265.36 33.4638 260.011 33.4638C259.866 33.4638 259.691 33.5115 259.58 33.45C259.222 33.251 258.887 33.0107 258.543 32.7863C258.889 32.604 259.233 32.2687 259.582 32.2636C262.419 32.2206 265.257 32.2395 268.095 32.2395Z" fill="white"/>
	<path d="M180.826 27.5955C180.526 26.0032 181.737 24.1869 183.086 24.0016C183.724 23.9144 184.633 24.1151 185.047 24.5373C185.451 24.9482 185.639 25.8806 185.472 26.4575C184.993 28.1027 184.226 29.6653 183.7 31.2998C183.505 31.9037 183.452 33.0876 183.7 33.1959C184.581 33.5798 185.119 32.7867 185.563 32.126C185.801 31.7731 185.926 31.3492 186.125 30.9692C186.255 30.722 186.427 30.4967 186.767 30.3566C186.803 31.5405 186.308 32.4948 185.462 33.2772C184.778 33.9091 183.964 34.1516 183.043 33.8214C182.009 33.4509 181.526 32.494 181.907 31.3793C182.336 30.1257 182.857 28.9027 183.339 27.6672C183.509 27.2331 183.782 26.8109 183.829 26.3647C183.892 25.7762 183.779 25.1696 183.741 24.5708C183.142 24.8941 182.468 25.1352 181.968 25.569C181.616 25.8733 181.511 26.4459 181.277 26.8887C181.147 27.1346 180.978 27.3603 180.826 27.5955Z" fill="white"/>
	<path d="M475.837 30.2637C476.3 31.9626 474.669 33.9435 473.134 33.9645C471.693 33.9843 470.736 32.8008 471.194 31.4282C471.681 29.9684 472.298 28.5497 472.856 27.1126C472.985 26.7786 473.186 26.4459 473.205 26.1037C473.234 25.6055 473.128 25.1004 473.079 24.5983C472.542 24.8154 471.906 24.9224 471.496 25.2801C471.088 25.6373 470.902 26.2421 470.625 26.7429C470.47 27.0236 470.328 27.313 470.09 27.7691C469.894 27.4342 469.742 27.27 469.775 27.2167C470.381 26.2296 470.882 25.1377 471.672 24.315C472.346 23.6142 473.375 23.7243 474.189 24.3249C474.992 24.9172 475.118 25.7271 474.765 26.6307C474.141 28.2342 473.47 29.8235 472.93 31.4544C472.75 31.9991 472.684 33.0235 472.958 33.1847C473.716 33.6305 474.302 32.9319 474.704 32.34C475.146 31.6904 475.465 30.9592 475.837 30.2637Z" fill="white"/>
	<path d="M23.9253 69.1604C24.0811 69.0967 24.1747 69.0314 24.2732 69.0215C26.4064 68.8216 26.4095 68.8229 26.4055 66.6593C26.4016 64.4772 26.3915 62.2947 26.3797 60.1127C26.3797 60.046 26.3333 59.9798 26.3035 59.9003C25.5061 60.0078 24.7052 60.1157 23.9038 60.2236C23.8671 60.0985 23.8299 59.9738 23.7927 59.8487C25.0851 59.4162 26.3779 58.9833 27.8165 58.5019C27.8445 58.9283 27.8888 59.3032 27.8896 59.678C27.8958 62.3261 27.9391 64.975 27.8704 67.621C27.8432 68.6776 28.2459 69.0512 29.26 69.0112C29.6276 68.9966 30.0005 69.1152 30.3712 69.1733C30.3602 69.3164 30.3493 69.4596 30.3384 69.6027C28.2726 69.6027 26.2064 69.607 24.1406 69.5851C24.0697 69.5834 24.0036 69.3216 23.9253 69.1604Z" fill="white"/>
	<path d="M146.861 15.6452C146.761 14.0211 147.862 12.7172 149.078 12.636C150.435 12.5449 151.224 13.5108 150.766 14.7729C150.351 15.9177 149.807 17.0186 149.425 18.1724C149.292 18.5744 149.473 19.0765 149.511 19.5326C149.947 19.3357 150.441 19.2085 150.802 18.9205C151.091 18.6896 151.209 18.258 151.423 17.9274C151.553 17.725 151.72 17.5457 151.995 17.1996C152.072 18.7902 150.807 20.1826 149.554 20.1615C148.324 20.1409 147.622 19.1865 148.045 18.0323C148.464 16.8892 148.999 15.7853 149.382 14.6315C149.518 14.221 149.357 13.715 149.331 13.2529C148.869 13.4562 148.307 13.5607 147.97 13.8882C147.553 14.294 147.323 14.8851 146.861 15.6452Z" fill="white"/>
	<path d="M437.645 15.3834C437.45 13.9932 438.399 12.8188 439.514 12.6571C440.966 12.4465 441.855 13.4623 441.358 14.8147C440.938 15.9577 440.405 17.0621 440.014 18.2133C439.884 18.5951 440.039 19.0697 440.063 19.5021C440.504 19.331 441.055 19.267 441.359 18.9635C441.806 18.5181 442.076 17.9017 442.598 17.4563C442.58 18.4377 442.156 19.2175 441.346 19.7772C440.664 20.2493 439.916 20.3133 439.192 19.8645C438.457 19.4084 438.358 18.7412 438.66 17.9876C439.114 16.8562 439.626 15.7445 440.005 14.5899C440.137 14.1892 439.944 13.6863 439.9 13.2302C439.464 13.4249 438.925 13.5225 438.617 13.838C438.2 14.2657 437.961 14.8603 437.645 15.3834Z" fill="white"/>
	<path d="M406.166 11.4539C404.054 11.456 401.943 11.4758 399.832 11.4341C399.515 11.4276 399.204 11.1315 398.891 10.9694C399.199 10.7974 399.506 10.4776 399.816 10.4755C404.111 10.4432 408.407 10.4437 412.703 10.4789C413 10.4811 413.293 10.8241 413.589 11.0085C413.299 11.1568 413.011 11.4294 412.719 11.4341C410.535 11.4706 408.35 11.4539 406.166 11.4539Z" fill="white"/>
	<path d="M115.757 11.4582C113.682 11.4569 111.607 11.4801 109.533 11.4337C109.185 11.4259 108.845 11.119 108.501 10.9505C108.852 10.7841 109.202 10.4755 109.554 10.4725C113.741 10.4385 117.928 10.4501 122.115 10.4518C122.296 10.4518 122.501 10.4252 122.653 10.4974C122.857 10.5945 123.02 10.7751 123.2 10.92C123.013 11.0924 122.836 11.3976 122.636 11.4135C121.84 11.4775 121.037 11.4556 120.236 11.4573C118.743 11.4603 117.25 11.4582 115.757 11.4582Z" fill="white"/>
	<path d="M475.966 20.0661C475.493 20.3528 475.047 20.738 474.533 20.8747C474.345 20.9246 473.995 20.3834 473.719 20.1117C474.123 19.7218 474.477 19.2347 474.958 18.9927C475.133 18.9046 475.612 19.4002 475.953 19.6298C475.957 19.7751 475.962 19.9208 475.966 20.0661Z" fill="white"/>
	<path d="M186.686 20.0055C186.227 20.3128 185.8 20.7208 185.292 20.8764C185.098 20.9362 184.72 20.4207 184.426 20.1675C184.81 19.7596 185.138 19.2536 185.607 18.9935C185.786 18.8947 186.289 19.3606 186.644 19.5691C186.658 19.7144 186.672 19.8602 186.686 20.0055Z" fill="white"/>
	<path d="M441.283 10.7324C440.923 10.2329 440.545 9.90703 440.608 9.75614C440.749 9.41309 441.068 9.08812 441.399 8.9037C441.502 8.84652 442.121 9.33144 442.086 9.45309C441.978 9.83182 441.669 10.1551 441.283 10.7324Z" fill="white"/>
	<path d="M150.846 8.5254C151.18 9.03739 151.559 9.43417 151.487 9.54207C151.263 9.8791 150.886 10.1375 150.521 10.3451C150.468 10.3748 149.949 9.88254 149.995 9.75916C150.138 9.38302 150.45 9.06877 150.846 8.5254Z" fill="white"/>
</svg>
