<svg width="380" height="50" viewBox="0 0 380 50" fill="none" xmlns="http://www.w3.org/2000/svg">
	<g clip-path="url(#clip0)">
		<path d="M211.464 28.7327C211.691 28.4551 211.842 28.262 212.003 28.0771C215.429 24.1446 218.855 20.2131 222.283 16.2815C223.076 15.372 223.077 15.3723 222.383 14.4438C219.265 10.2733 216.148 6.10342 213.031 1.93264C212.853 1.69436 212.684 1.44934 212.439 1.10697C212.749 1.09039 212.92 1.07289 213.091 1.0732C217.379 1.07596 221.667 1.04401 225.954 1.1042C227.462 1.12538 228.984 1.28076 230.471 1.53562C233.421 2.04073 236.038 3.13662 237.562 5.90506C237.64 6.04723 237.892 6.09789 238.062 6.19124C237.384 4.23282 236.563 2.41566 235.792 0.578219C235.598 0.116402 235.341 -0.00212085 234.859 2.85585e-05C230.676 0.017838 226.493 0.0101489 222.31 0.0101489C217.944 0.0101489 213.578 0.00646315 209.212 0.0205878C208.959 0.021509 208.541 0.11394 208.49 0.261021C208.403 0.50851 208.521 0.841975 208.607 1.12385C208.656 1.28567 208.811 1.41678 208.919 1.56141C212.526 6.39513 216.134 11.2282 219.741 16.0626C219.908 16.2864 220.064 16.5182 220.249 16.7814C216.273 21.3446 212.318 25.8823 208.206 30.6015C208.736 30.6583 208.98 30.7074 209.225 30.7077C217.774 30.7117 226.323 30.7071 234.872 30.7219C235.367 30.7228 235.601 30.5812 235.773 30.1148C236.481 28.1908 237.239 26.2842 237.973 24.3694C238.049 24.1707 238.086 23.9576 238.142 23.7513C238.075 23.7102 238.008 23.669 237.941 23.6279C237.779 23.8069 237.618 23.9871 237.454 24.1646C236.676 25.0093 236.011 26.0051 235.095 26.6671C232.861 28.2826 230.176 28.6409 227.498 28.6968C222.376 28.804 217.251 28.776 212.128 28.8006C211.953 28.8018 211.779 28.7662 211.464 28.7327Z" fill="white"/>
		<path d="M29.7008 6.19467C29.7413 6.14739 29.782 6.0998 29.8225 6.0522C28.9878 4.15182 28.1651 2.24622 27.299 0.35996C27.2171 0.181866 26.8615 0.0252531 26.6328 0.024639C18.0053 0.00775081 9.3781 0.00929 0.7506 0.0132818C0.101356 0.0135888 -0.130225 0.364259 0.129911 0.94767C0.221853 1.15432 0.387851 1.33056 0.526549 1.51602C4.14869 6.37092 7.77209 11.2252 11.3942 16.0801C11.5606 16.3031 11.7181 16.5318 11.8932 16.7762C7.9042 21.3539 3.95226 25.8894 0 30.4247C0.0489521 30.4978 0.0979046 30.5708 0.146543 30.6439C0.393186 30.6663 0.63983 30.7081 0.886473 30.7081C9.43553 30.7115 17.9846 30.7081 26.5333 30.7194C26.9842 30.7201 27.2274 30.6101 27.3925 30.1661C28.1243 28.196 28.8993 26.2413 29.6509 24.2783C29.7168 24.106 29.7256 23.9126 29.761 23.729C29.7023 23.6958 29.6437 23.6626 29.585 23.6295C29.4287 23.791 29.2204 23.9276 29.125 24.1183C28.4412 25.4853 27.3363 26.432 26.003 27.1481C23.8591 28.2992 21.5003 28.6563 19.1161 28.7002C14.0198 28.7942 8.92153 28.7764 3.82392 28.8006C3.62528 28.8016 3.42665 28.7626 3.10281 28.7294C3.37079 28.4085 3.56064 28.1727 3.75927 27.9443C7.20161 23.9921 10.6339 20.0311 14.102 16.1007C14.5884 15.5495 14.6103 15.1924 14.1632 14.6019C10.9571 10.3685 7.79061 6.10656 4.61343 1.85226C4.45276 1.63701 4.30936 1.40918 4.10351 1.10765C4.37777 1.09076 4.5265 1.07326 4.67556 1.07326C8.96295 1.07571 13.2513 1.03978 17.5377 1.10457C19.1243 1.12852 20.7272 1.28266 22.2873 1.56454C25.1467 2.08132 27.6878 3.1769 29.1745 5.85722C29.2621 6.01627 29.5213 6.08413 29.7008 6.19467Z" fill="white"/>
		<path d="M51.0985 10.8896C51.2004 10.8865 51.3027 10.8835 51.4047 10.8807C51.4549 10.6424 51.5215 10.4063 51.5522 10.1659C51.6881 9.09976 51.8095 8.03211 51.9444 6.966C52.0612 6.04391 52.0235 5.99017 51.0956 5.98956C47.5133 5.9871 43.9307 5.98833 40.3484 5.98894C40.1655 5.98894 39.9665 5.95577 39.8046 6.01473C39.6628 6.06662 39.5624 6.22661 39.4438 6.33899C39.5633 6.43909 39.67 6.59814 39.8053 6.62639C40.0569 6.6789 40.3262 6.64359 40.5863 6.66539C41.4414 6.73694 41.5431 6.86774 41.3425 7.6578C40.3855 11.4297 39.4064 15.1967 38.4788 18.9757C38.2749 19.8069 37.8688 20.2374 36.9849 20.199C36.8029 20.191 36.6036 20.1701 36.4401 20.2294C36.207 20.3138 35.9999 20.4668 35.7815 20.5902C36.0124 20.69 36.243 20.8761 36.4746 20.877C40.2662 20.8951 44.0578 20.8828 47.8494 20.8985C48.3396 20.9006 48.6126 20.7397 48.799 20.2936C49.4024 18.8498 50.0435 17.4213 50.6582 15.9822C50.7457 15.777 50.7687 15.5455 50.8214 15.326C50.742 15.2901 50.6623 15.2544 50.5829 15.2185C50.4486 15.4 50.2882 15.5682 50.185 15.7654C49.8759 16.3571 49.6111 16.9715 49.2891 17.5562C48.6461 18.7242 47.7694 19.7676 46.3843 19.9257C44.4479 20.1465 42.4813 20.1185 40.5273 20.1864C40.4128 20.1904 40.2948 20.0989 40.1078 20.0231C40.6343 17.9461 41.1464 15.8907 41.6931 13.8435C41.7329 13.6946 42.0175 13.514 42.1926 13.5094C43.0803 13.4867 43.9725 13.479 44.8577 13.5398C45.7018 13.5979 45.9444 13.923 45.8744 14.753C45.8411 15.1473 45.7677 15.5385 45.7068 15.9711C46.3448 15.7777 47.647 11.0655 47.2783 10.0998C47.0863 10.5426 46.94 10.834 46.8321 11.1389C46.5826 11.843 46.2522 12.5324 45.4231 12.6322C44.3041 12.767 43.1685 12.7706 41.9196 12.8373C42.4286 10.9194 42.9178 9.19739 43.3308 7.45791C43.4839 6.81339 43.8438 6.64052 44.4372 6.64759C45.5876 6.6611 46.7392 6.62702 47.8886 6.66356C50.6877 6.75199 51.2714 7.42844 51.0006 10.1683C50.978 10.4035 51.0633 10.6489 51.0985 10.8896Z" fill="white"/>
		<path d="M248.469 20.0206C248.996 17.944 249.51 15.8885 250.052 13.8395C250.09 13.6983 250.33 13.5137 250.479 13.5113C251.42 13.4947 252.363 13.4938 253.301 13.5475C253.987 13.5868 254.338 13.9786 254.244 14.6812C254.188 15.0994 254.131 15.5173 254.068 15.977C254.712 15.7712 256.011 11.0499 255.635 10.106C255.446 10.5442 255.303 10.838 255.192 11.1429C254.948 11.8148 254.649 12.5044 253.855 12.6079C252.714 12.7565 251.554 12.77 250.294 12.848C250.803 10.8653 251.238 9.07642 251.744 7.30684C251.819 7.04584 252.23 6.69763 252.488 6.69518C254.211 6.67829 255.94 6.67584 257.656 6.80695C258.808 6.89508 259.346 7.57706 259.404 8.71563C259.43 9.2232 259.346 9.73538 259.351 10.2451C259.353 10.4659 259.456 10.6857 259.513 10.9059C259.598 10.8967 259.683 10.8878 259.767 10.8786C259.817 10.6403 259.883 10.4038 259.914 10.1631C260.049 9.09699 260.171 8.02936 260.306 6.96325C260.422 6.04392 260.384 5.98956 259.454 5.98895C255.872 5.98649 252.29 5.98773 248.707 5.98865C248.524 5.98865 248.325 5.95516 248.163 6.01473C248.022 6.06693 247.922 6.22815 247.804 6.34145C247.925 6.44063 248.035 6.60461 248.169 6.62672C248.527 6.68567 248.897 6.67185 249.261 6.70901C249.712 6.75476 249.89 6.96417 249.767 7.43919C248.742 11.4058 247.731 15.3757 246.723 19.346C246.591 19.8643 246.277 20.1336 245.732 20.1573C245.445 20.1698 245.147 20.1557 244.876 20.2294C244.617 20.2997 244.386 20.4683 244.142 20.5936C244.374 20.6924 244.606 20.8764 244.839 20.8773C248.631 20.8951 252.422 20.8828 256.214 20.8988C256.706 20.9009 256.975 20.7348 257.161 20.2905C257.765 18.847 258.406 17.4183 259.021 15.9791C259.108 15.7749 259.129 15.5434 259.181 15.3245C259.1 15.2891 259.02 15.2535 258.94 15.2182C258.806 15.4009 258.647 15.571 258.544 15.7691C258.235 16.3611 257.969 16.9743 257.649 17.5602C256.921 18.8919 255.871 19.9033 254.284 20.0344C252.492 20.1824 250.685 20.1508 248.885 20.1864C248.77 20.1889 248.653 20.0968 248.469 20.0206Z" fill="white"/>
		<path d="M358.831 7.11579C358.783 7.41763 358.758 7.66513 358.703 7.90647C357.791 11.9203 356.344 15.7478 354.498 19.4356C353.977 20.4765 353.35 20.5911 352.46 19.8007C352.251 19.6152 352.065 19.3859 351.932 19.143C351.722 18.7604 351.448 18.7196 351.09 18.8961C350.858 19.011 350.624 19.1252 350.397 19.2511C349.898 19.5277 349.783 19.8615 350.12 20.3771C350.778 21.3818 352.13 21.8469 353.359 21.4085C354.579 20.973 355.581 20.2594 356.148 19.0822C356.827 17.6719 357.458 16.24 358.135 14.8288C358.243 14.6031 358.477 14.273 358.659 14.2693C359.987 14.242 361.325 14.2101 362.645 14.3338C363.485 14.4127 364.405 13.9657 364.64 13.0135C362.73 13.0135 360.844 13.0135 358.913 13.0135C359.468 11.0941 359.981 9.27534 360.535 7.46892C360.586 7.30341 360.894 7.11119 361.088 7.10627C362.315 7.07495 363.545 7.07127 364.773 7.10382C365.417 7.12101 366.095 7.17016 366.284 8.13555C366.823 7.83617 367.309 7.64487 367.694 7.33289C368.28 6.85787 368.108 6.20659 367.363 6.02113C366.937 5.9155 366.483 5.88387 366.042 5.88203C363.219 5.8719 360.395 5.84581 357.573 5.90231C356.782 5.91828 355.973 6.12522 355.216 6.37302C354.553 6.5898 353.954 6.98807 353.744 7.88837C354.619 7.61232 355.389 7.2635 356.194 7.14344C357.032 7.01908 357.903 7.11579 358.831 7.11579Z" fill="white"/>
		<path d="M153.269 7.10531C154.676 7.10531 156.086 7.07 157.493 7.12527C157.959 7.1437 158.594 7.07585 158.741 7.79805C158.757 7.87482 159.07 7.98412 159.179 7.93529C159.578 7.7572 159.997 7.57112 160.32 7.29078C160.829 6.84831 160.684 6.2474 160.031 6.04965C159.638 5.93051 159.208 5.88537 158.794 5.88353C155.839 5.87186 152.883 5.81321 149.932 5.92037C148.986 5.95476 148.033 6.38681 147.133 6.75374C146.779 6.89806 146.561 7.36111 146.281 7.67891C146.34 7.77871 146.4 7.87819 146.459 7.97799C148.007 6.98987 149.671 6.95702 151.424 7.16643C151.372 7.4477 151.338 7.67337 151.288 7.89538C150.369 11.935 148.909 15.7859 147.049 19.4961C146.578 20.4357 146.01 20.5671 145.169 19.9032C144.892 19.6843 144.73 19.3278 144.455 19.1042C144.277 18.9596 143.97 18.8454 143.759 18.8905C143.441 18.959 143.148 19.1657 142.859 19.3367C142.447 19.5808 142.407 19.8802 142.659 20.3008C143.295 21.3627 144.669 21.8595 145.932 21.4112C147.152 20.9776 148.157 20.2665 148.724 19.0886C149.404 17.6786 150.036 16.2465 150.713 14.8352C150.822 14.6083 151.055 14.2702 151.232 14.2699C152.606 14.2681 153.985 14.2908 155.355 14.4013C156.07 14.4591 157.044 13.8434 157.15 13.0174C155.275 13.0174 153.41 13.0174 151.494 13.0174C152.053 11.0833 152.584 9.24398 153.119 7.40593C153.146 7.31012 153.208 7.22384 153.269 7.10531Z" fill="white"/>
		<path d="M334.728 15.5077C334.638 15.4708 334.548 15.434 334.458 15.3968C334.325 15.636 334.164 15.8648 334.063 16.1163C333.163 18.3575 331.566 19.8648 329.177 20.4968C326.165 21.2936 323.693 19.6502 323.503 16.6201C323.333 13.9036 324.187 11.4223 325.819 9.2188C326.984 7.64636 328.551 6.64289 330.501 6.23758C332.918 5.73523 334.644 6.81822 335.094 9.18503C335.244 9.97571 335.211 10.7996 335.263 11.6083C335.326 11.6498 335.389 11.6912 335.452 11.7327C335.616 11.5227 335.867 11.3347 335.93 11.0986C336.382 9.4187 336.799 7.72989 337.216 6.04137C337.255 5.88477 337.221 5.71067 337.221 5.54486C337.16 5.50156 337.098 5.45796 337.037 5.41466C336.43 6.04167 335.823 6.66838 335.218 7.29294C333.483 5.6993 332.571 5.31978 330.899 5.46963C326.197 5.89091 321.989 9.93365 321.451 14.5454C321.098 17.5742 322.784 20.2256 325.479 21.0642C329.514 22.3198 333.585 19.3772 334.663 16.0727C334.72 15.8955 334.708 15.6965 334.728 15.5077Z" fill="white"/>
		<path d="M214.75 39.5906C215.95 39.4905 216.137 39.2691 216.557 38.4447C216.742 38.0832 217.169 37.6297 217.52 37.5993C218.725 37.4949 219.945 37.5594 221.235 37.5594C220.221 41.2484 219.225 44.8738 218.224 48.5122C218.997 48.3903 219.613 47.9948 219.847 47.2106C220.637 44.5631 221.41 41.9104 222.155 39.2507C222.642 37.5149 222.616 37.5428 224.467 37.4934C225.448 37.4673 226.439 37.3623 227.397 37.1621C227.943 37.0478 228.468 36.7052 228.642 35.9578C228.353 36.0308 228.161 36.0831 227.968 36.1267C227.374 36.2609 226.781 36.4936 226.183 36.5053C223.883 36.5501 221.582 36.5129 219.281 36.5274C217.659 36.5375 216.357 37.2388 215.341 38.4351C215.067 38.7575 214.943 39.2022 214.75 39.5906Z" fill="white"/>
		<path d="M12.8822 37.5358C11.8655 41.2318 10.8673 44.8603 9.86695 48.4965C9.8977 48.495 10.0044 48.511 10.0957 48.4818C10.7792 48.2632 11.3082 47.8658 11.5115 47.1651C12.3164 44.3887 13.121 41.612 13.9002 38.8285C14.2679 37.5149 14.2422 37.5327 15.6097 37.4995C16.65 37.4744 17.7012 37.451 18.7226 37.2824C19.39 37.1722 20.0135 36.805 20.3242 35.9639C20.0138 36.0318 19.8227 36.0748 19.6313 36.115C18.9852 36.2513 18.3413 36.4905 17.6924 36.5043C15.4186 36.5526 13.1427 36.505 10.868 36.5295C9.24846 36.547 7.95028 37.2656 6.94865 38.4751C6.68443 38.7944 6.58182 39.2418 6.33047 39.7939C7.34811 39.5728 7.96127 39.2808 8.16931 38.4585C8.30832 37.9082 8.69021 37.5545 9.28423 37.5425C10.4519 37.5192 11.6208 37.5358 12.8822 37.5358Z" fill="white"/>
		<path d="M269.347 2.23025C269.347 11.0244 269.347 19.7277 269.347 28.43C270.778 28.43 272.144 28.43 273.518 28.43C273.518 28.1417 273.518 27.924 273.518 27.608C272.397 27.608 271.318 27.608 270.213 27.608C270.213 19.3899 270.213 11.2707 270.213 3.06667C271.346 3.06667 272.431 3.06667 273.573 3.06667C273.548 2.7372 273.529 2.49677 273.509 2.23025C272.093 2.23025 270.745 2.23025 269.347 2.23025Z" fill="white"/>
		<path d="M62.0257 27.6326C62.0257 19.397 62.0257 11.2602 62.0257 3.06144C63.1569 3.06144 64.221 3.06144 65.3102 3.06144C65.3102 2.75868 65.3102 2.51917 65.3102 2.24374C63.8931 2.24374 62.5237 2.24374 61.1292 2.24374C61.1292 11.0023 61.1292 19.7089 61.1292 28.4441C62.551 28.4441 63.9213 28.4441 65.357 28.4441C65.34 28.1491 65.3262 27.9123 65.3102 27.6326C64.1928 27.6326 63.1516 27.6326 62.0257 27.6326Z" fill="white"/>
		<path d="M168.476 28.4447C169.897 28.4447 171.269 28.4447 172.728 28.4447C172.728 28.1146 172.728 27.8386 172.728 27.5625C172.728 19.4335 172.728 11.3041 172.728 3.17501C172.728 2.996 172.776 2.7958 172.71 2.64381C172.635 2.47216 172.459 2.21945 172.322 2.21607C171.05 2.18322 169.776 2.19673 168.476 2.19673C168.476 2.53142 168.476 2.77216 168.476 3.09395C169.601 3.09395 170.685 3.09395 171.779 3.09395C171.779 11.3099 171.779 19.4445 171.779 27.6672C170.628 27.6672 169.545 27.6672 168.423 27.6672C168.444 27.9786 168.459 28.1997 168.476 28.4447Z" fill="white"/>
		<path d="M379.061 3.07584C379.061 11.3059 379.061 19.4221 379.061 27.6255C377.93 27.6255 376.846 27.6255 375.749 27.6255C375.749 27.9506 375.749 28.188 375.749 28.4367C377.174 28.4367 378.543 28.4367 379.99 28.4367C379.99 28.0987 379.99 27.8217 379.99 27.5444C379.99 19.4153 379.99 11.286 379.989 3.15689C379.989 2.95239 380.023 2.73624 379.966 2.54771C379.924 2.41229 379.758 2.21607 379.644 2.21392C378.347 2.19028 377.05 2.19887 375.695 2.19887C375.71 2.54585 375.721 2.78566 375.734 3.07614C376.862 3.07583 377.927 3.07584 379.061 3.07584Z" fill="white"/>
		<path d="M186.889 13.303C187.134 13.1762 187.246 13.1121 187.363 13.058C190.927 11.41 194.492 9.7642 198.055 8.11468C198.313 7.99493 198.584 7.87978 198.803 7.70629C198.914 7.61816 199.013 7.34764 198.956 7.26105C198.864 7.12164 198.644 7.00743 198.468 6.99207C198.306 6.97795 198.127 7.09954 197.962 7.17538C193.995 9.00484 190.027 10.8309 186.069 12.6782C185.795 12.8059 185.599 13.0936 185.367 13.307C185.608 13.5164 185.815 13.794 186.094 13.9245C188.731 15.1586 191.381 16.3669 194.027 17.5841C195.397 18.2144 196.758 18.8642 198.143 19.4611C198.36 19.5541 198.682 19.4123 198.955 19.3788C198.809 19.15 198.694 18.8927 198.507 18.7027C198.371 18.5645 198.142 18.5138 197.953 18.4269C194.529 16.8493 191.104 15.2722 187.68 13.6936C187.448 13.5871 187.222 13.4682 186.889 13.303Z" fill="white"/>
		<path d="M346.764 15.4374C346.764 12.1392 346.77 8.84114 346.754 5.54302C346.752 5.15152 346.939 4.50116 346.296 4.51191C345.647 4.52265 345.877 5.17392 345.877 5.55959C345.863 12.13 345.867 18.7008 345.867 25.2715C345.867 25.4251 345.819 25.6019 345.88 25.7266C345.989 25.9461 346.166 26.1337 346.314 26.3346C346.461 26.1282 346.652 25.9382 346.743 25.71C346.814 25.5316 346.764 25.3062 346.764 25.1017C346.764 21.8801 346.764 18.6587 346.764 15.4374Z" fill="white"/>
		<path d="M139.502 15.441C139.502 12.1429 139.509 8.8448 139.492 5.54669C139.49 5.15519 139.679 4.50545 139.038 4.5122C138.385 4.51896 138.616 5.17116 138.615 5.55591C138.601 12.1267 138.605 18.6974 138.605 25.2678C138.605 25.4469 138.555 25.6495 138.624 25.7987C138.717 25.9993 138.903 26.1586 139.049 26.3355C139.195 26.1552 139.396 25.9946 139.472 25.7895C139.548 25.5844 139.501 25.3351 139.501 25.1051C139.502 21.8837 139.502 18.6624 139.502 15.441Z" fill="white"/>
		<path d="M311.883 9.17094C311.631 9.513 311.494 9.6994 311.357 9.88547C311.082 10.2567 310.875 10.721 310.514 10.9731C310.126 11.2439 309.592 11.3154 309.123 11.4739C309.047 11.0231 308.838 10.5475 308.921 10.1262C309.162 8.89828 309.572 7.70197 309.812 6.47374C309.968 5.67201 310.299 5.31583 311.158 5.44111C311.484 5.4887 311.836 5.3668 312.176 5.32197C312.168 5.21573 312.161 5.10948 312.154 5.00323C311.537 4.95902 310.92 4.91511 310.253 4.86721C310.457 4.06793 310.678 3.33222 310.814 2.58177C310.853 2.3699 310.641 2.11474 310.545 1.87953C310.282 1.98823 309.951 2.03582 309.775 2.22282C309.598 2.41074 309.56 2.73377 309.485 3.00368C309.309 3.63561 309.147 4.27152 308.993 4.85032C308.265 5.07079 307.505 4.68882 306.937 5.13129C306.948 5.21788 306.958 5.30446 306.969 5.39105C307.571 5.43189 308.172 5.47274 308.825 5.51695C308.442 7.05255 308.097 8.49388 307.72 9.92785C307.548 10.5837 307.629 11.1628 308.176 11.5964C308.727 12.0343 309.37 12.0966 310.025 11.8295C311.005 11.4291 311.571 10.6464 311.968 9.72641C312.006 9.6386 311.938 9.50625 311.883 9.17094Z" fill="white"/>
		<path d="M100.442 5.51208C100.374 5.83511 100.326 6.10409 100.26 6.36847C99.9639 7.56047 99.6759 8.75431 99.358 9.94078C99.182 10.5982 99.2767 11.1758 99.8252 11.6047C100.38 12.0386 101.026 12.1013 101.675 11.8243C102.671 11.3999 103.267 10.6154 103.623 9.63955C103.648 9.57292 103.569 9.47007 103.477 9.21184C103.26 9.51613 103.128 9.70834 102.99 9.89595C102.716 10.2675 102.506 10.7312 102.144 10.9808C101.755 11.2482 101.222 11.313 100.751 11.4663C100.68 11.0137 100.476 10.5346 100.563 10.1137C100.849 8.73742 101.256 7.38606 101.582 6.0175C101.686 5.58578 101.893 5.43409 102.338 5.44668C102.824 5.46049 103.313 5.39724 103.801 5.36746C103.803 5.24832 103.805 5.12918 103.806 5.01004C103.183 4.96306 102.561 4.91607 101.892 4.86571C102.092 4.08087 102.312 3.37035 102.437 2.64385C102.477 2.40895 102.267 2.1329 102.172 1.87558C101.899 2.01161 101.561 2.09174 101.371 2.30054C101.198 2.49123 101.181 2.82011 101.105 3.09062C100.934 3.69676 100.771 4.30441 100.618 4.86326C99.8692 4.92559 99.2205 4.97963 98.5719 5.03367C98.577 5.14943 98.582 5.26551 98.587 5.38127C99.182 5.42395 99.7775 5.46572 100.442 5.51208Z" fill="white"/>
		<path d="M298.993 7.42839C299.09 7.21898 299.196 7.01264 299.283 6.79893C299.427 6.44366 299.496 6.03866 299.717 5.73989C299.887 5.51021 300.242 5.41164 300.515 5.25473C300.653 5.52771 300.876 5.79209 300.908 6.07643C300.942 6.39208 300.817 6.72983 300.736 7.05193C300.389 8.44291 300.015 9.82806 299.699 11.2255C299.652 11.4352 299.858 11.6996 299.947 11.9388C300.213 11.831 300.536 11.7803 300.728 11.5976C300.894 11.4395 300.927 11.1358 300.991 10.8896C301.315 9.65089 301.604 8.40362 301.953 7.17201C302.341 5.80161 303.587 5.01583 304.784 5.39413C304.679 5.49147 304.556 5.55564 304.517 5.65237C304.402 5.94039 304.247 6.24499 304.261 6.53578C304.268 6.66075 304.716 6.9107 304.856 6.85328C305.161 6.72769 305.511 6.49033 305.636 6.2103C305.863 5.69997 305.624 5.16231 305.104 5.01953C304.563 4.8706 303.925 4.85801 303.379 4.98759C302.908 5.09905 302.508 5.49392 302.077 5.7629C301.429 4.88226 300.678 4.57613 299.967 4.89394C299.267 5.20683 298.648 6.51244 298.993 7.42839Z" fill="white"/>
		<path d="M96.469 5.37289C96.3077 5.51383 96.1721 5.57893 96.1282 5.68149C96.0143 5.9471 95.8521 6.24002 95.885 6.50071C95.9038 6.65056 96.3052 6.89959 96.463 6.85599C96.7558 6.77524 97.1022 6.56674 97.2368 6.31465C97.5193 5.78528 97.3238 5.22642 96.773 5.03881C96.2688 4.86655 95.645 4.82877 95.1278 4.95037C94.6283 5.06767 94.1971 5.4644 93.7333 5.73983C92.9799 4.82234 92.2148 4.54629 91.4984 4.94362C90.8376 5.31025 90.259 6.68618 90.5392 7.53366C90.703 7.22998 90.8263 7.03929 90.912 6.83356C91.0594 6.47952 91.114 6.0647 91.3393 5.77269C91.5264 5.53042 91.9026 5.42785 92.1951 5.26358C92.3181 5.5473 92.549 5.83409 92.5402 6.11352C92.5252 6.5913 92.3724 7.06725 92.2553 7.53889C91.9597 8.73151 91.6259 9.91583 91.3698 11.1164C91.3165 11.3667 91.5333 11.6719 91.6252 11.9516C91.9064 11.7812 92.2211 11.6452 92.4558 11.4269C92.5864 11.3056 92.5895 11.0486 92.6407 10.8502C92.9545 9.63579 93.246 8.41522 93.5833 7.20694C93.9668 5.83408 95.1448 5.05693 96.469 5.37289Z" fill="white"/>
		<path d="M192.219 23.0282C190.184 23.0282 188.149 23.0147 186.115 23.0454C185.865 23.0491 185.618 23.2886 185.37 23.4188C185.616 23.579 185.857 23.7507 186.114 23.8929C186.193 23.9368 186.319 23.9027 186.423 23.9027C190.257 23.9027 194.092 23.9042 197.927 23.8993C198.185 23.899 198.452 23.8806 198.697 23.8115C198.815 23.7783 198.979 23.5984 198.969 23.5014C198.952 23.3552 198.83 23.1526 198.7 23.1025C198.492 23.0221 198.242 23.0297 198.01 23.0291C196.079 23.0251 194.149 23.027 192.219 23.0282Z" fill="white"/>
		<path d="M129.648 19.711C129.757 19.5431 129.879 19.3819 129.972 19.2062C130.14 18.89 130.215 18.481 130.467 18.2636C130.826 17.9537 131.309 17.7815 131.739 17.5506C131.766 17.9783 131.847 18.4116 131.802 18.8319C131.768 19.1507 131.572 19.4522 131.45 19.7623C131.104 20.6448 130.731 21.5184 130.424 22.4138C130.151 23.21 130.497 23.8935 131.238 24.1582C131.899 24.394 132.482 24.2208 132.972 23.7694C133.579 23.2106 133.934 22.5289 133.908 21.6833C133.665 21.7834 133.541 21.9443 133.448 22.1208C133.305 22.3923 133.215 22.695 133.045 22.9471C132.726 23.4191 132.341 23.9856 131.709 23.7114C131.531 23.634 131.57 22.7884 131.709 22.357C132.087 21.1895 132.636 20.0734 132.979 18.8982C133.1 18.4862 132.965 17.8202 132.675 17.5266C132.378 17.2251 131.726 17.0817 131.269 17.144C130.302 17.2764 129.433 18.5737 129.648 19.711Z" fill="white"/>
		<path d="M341.166 21.6169C340.899 22.114 340.67 22.636 340.353 23.1009C340.065 23.5238 339.645 24.0224 339.102 23.7043C338.905 23.5892 338.952 22.8571 339.081 22.4684C339.469 21.3034 339.949 20.1682 340.397 19.0229C340.65 18.3774 340.56 17.7977 339.984 17.3749C339.4 16.9459 338.663 16.868 338.18 17.3688C337.613 17.9562 337.254 18.7364 336.819 19.4414C336.796 19.4795 336.904 19.5959 337.045 19.8351C337.216 19.509 337.318 19.3035 337.429 19.103C337.627 18.7456 337.76 18.3123 338.053 18.0572C338.347 17.8017 338.803 17.7253 339.188 17.5702C339.223 17.9288 339.299 18.2896 339.279 18.6455C339.265 18.8899 339.121 19.1285 339.028 19.3671C338.629 20.3936 338.186 21.406 337.837 22.4487C337.508 23.4292 338.195 24.2754 339.228 24.2613C340.328 24.2453 341.498 22.8304 341.166 21.6169Z" fill="white"/>
		<path d="M17.1539 49.4003C17.2101 49.5154 17.2581 49.7033 17.3083 49.7036C18.7894 49.7193 20.2709 49.7162 21.752 49.7162C21.7598 49.614 21.7677 49.5117 21.7755 49.4095C21.5097 49.368 21.2424 49.2833 20.9788 49.2937C20.2517 49.3223 19.963 49.0554 19.9825 48.3007C20.0318 46.4107 20.0007 44.5187 19.9963 42.6272C19.9957 42.3594 19.964 42.0917 19.9439 41.7871C18.9125 42.131 17.9855 42.4402 17.0589 42.7491C17.0855 42.8384 17.1122 42.9275 17.1386 43.0168C17.7131 42.9398 18.2874 42.8627 18.8591 42.7859C18.8804 42.8427 18.9137 42.89 18.9137 42.9376C18.9222 44.4962 18.9294 46.0552 18.9322 47.6138C18.935 49.1592 18.9328 49.1583 17.4034 49.3011C17.3328 49.3081 17.2656 49.3548 17.1539 49.4003Z" fill="white"/>
		<path d="M105.296 11.1751C105.627 10.6322 105.792 10.21 106.091 9.92016C106.333 9.68618 106.736 9.61158 107.067 9.46634C107.086 9.79643 107.201 10.1578 107.104 10.4511C106.83 11.2752 106.446 12.0637 106.145 12.8802C105.842 13.7047 106.345 14.3863 107.227 14.4011C108.126 14.4161 109.033 13.4216 108.977 12.2854C108.78 12.5326 108.661 12.6607 108.567 12.8053C108.414 13.0414 108.329 13.3497 108.122 13.5146C107.863 13.7203 107.509 13.8112 107.196 13.9518C107.169 13.6261 107.039 13.2674 107.135 12.9803C107.409 12.1562 107.799 11.3698 108.096 10.5521C108.425 9.65058 107.859 8.96062 106.886 9.02571C106.014 9.08375 105.225 10.0151 105.296 11.1751Z" fill="white"/>
		<path d="M313.782 10.9882C314.009 10.6145 314.181 10.1898 314.48 9.88429C314.7 9.65891 315.087 9.58921 315.4 9.45011C315.431 9.7759 315.569 10.1351 315.475 10.4213C315.203 11.2461 314.836 12.0401 314.51 12.8483C314.293 13.3866 314.365 13.8632 314.892 14.1889C315.411 14.5095 315.947 14.4638 316.436 14.1266C317.017 13.7268 317.321 13.1698 317.333 12.4688C316.96 12.7869 316.766 13.2272 316.446 13.5453C316.228 13.7621 315.833 13.8079 315.516 13.9301C315.499 13.6212 315.388 13.2822 315.481 13.0095C315.761 12.1872 316.144 11.3984 316.445 10.5819C316.801 9.61591 316.164 8.89034 315.123 9.0408C314.323 9.15625 313.643 9.99513 313.782 10.9882Z" fill="white"/>
		<path d="M291.213 8.18134C292.779 8.18134 294.346 8.19331 295.911 8.16721C296.121 8.16383 296.327 7.96916 296.535 7.86322C296.323 7.7315 296.113 7.48647 295.9 7.48493C292.82 7.45975 289.74 7.45945 286.66 7.48247C286.438 7.48401 286.218 7.71246 285.997 7.83528C286.221 7.95104 286.444 8.1626 286.671 8.16721C288.185 8.19699 289.699 8.18288 291.213 8.18134Z" fill="white"/>
		<path d="M82.9958 8.18442C84.0658 8.18442 85.1362 8.18595 86.2065 8.1838C86.7808 8.18258 87.3566 8.19824 87.9274 8.15249C88.0711 8.14113 88.1976 7.92311 88.3319 7.79998C88.2026 7.6965 88.0859 7.56753 87.9396 7.49813C87.8307 7.44655 87.6836 7.4656 87.5536 7.4656C84.5519 7.46437 81.5501 7.45607 78.5483 7.48033C78.2957 7.48248 78.045 7.70295 77.7933 7.82178C78.0397 7.94215 78.2838 8.16139 78.533 8.16692C80.0197 8.20008 81.5077 8.1835 82.9958 8.18442Z" fill="white"/>
		<path d="M341.258 14.3329C341.255 14.2291 341.252 14.125 341.249 14.0213C341.004 13.8573 340.66 13.5033 340.535 13.5662C340.19 13.7391 339.937 14.087 339.647 14.3655C339.845 14.5595 340.096 14.9461 340.23 14.9105C340.599 14.8128 340.919 14.5377 341.258 14.3329Z" fill="white"/>
		<path d="M133.85 14.2896C133.84 14.1858 133.83 14.0817 133.82 13.978C133.566 13.829 133.205 13.4962 133.077 13.5668C132.74 13.7526 132.505 14.114 132.229 14.4054C132.44 14.5862 132.711 14.9544 132.851 14.9117C133.215 14.8006 133.521 14.5092 133.85 14.2896Z" fill="white"/>
		<path d="M316.391 7.666C316.668 7.25362 316.889 7.02273 316.967 6.75221C316.992 6.66531 316.548 6.31894 316.474 6.35978C316.237 6.49151 316.008 6.72364 315.907 6.96867C315.862 7.07645 316.133 7.3092 316.391 7.666Z" fill="white"/>
		<path d="M108.154 6.08957C107.87 6.4777 107.646 6.70215 107.544 6.97083C107.51 7.05896 107.883 7.41055 107.92 7.38936C108.182 7.24105 108.453 7.0565 108.613 6.81576C108.665 6.73869 108.393 6.45528 108.154 6.08957Z" fill="white"/>
		<path d="M211.464 28.7327C211.779 28.7662 211.953 28.8018 212.128 28.8006C217.251 28.776 222.376 28.804 227.498 28.6968C230.176 28.6409 232.861 28.2826 235.095 26.6671C236.011 26.0051 236.676 25.0093 237.454 24.1646C237.618 23.9871 237.779 23.8069 237.941 23.6279C238.008 23.669 238.075 23.7102 238.142 23.7513C238.086 23.9576 238.049 24.1707 237.973 24.3694C237.239 26.2842 236.481 28.1908 235.773 30.1148C235.601 30.5812 235.367 30.7228 234.872 30.7219C226.323 30.7071 217.774 30.7117 209.225 30.7077C208.98 30.7074 208.736 30.6583 208.206 30.6015C212.318 25.8823 216.273 21.3446 220.249 16.7814C220.064 16.5182 219.908 16.2864 219.741 16.0626C216.134 11.2282 212.526 6.39513 208.919 1.56141C208.811 1.41678 208.656 1.28567 208.607 1.12385C208.521 0.841975 208.403 0.50851 208.49 0.261021C208.541 0.11394 208.959 0.021509 209.212 0.0205878C213.578 0.00646315 217.944 0.0101489 222.31 0.0101489C226.493 0.0101489 230.676 0.017838 234.859 2.85585e-05C235.341 -0.00212085 235.598 0.116402 235.792 0.578219C236.563 2.41566 237.384 4.23282 238.062 6.19124C237.892 6.09789 237.64 6.04723 237.562 5.90506C236.038 3.13662 233.421 2.04073 230.471 1.53562C228.984 1.28076 227.462 1.12538 225.954 1.1042C221.667 1.04401 217.379 1.07596 213.091 1.0732C212.92 1.07289 212.749 1.09039 212.439 1.10697C212.684 1.44934 212.853 1.69436 213.031 1.93264C216.148 6.10342 219.265 10.2733 222.383 14.4438C223.077 15.3723 223.076 15.372 222.283 16.2815C218.855 20.2131 215.429 24.1446 212.003 28.0771C211.842 28.262 211.691 28.4551 211.464 28.7327Z" fill="white"/>
		<path d="M29.7008 6.19467C29.5213 6.08413 29.2621 6.01627 29.1745 5.85722C27.6878 3.1769 25.1467 2.08132 22.2873 1.56454C20.7272 1.28266 19.1243 1.12852 17.5377 1.10457C13.2513 1.03978 8.96295 1.07571 4.67556 1.07326C4.5265 1.07326 4.37777 1.09076 4.10351 1.10765C4.30936 1.40918 4.45276 1.63701 4.61343 1.85226C7.79061 6.10656 10.9571 10.3685 14.1632 14.6019C14.6103 15.1924 14.5884 15.5495 14.102 16.1007C10.6339 20.0311 7.20161 23.9921 3.75927 27.9443C3.56064 28.1727 3.37079 28.4085 3.10281 28.7294C3.42665 28.7626 3.62528 28.8016 3.82392 28.8006C8.92153 28.7764 14.0198 28.7942 19.1161 28.7002C21.5003 28.6563 23.8591 28.2992 26.003 27.1481C27.3363 26.432 28.4412 25.4853 29.125 24.1183C29.2204 23.9276 29.4287 23.791 29.585 23.6295C29.6437 23.6626 29.7023 23.6958 29.761 23.729C29.7256 23.9126 29.7168 24.106 29.6509 24.2783C28.8993 26.2413 28.1243 28.196 27.3925 30.1661C27.2274 30.6101 26.9842 30.7201 26.5333 30.7194C17.9846 30.7081 9.43553 30.7115 0.886473 30.7081C0.63983 30.7081 0.393186 30.6663 0.146543 30.6439C0.0979046 30.5708 0.0489521 30.4978 0 30.4247C3.95226 25.8894 7.9042 21.3539 11.8932 16.7762C11.7181 16.5318 11.5606 16.3031 11.3942 16.0801C7.77209 11.2252 4.14869 6.37092 0.526549 1.51602C0.387851 1.33056 0.221853 1.15432 0.129911 0.94767C-0.130225 0.364259 0.101356 0.0135888 0.7506 0.0132818C9.3781 0.00929 18.0053 0.00775081 26.6328 0.024639C26.8615 0.0252531 27.2171 0.181866 27.299 0.35996C28.1651 2.24622 28.9878 4.15182 29.8225 6.0522C29.782 6.0998 29.7413 6.14739 29.7008 6.19467Z" fill="white"/>
		<path d="M123.603 13.4523C125.536 14.2464 125.816 15.618 125.568 17.2678C125.435 18.1485 125.375 19.0506 125.399 19.9398C125.423 20.7925 126.061 21.1653 126.794 20.7167C127.315 20.3986 127.684 19.8296 128.085 19.3448C128.267 19.1252 128.364 18.8387 128.578 18.4352C128.705 18.7303 128.828 18.8731 128.799 18.9738C128.494 20.0344 127.925 20.9344 126.792 21.2458C125.675 21.5531 124.531 21.3885 123.777 20.4836C123.397 20.0277 123.236 19.2674 123.256 18.6536C123.283 17.8245 123.589 17.0059 123.76 16.1796C124.047 14.7855 123.309 13.7885 121.87 13.682C121.09 13.6243 120.303 13.6547 119.519 13.6467C119.286 13.6442 119.054 13.6464 118.734 13.6464C118.234 15.6278 117.728 17.5764 117.275 19.5367C117.237 19.7028 117.52 20.0593 117.726 20.1327C118.056 20.2503 118.452 20.1757 118.808 20.2417C118.964 20.2705 119.092 20.4465 119.233 20.5558C119.082 20.666 118.935 20.7809 118.779 20.8828C118.742 20.9068 118.676 20.8886 118.624 20.8886C116.899 20.8886 115.174 20.8966 113.449 20.8767C113.261 20.8745 113.074 20.7109 112.886 20.6221C113.066 20.4892 113.242 20.2469 113.426 20.2398C115.466 20.1615 115.25 20.0863 115.723 18.2403C116.632 14.6947 117.535 11.1475 118.438 7.60037C118.647 6.77623 118.561 6.66446 117.698 6.61594C117.437 6.6012 117.168 6.63315 116.917 6.58187C116.774 6.5527 116.657 6.39794 116.529 6.29968C116.642 6.18085 116.741 6.04327 116.873 5.95085C116.947 5.89957 117.076 5.91494 117.179 5.91586C119.61 5.93705 122.046 5.86795 124.467 6.02915C125.429 6.09333 126.458 6.51645 127.274 7.04551C128.679 7.95779 128.843 9.61222 127.851 10.9587C127.002 12.1105 125.773 12.7166 124.456 13.1885C124.237 13.2678 124.01 13.3273 123.603 13.4523ZM118.868 13.1603C119.748 13.1603 120.475 13.1762 121.201 13.1548C121.721 13.1394 122.248 13.1145 122.759 13.0233C124.877 12.645 126.17 11.2458 126.371 9.15624C126.492 7.89853 125.937 7.01759 124.659 6.81708C123.484 6.63284 122.272 6.64451 121.076 6.64113C120.855 6.64052 120.494 6.94266 120.432 7.16743C119.893 9.1065 119.408 11.0606 118.868 13.1603Z" fill="white"/>
		<path d="M51.0985 10.8896C51.0633 10.6489 50.978 10.4035 51.0006 10.1683C51.2714 7.42844 50.6877 6.75199 47.8886 6.66356C46.7392 6.62702 45.5876 6.6611 44.4372 6.64759C43.8438 6.64052 43.4839 6.81339 43.3308 7.45791C42.9178 9.19739 42.4286 10.9194 41.9196 12.8373C43.1685 12.7706 44.3041 12.767 45.4231 12.6322C46.2522 12.5324 46.5826 11.843 46.8321 11.1389C46.94 10.834 47.0863 10.5426 47.2783 10.0998C47.647 11.0655 46.3448 15.7777 45.7068 15.9711C45.7677 15.5385 45.8411 15.1473 45.8744 14.753C45.9444 13.923 45.7018 13.5979 44.8577 13.5398C43.9725 13.479 43.0803 13.4867 42.1926 13.5094C42.0175 13.514 41.7329 13.6946 41.6931 13.8435C41.1464 15.8907 40.6343 17.9461 40.1078 20.0231C40.2948 20.0989 40.4128 20.1904 40.5273 20.1864C42.4813 20.1185 44.4479 20.1465 46.3843 19.9257C47.7694 19.7676 48.6461 18.7242 49.2891 17.5562C49.6111 16.9715 49.8759 16.3571 50.185 15.7654C50.2882 15.5682 50.4486 15.4 50.5829 15.2185C50.6623 15.2544 50.742 15.2901 50.8214 15.326C50.7687 15.5455 50.7457 15.777 50.6582 15.9822C50.0435 17.4213 49.4024 18.8498 48.799 20.2936C48.6126 20.7397 48.3396 20.9006 47.8494 20.8985C44.0578 20.8828 40.2662 20.8951 36.4746 20.877C36.243 20.8761 36.0124 20.69 35.7815 20.5902C35.9999 20.4668 36.207 20.3138 36.4401 20.2294C36.6036 20.1701 36.8029 20.191 36.9849 20.199C37.8688 20.2374 38.2749 19.8069 38.4788 18.9757C39.4064 15.1967 40.3855 11.4297 41.3425 7.6578C41.5431 6.86774 41.4414 6.73694 40.5863 6.66539C40.3262 6.64359 40.0569 6.6789 39.8053 6.62639C39.67 6.59814 39.5633 6.43909 39.4438 6.33899C39.5624 6.22661 39.6628 6.06662 39.8046 6.01473C39.9665 5.95577 40.1655 5.98894 40.3484 5.98894C43.9307 5.98833 47.5133 5.9871 51.0956 5.98956C52.0235 5.99017 52.0612 6.04391 51.9444 6.966C51.8095 8.03211 51.6881 9.09976 51.5522 10.1659C51.5215 10.4063 51.4549 10.6424 51.4047 10.8807C51.3027 10.8835 51.2004 10.8865 51.0985 10.8896Z" fill="white"/>
		<path d="M248.469 20.0206C248.653 20.0968 248.77 20.1889 248.885 20.1864C250.685 20.1508 252.492 20.1824 254.284 20.0344C255.871 19.9033 256.921 18.8919 257.649 17.5602C257.969 16.9743 258.235 16.3611 258.544 15.7691C258.647 15.571 258.806 15.4009 258.94 15.2182C259.02 15.2535 259.1 15.2891 259.181 15.3245C259.129 15.5434 259.108 15.7749 259.021 15.9791C258.406 17.4183 257.765 18.847 257.161 20.2905C256.975 20.7348 256.706 20.9009 256.214 20.8988C252.422 20.8828 248.631 20.8951 244.839 20.8773C244.606 20.8764 244.374 20.6924 244.142 20.5936C244.386 20.4683 244.617 20.2997 244.876 20.2294C245.147 20.1557 245.445 20.1698 245.732 20.1573C246.277 20.1336 246.591 19.8643 246.723 19.346C247.731 15.3757 248.742 11.4058 249.767 7.43919C249.89 6.96417 249.712 6.75476 249.261 6.70901C248.897 6.67185 248.527 6.68567 248.169 6.62672C248.035 6.60461 247.925 6.44063 247.804 6.34145C247.922 6.22815 248.022 6.06693 248.163 6.01473C248.325 5.95516 248.524 5.98865 248.707 5.98865C252.29 5.98773 255.872 5.98649 259.454 5.98895C260.384 5.98956 260.422 6.04392 260.306 6.96325C260.171 8.02936 260.049 9.09699 259.914 10.1631C259.883 10.4038 259.817 10.6403 259.767 10.8786C259.683 10.8878 259.598 10.8967 259.513 10.9059C259.456 10.6857 259.353 10.4659 259.351 10.2451C259.346 9.73538 259.43 9.2232 259.404 8.71563C259.346 7.57706 258.808 6.89508 257.656 6.80695C255.94 6.67584 254.211 6.67829 252.488 6.69518C252.23 6.69763 251.819 7.04584 251.744 7.30684C251.238 9.07642 250.803 10.8653 250.294 12.848C251.554 12.77 252.714 12.7565 253.855 12.6079C254.649 12.5044 254.948 11.8148 255.192 11.1429C255.303 10.838 255.446 10.5442 255.635 10.106C256.011 11.0499 254.712 15.7712 254.068 15.977C254.131 15.5173 254.188 15.0994 254.244 14.6812C254.338 13.9786 253.987 13.5868 253.301 13.5475C252.363 13.4938 251.42 13.4947 250.479 13.5113C250.33 13.5137 250.09 13.6983 250.052 13.8395C249.51 15.8885 248.996 17.944 248.469 20.0206Z" fill="white"/>
		<path d="M358.831 7.11579C357.903 7.11579 357.032 7.01908 356.194 7.14344C355.389 7.2635 354.619 7.61232 353.744 7.88837C353.954 6.98807 354.553 6.5898 355.216 6.37302C355.973 6.12522 356.782 5.91828 357.573 5.90231C360.395 5.84581 363.219 5.8719 366.042 5.88203C366.483 5.88387 366.937 5.9155 367.363 6.02113C368.108 6.20659 368.28 6.85787 367.694 7.33289C367.309 7.64487 366.823 7.83617 366.284 8.13555C366.095 7.17016 365.417 7.12101 364.773 7.10382C363.545 7.07127 362.315 7.07495 361.088 7.10627C360.894 7.11119 360.586 7.30341 360.535 7.46892C359.981 9.27534 359.468 11.0941 358.913 13.0135C360.844 13.0135 362.73 13.0135 364.64 13.0135C364.405 13.9657 363.485 14.4127 362.645 14.3338C361.325 14.2101 359.987 14.242 358.659 14.2693C358.477 14.273 358.243 14.6031 358.135 14.8288C357.458 16.24 356.827 17.6719 356.148 19.0822C355.581 20.2594 354.579 20.973 353.359 21.4085C352.13 21.8469 350.778 21.3818 350.12 20.3771C349.783 19.8615 349.898 19.5277 350.397 19.2511C350.624 19.1252 350.858 19.011 351.09 18.8961C351.448 18.7196 351.722 18.7604 351.932 19.143C352.065 19.3859 352.251 19.6152 352.46 19.8007C353.35 20.5911 353.977 20.4765 354.498 19.4356C356.344 15.7478 357.791 11.9203 358.703 7.90647C358.758 7.66513 358.783 7.41763 358.831 7.11579Z" fill="white"/>
		<path d="M153.269 7.10531C153.208 7.22384 153.146 7.31012 153.119 7.40593C152.584 9.24398 152.053 11.0833 151.494 13.0174C153.41 13.0174 155.275 13.0174 157.15 13.0174C157.044 13.8434 156.07 14.4591 155.355 14.4013C153.985 14.2908 152.606 14.2681 151.232 14.2699C151.055 14.2702 150.822 14.6083 150.713 14.8352C150.036 16.2465 149.404 17.6786 148.724 19.0886C148.157 20.2665 147.152 20.9776 145.932 21.4112C144.669 21.8595 143.295 21.3627 142.659 20.3008C142.407 19.8802 142.447 19.5808 142.859 19.3367C143.148 19.1657 143.441 18.959 143.759 18.8905C143.97 18.8454 144.277 18.9596 144.455 19.1042C144.73 19.3278 144.892 19.6843 145.169 19.9032C146.01 20.5671 146.578 20.4357 147.049 19.4961C148.909 15.7859 150.369 11.935 151.288 7.89538C151.338 7.67337 151.372 7.4477 151.424 7.16643C149.671 6.95702 148.007 6.98987 146.459 7.97799C146.4 7.87819 146.34 7.77871 146.281 7.67891C146.561 7.36111 146.779 6.89806 147.133 6.75374C148.033 6.38681 148.986 5.95476 149.932 5.92037C152.883 5.81321 155.839 5.87186 158.794 5.88353C159.208 5.88537 159.638 5.93051 160.031 6.04965C160.684 6.2474 160.829 6.84831 160.32 7.29078C159.997 7.57112 159.578 7.7572 159.179 7.93529C159.07 7.98412 158.757 7.87482 158.741 7.79805C158.594 7.07585 157.959 7.1437 157.493 7.12527C156.086 7.07 154.676 7.10531 153.269 7.10531Z" fill="white"/>
		<path d="M334.728 15.5077C334.708 15.6965 334.72 15.8955 334.663 16.0727C333.585 19.3772 329.514 22.3198 325.479 21.0642C322.784 20.2256 321.098 17.5742 321.451 14.5454C321.989 9.93365 326.197 5.89091 330.899 5.46963C332.571 5.31978 333.483 5.6993 335.218 7.29294C335.823 6.66838 336.43 6.04167 337.037 5.41466C337.098 5.45796 337.16 5.50156 337.221 5.54486C337.221 5.71067 337.255 5.88477 337.216 6.04137C336.799 7.72989 336.382 9.4187 335.93 11.0986C335.867 11.3347 335.616 11.5227 335.452 11.7327C335.389 11.6912 335.326 11.6498 335.263 11.6083C335.211 10.7996 335.244 9.97571 335.094 9.18503C334.644 6.81822 332.918 5.73523 330.501 6.23758C328.551 6.64289 326.984 7.64636 325.819 9.2188C324.187 11.4223 323.333 13.9036 323.503 16.6201C323.693 19.6502 326.165 21.2936 329.177 20.4968C331.566 19.8648 333.163 18.3575 334.063 16.1163C334.164 15.8648 334.325 15.636 334.458 15.3968C334.548 15.434 334.638 15.4708 334.728 15.5077Z" fill="white"/>
		<path d="M166.419 18.9431C166.133 20.1983 165.987 21.375 165.587 22.4632C165.113 23.7571 164.036 24.4176 162.606 24.4287C161.161 24.4397 160.019 23.8499 159.505 22.5139C158.589 20.1314 158.574 17.6967 159.574 15.3321C160.084 14.1259 161.112 13.4977 162.486 13.4879C163.877 13.4781 164.995 14.039 165.485 15.3007C165.94 16.4725 166.123 17.7456 166.419 18.9431ZM160.416 18.8516C160.382 18.8519 160.347 18.8522 160.313 18.8525C160.351 19.6938 160.354 20.5386 160.439 21.375C160.491 21.8755 160.607 22.3892 160.806 22.851C161.126 23.5944 161.735 23.9933 162.591 23.9785C163.416 23.9644 163.991 23.5554 164.293 22.8433C164.489 22.38 164.635 21.8626 164.649 21.3655C164.694 19.7092 164.691 18.0508 164.656 16.3942C164.646 15.9474 164.516 15.4798 164.336 15.0652C164.01 14.3154 163.378 13.9411 162.541 13.9368C161.697 13.9322 161.075 14.3252 160.758 15.0741C160.571 15.5132 160.462 16.0052 160.43 16.4805C160.378 17.2678 160.416 18.0609 160.416 18.8516Z" fill="white"/>
		<path d="M373.675 18.9361C373.397 20.1858 373.257 21.3367 372.875 22.4055C372.401 23.7363 371.318 24.4214 369.854 24.4284C368.373 24.4358 367.236 23.8054 366.729 22.4316C365.865 20.0922 365.851 17.706 366.807 15.388C367.317 14.1493 368.353 13.4935 369.762 13.4876C371.154 13.4818 372.267 14.0505 372.753 15.3125C373.205 16.4858 373.387 17.7591 373.675 18.9361ZM372.093 19.0135C372.001 17.831 371.986 16.7787 371.819 15.75C371.624 14.5485 370.843 13.9258 369.761 13.9347C368.769 13.943 367.898 14.5571 367.837 15.6911C367.721 17.8706 367.731 20.0673 367.875 22.2453C367.95 23.3838 368.825 23.9817 369.818 23.9786C370.811 23.9755 371.559 23.378 371.762 22.2268C371.956 21.1263 371.997 19.9994 372.093 19.0135Z" fill="white"/>
		<path d="M214.75 39.5906C214.943 39.2022 215.067 38.7575 215.341 38.4351C216.357 37.2388 217.659 36.5375 219.281 36.5274C221.582 36.5129 223.883 36.5501 226.183 36.5053C226.781 36.4936 227.374 36.2609 227.968 36.1267C228.161 36.0831 228.353 36.0308 228.642 35.9578C228.468 36.7052 227.943 37.0478 227.397 37.1621C226.439 37.3623 225.448 37.4673 224.467 37.4934C222.616 37.5428 222.642 37.5149 222.155 39.2507C221.41 41.9104 220.637 44.5631 219.847 47.2106C219.613 47.9948 218.997 48.3903 218.224 48.5122C219.225 44.8738 220.221 41.2484 221.235 37.5594C219.945 37.5594 218.725 37.4949 217.52 37.5993C217.169 37.6297 216.742 38.0832 216.557 38.4447C216.137 39.2691 215.95 39.4905 214.75 39.5906Z" fill="white"/>
		<path d="M12.8822 37.5358C11.6208 37.5358 10.4519 37.5192 9.28423 37.5425C8.69021 37.5545 8.30832 37.9082 8.16931 38.4585C7.96127 39.2808 7.34811 39.5728 6.33047 39.7939C6.58182 39.2418 6.68443 38.7944 6.94865 38.4751C7.95028 37.2656 9.24846 36.547 10.868 36.5295C13.1427 36.505 15.4186 36.5526 17.6924 36.5043C18.3413 36.4905 18.9852 36.2513 19.6313 36.115C19.8227 36.0748 20.0138 36.0318 20.3242 35.9639C20.0135 36.805 19.39 37.1722 18.7226 37.2824C17.7012 37.451 16.65 37.4744 15.6097 37.4995C14.2422 37.5327 14.2679 37.5149 13.9002 38.8285C13.121 41.612 12.3164 44.3887 11.5115 47.1651C11.3082 47.8658 10.7792 48.2632 10.0957 48.4818C10.0044 48.511 9.8977 48.495 9.86695 48.4965C10.8673 44.8603 11.8655 41.2318 12.8822 37.5358Z" fill="white"/>
		<path d="M269.347 2.23025C270.745 2.23025 272.093 2.23025 273.509 2.23025C273.529 2.49677 273.548 2.7372 273.573 3.06667C272.431 3.06667 271.346 3.06667 270.213 3.06667C270.213 11.2707 270.213 19.3899 270.213 27.608C271.318 27.608 272.397 27.608 273.518 27.608C273.518 27.924 273.518 28.1417 273.518 28.43C272.144 28.43 270.778 28.43 269.347 28.43C269.347 19.7277 269.347 11.0244 269.347 2.23025Z" fill="white"/>
		<path d="M62.0257 27.6326C63.1516 27.6326 64.1928 27.6326 65.3102 27.6326C65.3262 27.9123 65.34 28.1491 65.357 28.4441C63.9213 28.4441 62.551 28.4441 61.1292 28.4441C61.1292 19.7089 61.1292 11.0023 61.1292 2.24374C62.5237 2.24374 63.8931 2.24374 65.3102 2.24374C65.3102 2.51917 65.3102 2.75868 65.3102 3.06144C64.221 3.06144 63.1569 3.06144 62.0257 3.06144C62.0257 11.2602 62.0257 19.397 62.0257 27.6326Z" fill="white"/>
		<path d="M168.476 28.4447C168.459 28.1997 168.444 27.9786 168.423 27.6672C169.545 27.6672 170.628 27.6672 171.779 27.6672C171.779 19.4445 171.779 11.3099 171.779 3.09395C170.685 3.09395 169.601 3.09395 168.476 3.09395C168.476 2.77216 168.476 2.53142 168.476 2.19673C169.776 2.19673 171.05 2.18322 172.322 2.21607C172.459 2.21945 172.635 2.47216 172.71 2.64381C172.776 2.7958 172.728 2.996 172.728 3.17501C172.728 11.3041 172.728 19.4335 172.728 27.5625C172.728 27.8386 172.728 28.1146 172.728 28.4447C171.269 28.4447 169.897 28.4447 168.476 28.4447Z" fill="white"/>
		<path d="M379.061 3.07584C377.927 3.07584 376.862 3.07583 375.734 3.07614C375.721 2.78566 375.71 2.54585 375.695 2.19887C377.05 2.19887 378.347 2.19028 379.644 2.21392C379.758 2.21607 379.924 2.41229 379.966 2.54771C380.023 2.73624 379.989 2.95239 379.989 3.15689C379.99 11.286 379.99 19.4153 379.99 27.5444C379.99 27.8217 379.99 28.0987 379.99 28.4367C378.543 28.4367 377.174 28.4367 375.749 28.4367C375.749 28.188 375.749 27.9506 375.749 27.6255C376.846 27.6255 377.93 27.6255 379.061 27.6255C379.061 19.4221 379.061 11.3059 379.061 3.07584Z" fill="white"/>
		<path d="M186.889 13.303C187.222 13.4682 187.448 13.5871 187.68 13.6936C191.104 15.2722 194.529 16.8493 197.953 18.4269C198.142 18.5138 198.371 18.5645 198.507 18.7027C198.694 18.8927 198.809 19.15 198.955 19.3788C198.682 19.4123 198.36 19.5541 198.143 19.4611C196.758 18.8642 195.397 18.2144 194.027 17.5841C191.381 16.3669 188.731 15.1586 186.094 13.9245C185.815 13.794 185.608 13.5164 185.367 13.307C185.599 13.0936 185.795 12.8059 186.069 12.6782C190.027 10.8309 193.995 9.00484 197.962 7.17538C198.127 7.09954 198.306 6.97795 198.468 6.99207C198.644 7.00743 198.864 7.12164 198.956 7.26105C199.013 7.34764 198.914 7.61816 198.803 7.70629C198.584 7.87978 198.313 7.99493 198.055 8.11468C194.492 9.7642 190.927 11.41 187.363 13.058C187.246 13.1121 187.134 13.1762 186.889 13.303Z" fill="white"/>
		<path d="M68.8311 15.8197C68.5082 16.977 68.2816 18.0745 68.6086 19.2004C68.9086 20.2343 69.5318 20.6777 70.6272 20.6243C72.1272 20.5512 73.4068 19.9678 74.4427 18.91C74.668 18.6797 74.7844 18.3474 74.951 18.0622C75.0904 18.1663 75.2297 18.2707 75.369 18.3748C75.2852 18.5885 75.2567 18.8522 75.1092 19.0085C73.6114 20.5963 71.756 21.3674 69.56 21.0179C68.0858 20.7833 67.3126 19.7157 66.9778 18.3465C66.1484 14.9575 68.9089 11.3873 72.4755 11.2215C73.8308 11.1586 74.8547 11.7616 75.0539 12.7402C75.2648 13.775 74.5365 14.9646 73.3102 15.3247C72.3961 15.5931 71.4246 15.6904 70.4716 15.8087C69.9592 15.8722 69.4314 15.8197 68.8311 15.8197ZM68.9541 15.3392C70.514 15.3726 71.9546 15.3886 73.2722 14.7054C74.2045 14.2221 74.5773 13.2997 74.2236 12.5314C73.9158 11.862 72.9757 11.5231 72.0462 11.7874C70.2704 12.2932 69.4414 13.6028 68.9541 15.3392Z" fill="white"/>
		<path d="M277.183 15.8206C276.869 17.012 276.638 18.1103 276.979 19.2348C277.281 20.2324 277.887 20.6672 278.946 20.6252C280.447 20.5656 281.721 19.98 282.781 18.9459C283.017 18.7162 283.23 18.4644 283.453 18.2227C283.54 18.2676 283.626 18.3127 283.712 18.3575C283.643 18.5666 283.633 18.8286 283.496 18.9763C281.987 20.5951 280.112 21.3827 277.885 21.0099C276.414 20.7636 275.653 19.6803 275.329 18.3115C274.526 14.9129 277.309 11.3615 280.873 11.2193C282.186 11.1668 283.187 11.7521 283.407 12.6997C283.644 13.7243 282.931 14.9458 281.71 15.3109C280.774 15.5909 279.775 15.6861 278.796 15.8092C278.284 15.8734 277.756 15.8206 277.183 15.8206ZM277.404 15.3416C278.87 15.3723 280.334 15.3959 281.669 14.6833C282.571 14.2018 282.921 13.3285 282.596 12.564C282.306 11.8814 281.382 11.5682 280.438 11.7677C278.877 12.0975 277.478 13.9141 277.404 15.3416Z" fill="white"/>
		<path d="M346.764 15.4374C346.764 18.6587 346.764 21.8801 346.764 25.1017C346.764 25.3062 346.814 25.5316 346.743 25.71C346.652 25.9382 346.461 26.1282 346.314 26.3346C346.166 26.1337 345.989 25.9461 345.88 25.7266C345.819 25.6019 345.867 25.4251 345.867 25.2715C345.867 18.7008 345.863 12.13 345.877 5.55959C345.877 5.17392 345.647 4.52265 346.296 4.51191C346.939 4.50116 346.752 5.15152 346.754 5.54302C346.77 8.84114 346.764 12.1392 346.764 15.4374Z" fill="white"/>
		<path d="M139.502 15.441C139.502 18.6624 139.502 21.8837 139.501 25.1051C139.501 25.3351 139.548 25.5844 139.472 25.7895C139.396 25.9946 139.195 26.1552 139.049 26.3355C138.903 26.1586 138.717 25.9993 138.624 25.7987C138.555 25.6495 138.605 25.4469 138.605 25.2678C138.605 18.6974 138.601 12.1267 138.615 5.55591C138.616 5.17116 138.385 4.51896 139.038 4.5122C139.679 4.50545 139.49 5.15519 139.492 5.54669C139.509 8.8448 139.502 12.1429 139.502 15.441Z" fill="white"/>
		<path d="M224.381 45.8894C224.617 44.9848 224.755 44.04 225.115 43.1845C225.529 42.1995 226.435 41.776 227.519 41.7739C228.598 41.7717 229.492 42.1789 229.955 43.1501C230.805 44.9326 230.808 46.7706 230.003 48.5682C229.546 49.5876 228.616 50.0046 227.519 50C226.42 49.9954 225.483 49.5695 225.068 48.5335C224.741 47.717 224.615 46.8235 224.381 45.8894ZM229.42 45.9591C229.356 45.1085 229.357 44.3357 229.224 43.5861C229.056 42.6453 228.371 42.1454 227.466 42.1724C226.58 42.1985 225.914 42.6874 225.857 43.6319C225.767 45.1266 225.779 46.6349 225.871 48.13C225.926 49.0392 226.639 49.5817 227.482 49.6042C228.356 49.6272 229.014 49.1519 229.19 48.2335C229.337 47.4609 229.354 46.6641 229.42 45.9591Z" fill="white"/>
		<path d="M311.883 9.17094C311.938 9.50625 312.006 9.6386 311.968 9.72641C311.571 10.6464 311.005 11.4291 310.025 11.8295C309.37 12.0966 308.727 12.0343 308.176 11.5964C307.629 11.1628 307.548 10.5837 307.72 9.92785C308.097 8.49388 308.442 7.05255 308.825 5.51695C308.172 5.47274 307.571 5.43189 306.969 5.39105C306.958 5.30446 306.948 5.21788 306.937 5.13129C307.505 4.68882 308.265 5.07079 308.993 4.85032C309.147 4.27152 309.309 3.63561 309.485 3.00368C309.56 2.73377 309.598 2.41074 309.775 2.22282C309.951 2.03582 310.282 1.98823 310.545 1.87953C310.641 2.11474 310.853 2.3699 310.814 2.58177C310.678 3.33222 310.457 4.06793 310.253 4.86721C310.92 4.91511 311.537 4.95902 312.154 5.00323C312.161 5.10948 312.168 5.21573 312.176 5.32197C311.836 5.3668 311.484 5.4887 311.158 5.44111C310.299 5.31583 309.968 5.67201 309.812 6.47374C309.572 7.70197 309.162 8.89828 308.921 10.1262C308.838 10.5475 309.047 11.0231 309.123 11.4739C309.592 11.3154 310.126 11.2439 310.514 10.9731C310.875 10.721 311.082 10.2567 311.357 9.88547C311.495 9.69847 311.631 9.513 311.883 9.17094Z" fill="white"/>
		<path d="M100.442 5.51208C99.7778 5.46572 99.1826 5.42303 98.587 5.38127C98.582 5.26551 98.577 5.14943 98.5719 5.03367C99.2205 4.97963 99.8692 4.92559 100.618 4.86326C100.771 4.30441 100.934 3.69676 101.105 3.09062C101.181 2.82011 101.198 2.49123 101.371 2.30054C101.561 2.09174 101.899 2.01161 102.172 1.87558C102.267 2.1329 102.477 2.40895 102.437 2.64385C102.312 3.37035 102.092 4.08087 101.892 4.86571C102.561 4.91607 103.183 4.96306 103.806 5.01004C103.805 5.12918 103.803 5.24832 103.801 5.36746C103.313 5.39724 102.824 5.46049 102.338 5.44668C101.893 5.43409 101.686 5.58578 101.582 6.0175C101.256 7.38606 100.849 8.73742 100.563 10.1137C100.476 10.5346 100.68 11.0137 100.751 11.4663C101.222 11.313 101.755 11.2482 102.144 10.9808C102.506 10.7312 102.716 10.2675 102.99 9.89595C103.128 9.70834 103.26 9.51613 103.477 9.21184C103.569 9.47007 103.648 9.57292 103.623 9.63955C103.267 10.6154 102.671 11.3999 101.675 11.8243C101.026 12.1013 100.38 12.0386 99.8252 11.6047C99.2767 11.1758 99.182 10.5982 99.358 9.94078C99.6759 8.75431 99.9639 7.56047 100.26 6.36847C100.326 6.10409 100.374 5.83511 100.442 5.51208Z" fill="white"/>
		<path d="M298.993 7.42839C298.648 6.51244 299.267 5.20683 299.967 4.89394C300.678 4.57613 301.429 4.88226 302.077 5.7629C302.508 5.49392 302.908 5.09905 303.379 4.98759C303.925 4.85801 304.563 4.8706 305.104 5.01953C305.624 5.16231 305.863 5.69997 305.636 6.2103C305.511 6.49033 305.161 6.72769 304.856 6.85328C304.716 6.9107 304.268 6.66075 304.261 6.53578C304.247 6.24499 304.402 5.94039 304.517 5.65237C304.556 5.55564 304.679 5.49147 304.784 5.39413C303.587 5.01583 302.341 5.80161 301.953 7.17201C301.604 8.40362 301.315 9.65089 300.991 10.8896C300.927 11.1358 300.894 11.4395 300.728 11.5976C300.536 11.7803 300.213 11.831 299.947 11.9388C299.858 11.6996 299.652 11.4352 299.699 11.2255C300.015 9.82806 300.389 8.44291 300.736 7.05193C300.817 6.72983 300.942 6.39208 300.908 6.07643C300.876 5.79209 300.653 5.52771 300.515 5.25473C300.242 5.41164 299.887 5.51021 299.717 5.73989C299.496 6.03866 299.427 6.44366 299.283 6.79893C299.196 7.01264 299.09 7.21898 298.993 7.42839Z" fill="white"/>
		<path d="M96.469 5.37289C95.1448 5.05693 93.9668 5.83408 93.5833 7.20694C93.246 8.41522 92.9545 9.63579 92.6407 10.8502C92.5895 11.0486 92.5864 11.3056 92.4558 11.4269C92.2211 11.6452 91.9064 11.7812 91.6252 11.9516C91.5333 11.6719 91.3165 11.3667 91.3698 11.1164C91.6259 9.91583 91.9597 8.73151 92.2553 7.53889C92.3724 7.06725 92.5252 6.5913 92.5402 6.11352C92.549 5.83409 92.3181 5.5473 92.1951 5.26358C91.9026 5.42785 91.5264 5.53042 91.3393 5.77269C91.114 6.0647 91.0594 6.47952 90.912 6.83356C90.8263 7.03929 90.703 7.22998 90.5392 7.53366C90.259 6.68618 90.8376 5.31025 91.4984 4.94362C92.2148 4.54629 92.9799 4.82234 93.7333 5.73983C94.1971 5.4644 94.6283 5.06767 95.1278 4.95037C95.645 4.82877 96.2688 4.86655 96.773 5.03881C97.3238 5.22642 97.5193 5.78528 97.2368 6.31465C97.1022 6.56674 96.7558 6.77524 96.463 6.85599C96.3052 6.89959 95.9038 6.65056 95.885 6.50071C95.8521 6.24002 96.0143 5.9471 96.1282 5.68149C96.1721 5.57893 96.3077 5.51383 96.469 5.37289Z" fill="white"/>
		<path d="M192.219 23.0282C194.149 23.027 196.079 23.0251 198.01 23.0291C198.242 23.0297 198.492 23.0221 198.7 23.1025C198.83 23.1526 198.952 23.3552 198.969 23.5014C198.979 23.5984 198.815 23.7783 198.697 23.8115C198.452 23.8806 198.185 23.899 197.927 23.8993C194.092 23.9042 190.257 23.9027 186.423 23.9027C186.319 23.9027 186.193 23.9368 186.114 23.8929C185.857 23.7507 185.616 23.579 185.37 23.4188C185.618 23.2886 185.865 23.0491 186.115 23.0454C188.149 23.0147 190.184 23.0282 192.219 23.0282Z" fill="white"/>
		<path d="M129.648 19.711C129.433 18.5737 130.302 17.2764 131.269 17.144C131.726 17.0817 132.378 17.2251 132.675 17.5266C132.965 17.8202 133.1 18.4862 132.979 18.8982C132.636 20.0734 132.087 21.1895 131.709 22.357C131.57 22.7884 131.531 23.634 131.709 23.7114C132.341 23.9856 132.726 23.4191 133.045 22.9471C133.215 22.695 133.305 22.3923 133.448 22.1208C133.541 21.9443 133.665 21.7834 133.908 21.6833C133.934 22.5289 133.579 23.2106 132.972 23.7694C132.482 24.2208 131.899 24.394 131.238 24.1582C130.497 23.8935 130.151 23.21 130.424 22.4138C130.731 21.5184 131.104 20.6448 131.45 19.7623C131.572 19.4522 131.768 19.1507 131.802 18.8319C131.847 18.4116 131.766 17.9783 131.739 17.5506C131.309 17.7815 130.826 17.9537 130.467 18.2636C130.215 18.481 130.14 18.89 129.972 19.2062C129.879 19.3819 129.757 19.5431 129.648 19.711Z" fill="white"/>
		<path d="M341.166 21.6169C341.498 22.8304 340.328 24.2453 339.227 24.2604C338.194 24.2745 337.508 23.4292 337.837 22.4487C338.186 21.406 338.628 20.3927 339.028 19.3662C339.121 19.1276 339.265 18.8899 339.279 18.6455C339.299 18.2896 339.223 17.9288 339.188 17.5702C338.803 17.7253 338.347 17.8017 338.053 18.0572C337.76 18.3123 337.627 18.7444 337.429 19.1021C337.317 19.3026 337.216 19.5093 337.045 19.8351C336.904 19.5959 336.795 19.4785 336.819 19.4405C337.254 18.7355 337.613 17.9555 338.18 17.3678C338.663 16.8673 339.401 16.9459 339.984 17.3749C340.56 17.798 340.65 18.3765 340.397 19.022C339.949 20.1673 339.468 21.3025 339.081 22.4675C338.952 22.8565 338.905 23.5882 339.102 23.7034C339.645 24.0218 340.065 23.5228 340.353 23.1C340.67 22.636 340.899 22.1137 341.166 21.6169Z" fill="white"/>
		<path d="M17.1539 49.4003C17.2656 49.3548 17.3328 49.3081 17.4034 49.3011C18.9328 49.1583 18.935 49.1592 18.9322 47.6138C18.9294 46.0552 18.9222 44.4962 18.9137 42.9376C18.9137 42.89 18.8804 42.8427 18.8591 42.7859C18.2874 42.8627 17.7131 42.9398 17.1386 43.0168C17.1122 42.9275 17.0855 42.8384 17.0589 42.7491C17.9855 42.4402 18.9125 42.131 19.9439 41.7871C19.964 42.0917 19.9957 42.3594 19.9963 42.6272C20.0007 44.5187 20.0318 46.4107 19.9825 48.3007C19.963 49.0554 20.2517 49.3223 20.9788 49.2937C21.2424 49.2833 21.5097 49.368 21.7755 49.4095C21.7677 49.5117 21.7598 49.614 21.752 49.7162C20.2709 49.7162 18.7894 49.7193 17.3083 49.7036C17.2575 49.7024 17.2101 49.5154 17.1539 49.4003Z" fill="white"/>
		<path d="M105.296 11.1751C105.225 10.0151 106.014 9.08375 106.886 9.02571C107.859 8.96062 108.425 9.65058 108.096 10.5521C107.799 11.3698 107.409 12.1562 107.135 12.9803C107.039 13.2674 107.169 13.6261 107.196 13.9518C107.509 13.8112 107.863 13.7203 108.122 13.5146C108.329 13.3497 108.414 13.0414 108.567 12.8053C108.661 12.6607 108.78 12.5326 108.977 12.2854C109.033 13.4216 108.126 14.4161 107.227 14.4011C106.345 14.3863 105.842 13.7047 106.145 12.8802C106.446 12.0637 106.83 11.2752 107.104 10.4511C107.201 10.1578 107.086 9.79643 107.067 9.46634C106.736 9.61158 106.333 9.68618 106.091 9.92016C105.792 10.21 105.627 10.6322 105.296 11.1751Z" fill="white"/>
		<path d="M313.782 10.9882C313.643 9.99513 314.323 9.15625 315.123 9.0408C316.164 8.89034 316.801 9.61591 316.445 10.5819C316.144 11.3984 315.761 12.1872 315.481 13.0095C315.388 13.2822 315.499 13.6212 315.516 13.9301C315.833 13.8079 316.228 13.7621 316.446 13.5453C316.766 13.2272 316.96 12.7869 317.333 12.4688C317.321 13.1698 317.017 13.7268 316.436 14.1266C315.947 14.4638 315.411 14.5095 314.892 14.1889C314.365 13.8632 314.293 13.3866 314.51 12.8483C314.836 12.0401 315.203 11.2461 315.475 10.4213C315.569 10.1351 315.431 9.7759 315.4 9.45011C315.087 9.58921 314.7 9.65891 314.48 9.88429C314.181 10.1898 314.009 10.6145 313.782 10.9882Z" fill="white"/>
		<path d="M291.213 8.18134C289.699 8.18288 288.185 8.19699 286.671 8.16721C286.444 8.1626 286.221 7.95104 285.997 7.83528C286.218 7.71246 286.438 7.48401 286.66 7.48247C289.74 7.45945 292.82 7.45975 295.9 7.48493C296.113 7.48647 296.323 7.7315 296.535 7.86322C296.327 7.96916 296.121 8.16383 295.911 8.16721C294.346 8.19331 292.779 8.18134 291.213 8.18134Z" fill="white"/>
		<path d="M82.9958 8.18442C81.5077 8.1835 80.0197 8.20008 78.533 8.16692C78.2838 8.16139 78.0397 7.94215 77.7933 7.82178C78.045 7.70295 78.2957 7.48248 78.5483 7.48033C81.5501 7.45607 84.5519 7.46437 87.5536 7.4656C87.6836 7.4656 87.8307 7.44655 87.9396 7.49813C88.0859 7.56753 88.2026 7.6965 88.3319 7.79998C88.1976 7.92311 88.0711 8.14113 87.9274 8.15249C87.3566 8.19824 86.7808 8.18258 86.2065 8.1838C85.1362 8.18595 84.0658 8.18442 82.9958 8.18442Z" fill="white"/>
		<path d="M341.258 14.3329C340.919 14.5377 340.599 14.8128 340.23 14.9105C340.096 14.9461 339.845 14.5595 339.647 14.3655C339.937 14.087 340.19 13.7391 340.535 13.5662C340.66 13.5033 341.004 13.8573 341.249 14.0213C341.252 14.125 341.255 14.2291 341.258 14.3329Z" fill="white"/>
		<path d="M133.85 14.2896C133.521 14.5092 133.215 14.8006 132.851 14.9117C132.711 14.9544 132.44 14.5862 132.229 14.4054C132.505 14.114 132.74 13.7526 133.077 13.5668C133.205 13.4962 133.566 13.829 133.82 13.978C133.83 14.0817 133.84 14.1858 133.85 14.2896Z" fill="white"/>
		<path d="M316.391 7.666C316.133 7.3092 315.862 7.07645 315.907 6.96867C316.008 6.72364 316.237 6.49151 316.474 6.35978C316.548 6.31894 316.992 6.66531 316.967 6.75221C316.889 7.02273 316.668 7.25362 316.391 7.666Z" fill="white"/>
		<path d="M108.154 6.08957C108.393 6.45528 108.665 6.73869 108.613 6.81576C108.453 7.0565 108.182 7.24105 107.92 7.38936C107.883 7.41055 107.51 7.05896 107.544 6.97083C107.646 6.70215 107.87 6.4777 108.154 6.08957Z" fill="white"/>
	</g>
	<defs>
		<clipPath id="clip0">
			<rect width="379.999" height="50" fill="white"/>
		</clipPath>
	</defs>
</svg>
