<svg id="FORT" xmlns="http://www.w3.org/2000/svg" viewBox="0 0 78.46 18"><defs><style>.cls-1{fill:#fff;}</style></defs><title>White_FORT</title><rect class="cls-1" x="1.67" y="8.5" width="11.83" height="3.33"/><rect class="cls-1" width="3.33" height="18"/><rect class="cls-1" x="1.11" width="13.01" height="3.33"/><path class="cls-1" d="M56.37,29.34a9,9,0,1,1-9-9A9,9,0,0,1,56.37,29.34Zm-9-5.68A5.68,5.68,0,1,0,53,29.34,5.68,5.68,0,0,0,47.37,23.66Z" transform="translate(-18.58 -20.34)"/><rect class="cls-1" x="43.45" width="3.33" height="18"/><path class="cls-1" d="M63.7,20.34h5.84s7.16,0,7.16,6.17-7.16,6.17-7.16,6.17H63.7V29.34h5.84s3.58,0,3.58-2.83-3.58-2.83-3.58-2.83H63.7Z" transform="translate(-18.58 -20.34)"/><polygon class="cls-1" points="58.12 18 54.7 18 50.2 10.66 53.62 10.66 58.12 18"/><rect class="cls-1" x="63.79" width="14.67" height="3.33"/><rect class="cls-1" x="69.46" y="1.67" width="3.33" height="16.33"/></svg>