<svg width="110" height="41" viewBox="0 0 110 41" fill="none" xmlns="http://www.w3.org/2000/svg">
    <path d="M0 20.139L20.4124 40.278V20.139H40.8247L20.4124 0L0 20.139Z" fill="white"/>
    <path d="M24.2113 27.6908H33.1701L37.0257 23.8867H24.2113V27.6908Z" fill="white"/>
    <path d="M24.2113 36.5301L29.3711 31.4395H24.2113V36.5301Z" fill="white"/>
    <path d="M86.9227 27.0195C86.9227 20.1387 78.8145 20.1387 78.8145 20.1387H74.0516H72.1805H70.3093V40.2777H74.1083V33.9563H77.8506L82.1031 40.2777H86.9794L82.3299 33.3409C84.4846 32.5577 86.9227 30.8235 86.9227 27.0195ZM78.8145 30.2082H74.0516V23.8868H78.8145C78.8145 23.8868 82.897 23.8868 82.897 27.0754C82.897 30.2082 78.8145 30.2082 78.8145 30.2082Z" fill="white"/>
    <path d="M93.3866 20.1387V23.8868H99.7938V40.2777H103.593V23.8868H110V20.1387H93.3866Z" fill="white"/>
    <path d="M53.6959 20.1387C48.0825 20.1387 43.4897 24.6699 43.4897 30.2082C43.4897 35.7464 48.0825 40.2777 53.6959 40.2777C59.3093 40.2777 63.9021 35.7464 63.9021 30.2082C63.9021 24.614 59.3093 20.1387 53.6959 20.1387ZM60.0465 30.2641C59.9897 33.7884 57.098 36.5855 53.5258 36.5855C49.9537 36.5296 47.1186 33.6766 47.1186 30.1522C47.1753 26.6279 50.0671 23.8308 53.6392 23.8308C57.2114 23.8868 60.0465 26.7398 60.0465 30.2641Z" fill="white"/>
</svg>
