<svg width="198" height="32" viewBox="0 0 198 32" fill="none" xmlns="http://www.w3.org/2000/svg">
    <path d="M0 0H5.89655V13.8462H22.0345C22.0345 13.8462 23.8966 13.8462 23.8966 12C23.8966 10.1538 22.0345 10.1538 22.0345 10.1538V0H27.931V31.6923H22.0345V17.8462H5.89655C5.89655 17.8462 4.03448 17.8462 4.03448 19.6923C4.03448 21.8462 5.89655 21.8462 5.89655 21.8462V31.6923H0V0ZM44.069 0V31.6923H70.1379L72 27.3846L49.9655 27.6923C49.9655 27.6923 48.1034 27.6923 48.1034 25.8462C48.1034 24 49.9655 24 49.9655 24V18.1538H63.931V14.1538H49.9655V8.30769C49.9655 8.30769 48.1034 8.30769 48.1034 6.46154C48.1034 4.61538 49.9655 4.61538 49.9655 4.61538L70.1379 4.92308L68.2759 0.615386H44.069V0ZM85.9655 0V31.6923H91.8621V27.6923C91.8621 27.6923 90 27.6923 90 25.8462C90 24 91.8621 24 91.8621 24V8C91.8621 8 90 8 90 6.15384C90 4.30769 91.8621 4.30769 91.8621 4.30769V0H85.9655ZM85.9655 4H99.931C99.931 4 110.172 4 110.172 16C110.172 28 99.931 28 99.931 28H85.9655V32H99.931C99.931 32 113.897 32 113.897 16C113.897 1.46719e-06 99.931 0 99.931 0H85.9655V4ZM154.241 9.84616C154.241 9.84616 152.379 0 140.276 0C138.414 0 126.31 1.46719e-06 126.31 16C126.31 32 139.034 32 140.276 32C150.207 32 151.448 26.1538 151.448 26.1538L152.069 32H153.931V14.1538H141.828L139.966 18.1538H149.897C149.897 18.1538 149.897 27.6923 139.966 27.6923C138.103 27.6923 130.034 27.6923 130.034 16C130.034 4.30769 138.103 4 139.966 4C148.034 4 149.897 9.84616 149.897 9.84616H154.241ZM170.069 0V31.6923H196.138L198 27.3846L175.966 27.6923C175.966 27.6923 174.103 27.6923 174.103 25.8462C174.103 24 175.966 24 175.966 24V18.1538H189.931V14.1538H175.966V8.30769C175.966 8.30769 174.103 8.30769 174.103 6.46154C174.103 4.61538 175.966 4.61538 175.966 4.61538L196.138 4.92308L194.276 0.615386H170.069V0Z" fill="white"/>
</svg>
