<svg width="500" height="85" viewBox="0 0 500 85" fill="none" xmlns="http://www.w3.org/2000/svg">
    <g opacity="0.5">
        <path d="M17.2616 33.3621L16.6343 33.3059C16.692 32.8161 16.72 32.358 16.72 31.9858C16.72 30.2637 15.7205 29.8881 11.2334 29.8881C9.60493 29.8881 9.32012 30.0022 9.14714 30.6341L7.2618 37.3241H9.49136C12.0634 37.3241 12.3779 36.98 13.463 34.5382L13.9767 34.6523L12.0337 41.3142L11.4623 41.172C11.6056 40.5401 11.6633 40.196 11.6633 39.6782C11.6633 39.1884 11.6056 38.9321 11.4623 38.7881C11.1495 38.5003 10.3772 38.3581 9.23451 38.3581H7.0032L6.08935 41.5723C5.3747 44.1001 5.0602 45.4202 5.0602 45.7643C5.0602 46.4541 5.71718 46.7403 7.31597 46.7403C10.1169 46.7403 11.6598 46.3962 13.117 45.6221C14.0309 45.1323 14.7175 44.3301 15.8026 42.8081L16.2604 43.0381L14.4887 47.6882H0V47.2301C1.60053 46.9422 1.85738 46.7719 2.31517 45.1042L5.83075 32.4159C6.00199 31.8401 6.14527 30.922 6.14527 30.578C6.14527 29.8038 5.71718 29.5721 3.94541 29.4001V28.9419H18.1475L17.2616 33.3621Z" fill="#CBD8FF"/>
        <path d="M28.5008 52.7702C23.9858 50.1862 21.5273 45.3342 21.5273 40.4541C21.5273 35.1439 24.0138 31.0098 28.5865 28.2801L28.8433 28.7418C24.8717 32.1561 23.9858 34.8279 23.9858 40.368C23.9858 45.7098 24.8437 48.9539 28.8433 52.312L28.5008 52.7702Z" fill="#CBD8FF"/>
        <path d="M43.05 34.282L42.5346 34.196C42.5346 31.2679 41.9055 29.5177 39.1343 29.5177C37.1616 29.5177 35.9332 30.5797 35.9332 32.3878C35.9332 33.7939 36.1621 34.2556 38.7621 36.8677C41.3621 39.5079 41.9911 40.7437 41.9911 42.6098C41.9911 45.8819 39.5047 48.2079 36.2198 48.2079C35.3339 48.2079 34.5616 48.006 33.2476 47.5478C32.4771 47.2599 32.2185 47.202 31.904 47.202C31.3326 47.202 30.8748 47.4618 30.6756 48.1218H30.1602L31.1317 41.6899L31.703 41.7479C31.6454 42.0059 31.6454 42.206 31.6454 42.4079C31.6454 45.2219 33.3595 47.202 35.7603 47.202C37.9601 47.202 39.5047 45.7116 39.5047 43.5279C39.5047 42.2938 39.1046 41.4336 37.7906 39.9977L36.6758 38.7917C36.2757 38.3616 35.9332 37.9578 35.5611 37.5839C33.847 35.7495 33.4189 34.8297 33.4189 33.2796C33.4189 30.2655 35.762 28.5698 38.5053 28.5698C39.3912 28.5698 40.3347 28.712 40.934 28.9718C41.5333 29.2017 41.8776 29.2877 42.2498 29.2877C42.877 29.2877 43.1356 29.142 43.5358 28.5417H44.1928L43.05 34.282Z" fill="#CBD8FF"/>
        <path d="M55.4004 44.6602L55.0474 44.6198C55.0876 44.2652 55.1103 43.9316 55.1103 43.6595C55.1103 42.5536 54.3625 41.9708 53.0118 41.9708H51.8062L48.9616 52.1945C48.8358 52.6333 48.6698 53.1126 48.6698 53.5708C48.6698 54.2185 48.9196 54.3871 49.7706 54.4678L50.4975 54.531V54.8645H44.5164V54.531C45.9492 54.4064 46.428 54.0921 46.739 52.9669L49.7077 41.9708C46.4262 41.9708 45.7623 42.3044 44.7645 44.5566L44.3906 44.4758L45.2625 41.2423H56.3107L55.4004 44.6602Z" fill="#CBD8FF"/>
        <path d="M65.2852 41.374V39.4781H81.2013V41.374H65.2852Z" fill="#CBD8FF"/>
        <path d="M110.01 29.4018C109.295 29.4018 108.638 29.8319 107.81 30.4639L99.2936 36.9221L104.095 45.3342C104.981 46.886 105.266 47.0563 107.067 47.2301V47.6882H99.2097V47.2301L100.038 47.144C100.924 47.058 101.354 46.7139 101.354 46.2242C101.354 45.6221 100.81 44.79 100.297 43.8719L96.7827 37.6998L94.9253 44.5038C94.6964 45.3061 94.6108 45.6502 94.6108 45.9661C94.6108 46.8561 95.0686 47.0844 96.6394 47.2301V47.6882H89.582V47.2301C91.2961 47.0282 91.4674 46.7122 91.8972 45.192L95.4408 32.4177C95.6399 31.6997 95.8409 31.0958 95.8409 30.6359C95.8409 29.8618 95.3551 29.4896 93.5834 29.4018V28.9436H101.299V29.4018C99.8125 29.5159 98.8987 29.9197 98.4706 31.5241L96.9557 37.0942L101.327 33.9642C103.87 32.1543 105.414 30.7202 105.414 30.032C105.414 29.716 105.072 29.5703 104.385 29.4861L103.699 29.4001V28.9419H110.015V29.4018H110.01Z" fill="#CBD8FF"/>
        <path d="M115.546 28.2801C119.917 30.922 122.517 35.7161 122.517 40.5962C122.517 45.91 120.003 49.9843 115.46 52.7702L115.203 52.312C119.262 48.9539 120.062 46.254 120.062 40.684C120.062 35.3176 119.348 32.0139 115.203 28.7418L115.546 28.2801Z" fill="#CBD8FF"/>
        <path d="M131.675 32.4791V37.9245H130.303V32.4791H124.883V31.1011H130.303V25.6557H131.675V31.1011H137.095V32.4791H131.675Z" fill="#CBD8FF"/>
        <path d="M147.66 38.5021V36.6062H164.492V38.5021H147.66ZM147.66 44.2423V42.3482H164.492V44.2423H147.66Z" fill="#CBD8FF"/>
        <path d="M180.54 14.772C180.54 11.7579 181.798 7.85382 185.855 7.85382C187.684 7.85382 188.427 8.94395 188.427 10.0639C188.427 11.0399 187.656 11.5859 186.856 11.5859C186.199 11.5859 185.512 11.2418 185.512 10.3518C185.512 9.63384 185.855 9.71985 185.855 9.3477C185.855 9.08789 185.654 8.94571 185.369 8.94571C183.512 8.94571 183.283 11.5578 183.283 15.2916V66.2766C183.283 69.3187 181.997 72.9946 178.025 72.9946C176.196 72.9946 175.453 71.9045 175.453 70.7846C175.453 69.8085 176.224 69.2626 177.024 69.2626C177.681 69.2626 178.368 69.6067 178.368 70.4967C178.368 71.2146 178.025 71.1286 178.025 71.5025C178.025 71.7606 178.224 71.9028 178.511 71.9028C180.368 71.9028 180.54 69.3767 180.54 65.5604V14.772Z" fill="#CBD8FF"/>
        <path d="M205.051 15.1652C203.347 15.1652 202.164 14.0593 200.876 12.1406C199.942 14.04 198.528 15.1652 196.534 15.1652C194.749 15.1652 192.879 13.8715 192.879 10.9943C192.879 7.1534 195.641 6.19318 196.845 6.19318C198.36 6.19318 199.4 6.58991 201.373 9.26169C202.328 7.52907 203.282 6.19318 205.381 6.19318C207.25 6.19318 209.16 7.73796 209.16 10.5326C209.162 12.5584 207.666 15.1652 205.051 15.1652ZM200.419 11.3261C198.923 8.8439 197.616 7.42375 196.202 7.42375C195.039 7.42375 194.126 8.57355 194.126 9.90768C194.126 11.6807 195.185 13.4115 197.013 13.4115C198.862 13.4115 199.858 12.1406 200.419 11.3875V11.3261ZM201.79 10.1183C203.286 12.6005 204.429 13.9364 205.84 13.9364C207.004 13.9364 207.918 12.7901 207.918 11.4542C207.918 9.55484 206.859 7.94686 205.031 7.94686C203.183 7.94686 202.393 9.17742 201.79 10.0551V10.1183Z" fill="#CBD8FF"/>
        <path d="M198.083 63.5908L197.273 66.7629L196.027 71.3323C195.382 73.7091 194.676 76.1316 194.676 76.4652C194.676 76.7144 194.781 76.8812 195.05 76.8812C195.403 76.8812 195.63 76.6951 196.754 75.4014L197.002 75.6103C195.985 77.134 194.987 77.9871 193.949 77.9871C193.409 77.9871 193.098 77.6132 193.098 77.0497C193.098 76.5705 193.138 76.237 193.369 75.1925C192.142 77.2586 191.084 77.9468 189.672 77.9468C188.321 77.9468 187.449 77.0901 187.449 75.5049C187.449 72.1257 190.813 68.5148 193.512 68.5148C194.384 68.5148 194.737 68.9115 194.861 69.726H194.882L195.817 66.3257C196.128 65.2198 196.107 65.1355 196.107 64.8424C196.107 64.4035 195.92 64.3421 194.777 64.3V63.9454C196.107 63.8207 196.853 63.6961 197.954 63.4661L198.083 63.5908ZM193.556 68.9975C192.974 68.9975 192.247 69.3521 191.665 69.956C190.294 71.4165 189.256 73.6916 189.256 75.4224C189.256 76.3827 189.735 76.9461 190.462 76.9461C192.373 76.9461 194.531 73.358 194.531 70.186C194.531 69.4346 194.035 68.9975 193.556 68.9975Z" fill="#CBD8FF"/>
        <path d="M199.059 84.3138V83.9995C200.597 83.9153 201.032 83.4799 201.032 82.3301V72.9631C201.032 72.2539 200.845 71.9414 200.41 71.9414C200.202 71.9414 199.847 72.0467 199.475 72.1907L198.914 72.3996V72.1064L202.631 70.207L202.818 70.2702V82.7268C202.818 83.6239 203.233 83.9978 204.79 83.9978V84.312H199.059V84.3138Z" fill="#CBD8FF"/>
        <path d="M223.774 52.7702C219.259 50.1862 216.801 45.3342 216.801 40.4541C216.801 35.1439 219.287 31.0098 223.86 28.2801L224.117 28.7418C220.145 32.1561 219.259 34.8279 219.259 40.368C219.259 45.7098 220.117 48.9539 224.117 52.312L223.774 52.7702Z" fill="#CBD8FF"/>
        <path d="M238.32 34.282L237.804 34.196C237.804 31.2679 237.175 29.5177 234.404 29.5177C232.431 29.5177 231.203 30.5797 231.203 32.3878C231.203 33.7939 231.432 34.2556 234.032 36.8677C236.632 39.5079 237.261 40.7437 237.261 42.6098C237.261 45.8819 234.774 48.2079 231.489 48.2079C230.603 48.2079 229.831 48.006 228.517 47.5478C227.747 47.2599 227.488 47.202 227.174 47.202C226.602 47.202 226.144 47.4618 225.945 48.1218H225.43L226.401 41.6899L226.973 41.7479C226.915 42.0059 226.915 42.206 226.915 42.4079C226.915 45.2219 228.629 47.202 231.03 47.202C233.23 47.202 234.774 45.7116 234.774 43.5279C234.774 42.2938 234.374 41.4336 233.06 39.9977L231.945 38.7917C231.545 38.3616 231.203 37.9578 230.831 37.5839C229.117 35.7495 228.688 34.8297 228.688 33.2796C228.688 30.2655 231.032 28.5698 233.775 28.5698C234.661 28.5698 235.604 28.712 236.204 28.9718C236.803 29.2017 237.147 29.2877 237.519 29.2877C238.147 29.2877 238.405 29.142 238.805 28.5417H239.462L238.32 34.282Z" fill="#CBD8FF"/>
        <path d="M243.42 55.1576C239.869 55.1576 238.727 51.2764 238.727 47.8532C238.727 44.1598 240.159 40.7578 243.504 40.7578C246.224 40.7578 248.115 43.7016 248.115 47.9779C248.115 51.5678 246.804 55.1576 243.42 55.1576ZM243.378 41.302C241.655 41.302 240.72 43.7631 240.72 47.9989C240.72 52.2348 241.634 54.6152 243.42 54.6152C245.185 54.6152 246.119 52.2138 246.119 48.0832C246.119 43.7438 245.206 41.302 243.378 41.302Z" fill="#CBD8FF"/>
        <path d="M260.423 44.9024C258.793 46.9123 256.965 48.0042 254.592 48.0042C252.277 48.0042 250.734 46.4542 250.734 44.072C250.734 39.6202 254.993 35.028 259.279 35.028C260.794 35.028 261.622 35.7741 261.622 36.9801C261.622 39.45 258.622 41.6864 253.506 42.35C253.221 42.924 253.221 43.67 253.221 44.1001C253.221 45.6783 254.278 46.7122 255.878 46.7122C257.135 46.7122 258.022 46.254 260.079 44.5583L260.423 44.9024ZM253.708 41.718C256.165 41.1141 257.252 40.5962 258.309 39.5921C259.195 38.7302 259.738 37.698 259.738 36.8063C259.738 36.1181 259.537 35.688 258.737 35.688C257.109 35.688 255.166 37.8982 254.194 40.4541L253.708 41.718Z" fill="#CBD8FF"/>
        <path d="M274.937 31.2469C273.649 33.2498 273.027 33.729 272.093 33.729C271.511 33.729 271.074 33.3744 271.074 32.7916C271.074 32.4353 271.219 31.7068 271.387 31.2047L272.072 29.0368H272.051C270.223 32.2913 269.08 33.6904 267.834 33.6904C267.439 33.6904 267.19 33.4815 267.087 33.1041C266.278 36.2358 266.152 37.2382 265.696 37.7771H264.223C264.513 37.361 264.803 36.7554 265.137 35.4406L267.857 24.5709H269.414L267.857 30.7887C267.815 30.9748 267.775 31.1626 267.775 31.3522C267.775 31.9157 268.023 32.3545 268.605 32.3545C269.83 32.3545 272.094 28.4522 272.447 27.1181L273.132 24.5727H274.731L273.09 30.8308C273.006 31.1644 272.695 32.2299 272.695 32.437C272.695 32.6056 272.778 32.7513 272.924 32.7513C273.256 32.7513 273.567 32.4809 274.647 31.0625L274.937 31.2469Z" fill="#CBD8FF"/>
        <path d="M277.164 28.9085V27.5305H288.733V28.9085H277.164Z" fill="#CBD8FF"/>
        <path d="M304.484 19.5766C303.196 21.5796 302.574 22.0588 301.639 22.0588C301.058 22.0588 300.621 21.7042 300.621 21.1214C300.621 20.7651 300.766 20.0366 300.933 19.5345L301.618 17.3665H301.597C299.77 20.6211 298.627 22.0202 297.381 22.0202C296.986 22.0202 296.736 21.8113 296.633 21.4339C295.824 24.5656 295.699 25.5679 295.242 26.1069H293.77C294.06 25.6908 294.35 25.0852 294.683 23.7704L297.404 12.9007H298.961L297.404 19.1185C297.362 19.3045 297.322 19.4924 297.322 19.682C297.322 20.2454 297.57 20.6843 298.152 20.6843C299.377 20.6843 301.641 16.782 301.994 15.4478L302.679 12.9025H304.278L302.637 19.1606C302.553 19.4941 302.242 20.5597 302.242 20.7668C302.242 20.9353 302.324 21.081 302.471 21.081C302.803 21.081 303.114 20.8107 304.194 19.3923L304.484 19.5766Z" fill="#CBD8FF"/>
        <path d="M315.188 14.105H307.066V13.8557L310.764 9.91121C312.715 7.84682 313.463 6.26165 313.463 4.48865C313.463 2.58751 312.342 1.54478 310.577 1.54478C309.081 1.54478 308.354 2.21186 307.524 4.2587L307.087 4.15336C307.524 1.71155 308.852 0 311.407 0C313.755 0 315.249 1.60799 315.249 3.67238C315.249 5.32074 314.438 6.88659 312.591 8.84741L309.165 12.5198H314.024C314.896 12.5198 315.333 12.2898 316.018 11.1207L316.31 11.2453L315.188 14.105Z" fill="#CBD8FF"/>
        <path d="M318.931 27.5288H292.375V28.9279H318.931V27.5288Z" fill="#CBD8FF"/>
        <path d="M309.182 44.4372H301.062V44.1879L304.76 40.2434C306.712 38.179 307.459 36.5921 307.459 34.8209C307.459 32.9215 306.338 31.877 304.573 31.877C303.077 31.877 302.35 32.5441 301.52 34.5892L301.083 34.4874C301.52 32.0455 302.848 30.334 305.403 30.334C307.751 30.334 309.245 31.942 309.245 34.0064C309.245 35.6547 308.434 37.2206 306.587 39.1814L303.161 42.8538H308.02C308.892 42.8538 309.327 42.6238 310.014 41.4547L310.304 41.5793L309.182 44.4372Z" fill="#CBD8FF"/>
        <path d="M322.818 19.394C325.997 21.3127 327.887 24.799 327.887 28.3468C327.887 32.2052 326.06 35.1684 322.757 37.1924L322.57 36.8589C325.52 34.4171 326.102 32.458 326.102 28.4082C326.102 24.5059 325.581 22.108 322.57 19.7276L322.818 19.394Z" fill="#CBD8FF"/>
        <path d="M341.119 23.2947L340.764 23.2543C340.806 22.8997 340.827 22.5662 340.827 22.2941C340.827 21.1881 340.08 20.6053 338.729 20.6053H337.523L334.679 30.829C334.553 31.2679 334.387 31.7471 334.387 32.2053C334.387 32.853 334.637 33.0216 335.488 33.1023L336.214 33.1655V33.499H330.233V33.1655C331.666 33.0409 332.145 32.7266 332.456 31.6014L335.426 20.6053C332.145 20.6053 331.481 20.9389 330.483 23.1911L330.109 23.1104L330.981 19.8768H342.03L341.119 23.2947Z" fill="#CBD8FF"/>
        <path d="M348.229 28.9086V34.354H346.858V28.9086H341.438V27.5306H346.858V22.0852H348.229V27.5306H353.649V28.9086H348.229Z" fill="#CBD8FF"/>
        <path d="M366.149 26.1139H362.619C363.449 27.4269 364.613 27.4059 364.613 28.97C364.613 31.2661 361.996 33.7272 359.088 33.7272C357.136 33.7272 356.055 32.6002 356.055 30.7869C356.055 27.9676 358.569 24.5691 362.492 24.5691H366.521L366.149 26.1139ZM361.664 26.1139C360.232 26.1139 357.802 28.4714 357.802 31.4118C357.802 32.6634 358.445 33.2901 359.422 33.2901C361.415 33.2901 362.869 30.5586 362.869 28.8892C362.867 27.5533 362.327 26.5088 361.664 26.1139Z" fill="#CBD8FF"/>
        <path d="M384.729 20.2086C383.939 20.4579 383.731 20.6246 383.13 21.7727L376.878 33.8729H376.464L375.426 24.4217H375.322L370.712 33.8729H370.317L369.052 23.149C368.823 21.1864 368.74 20.8318 368.45 20.5193C368.263 20.3332 368.055 20.2893 367.391 20.2086V19.8751H372.271V20.2086C371.212 20.3139 370.775 20.4789 370.775 21.2706C370.775 21.376 370.775 21.5427 370.796 21.6884L371.71 30.118L375.281 22.8558L375.115 21.5006C374.991 20.4386 374.763 20.249 373.559 20.2086V19.8751H378.46V20.2086C377.399 20.3139 377.046 20.5421 377.046 21.211C377.046 21.3356 377.088 21.4602 377.088 21.5217L377.918 30.1198L381.822 22.503C382.092 21.9798 382.3 21.4813 382.3 21.0828C382.3 20.5632 381.946 20.2297 380.91 20.2086V19.8751H384.731V20.2086H384.729Z" fill="#CBD8FF"/>
        <path d="M394.596 29.4123L394.241 29.372C394.283 29.0174 394.304 28.6838 394.304 28.4117C394.304 27.3058 393.556 26.723 392.205 26.723H391L388.155 36.9467C388.029 37.3856 387.863 37.8648 387.863 38.323C387.863 38.9707 388.113 39.1392 388.964 39.22L389.691 39.2832V39.6167H383.71V39.2832C385.143 39.1585 385.622 38.8443 385.933 37.7191L388.903 26.723C385.622 26.723 384.958 27.0565 383.96 29.3088L383.586 29.228L384.458 25.9945H395.506L394.596 29.4123Z" fill="#CBD8FF"/>
        <path d="M404.484 41.374V39.4781H420.401V41.374H404.484Z" fill="#CBD8FF"/>
        <path d="M449.213 29.4018C448.498 29.4018 447.841 29.8319 447.013 30.4639L438.497 36.9221L443.298 45.3342C444.184 46.886 444.469 47.0563 446.271 47.2301V47.6882H438.413V47.2301L439.241 47.144C440.127 47.058 440.557 46.7139 440.557 46.2242C440.557 45.6221 440.013 44.79 439.5 43.8719L435.986 37.6998L434.128 44.5038C433.9 45.3061 433.814 45.6502 433.814 45.9661C433.814 46.8561 434.272 47.0844 435.843 47.2301V47.6882H428.785V47.2301C430.499 47.0282 430.671 46.7122 431.1 45.192L434.644 32.4177C434.843 31.6997 435.044 31.0958 435.044 30.6359C435.044 29.8618 434.558 29.4896 432.787 29.4018V28.9436H440.503V29.4018C439.016 29.5159 438.102 29.9197 437.674 31.5241L436.159 37.0942L440.531 33.9642C443.073 32.1543 444.618 30.7202 444.618 30.032C444.618 29.716 444.275 29.5703 443.588 29.4861L442.902 29.4001V28.9419H449.218V29.4018H449.213Z" fill="#CBD8FF"/>
        <path d="M454.745 28.2801C459.117 30.922 461.717 35.7161 461.717 40.5962C461.717 45.91 459.202 49.9843 454.659 52.7702L454.402 52.312C458.461 48.9539 459.262 46.254 459.262 40.684C459.262 35.3176 458.547 32.0139 454.402 28.7418L454.745 28.2801Z" fill="#CBD8FF"/>
        <path d="M478.605 28.252L477.49 32.6178L475.776 38.904C474.89 42.1762 473.918 45.5062 473.918 45.9662C473.918 46.3102 474.062 46.5402 474.432 46.5402C474.918 46.5402 475.232 46.2821 476.775 44.5039L477.118 44.79C475.718 46.8878 474.346 48.0622 472.917 48.0622C472.175 48.0622 471.745 47.5478 471.745 46.7719C471.745 46.1101 471.802 45.6502 472.117 44.216C470.431 47.058 468.973 48.006 467.03 48.006C465.173 48.006 463.973 46.8281 463.973 44.6478C463.973 39.9977 468.601 35.0298 472.316 35.0298C473.516 35.0298 474.002 35.5757 474.173 36.6939H474.201L475.487 32.0157C475.916 30.4937 475.888 30.3796 475.888 29.9776C475.888 29.3755 475.631 29.2895 474.058 29.2316V28.7453C475.888 28.5715 476.915 28.4012 478.43 28.0853L478.605 28.252ZM472.375 35.6881C471.575 35.6881 470.576 36.1743 469.775 37.0081C467.89 39.0181 466.461 42.1481 466.461 44.5302C466.461 45.8503 467.118 46.6245 468.119 46.6245C470.749 46.6245 473.719 41.6864 473.719 37.3224C473.719 36.2919 473.032 35.6881 472.375 35.6881Z" fill="#CBD8FF"/>
        <path d="M499.085 33.3621L498.485 33.3059C498.571 32.674 498.571 32.5318 498.571 32.358C498.571 30.2638 497.914 29.8881 492.884 29.8881C491.57 29.8881 491.141 30.0619 490.941 30.8079L489.111 37.3241C493.911 37.268 493.998 37.21 495.284 34.626L495.8 34.7682L493.628 41.5161L493.142 41.3739C493.313 40.4822 493.371 40.0819 493.371 39.6202C493.371 38.4739 492.573 38.3581 491.229 38.3581C490.6 38.3581 489.913 38.3282 488.856 38.2721L487.17 44.3862C486.969 45.1042 486.77 45.6783 486.77 46.1083C486.77 46.7982 487.283 47.1142 488.97 47.2301V47.6882H481.797V47.2301C483.455 47.116 483.74 46.484 484.168 44.9901L487.684 32.3018C487.883 31.5838 487.968 31.0098 487.968 30.5481C487.968 29.7459 487.684 29.5721 485.796 29.4018V28.9437H499.999L499.085 33.3621Z" fill="#CBD8FF"/>
    </g>
</svg>
