<svg width="260" height="39" viewBox="0 0 260 39" fill="none" xmlns="http://www.w3.org/2000/svg">
    <g opacity="0.5">
        <path d="M0 21.422C0.89442 21.3383 1.45251 21.1606 1.67575 20.8918C1.89752 20.6201 2.00914 20.0033 2.00914 19.0354V8.85757C2.00914 8.03805 1.88431 7.49906 1.6361 7.23911C1.3879 6.97915 0.841547 6.81467 0.00146786 6.74564V6.30945H6.19779C8.18636 6.30945 9.70937 6.69571 10.7639 7.46823C11.8184 8.24075 12.3471 9.25854 12.3471 10.5201C12.3471 12.1195 11.7626 13.2783 10.592 13.9964C9.42152 14.7146 7.95725 15.0744 6.19779 15.0744C5.94518 15.0744 5.62207 15.0686 5.22846 15.0568C4.83339 15.0451 4.54113 15.0392 4.3502 15.0392V19.3072C4.3502 20.1898 4.48532 20.745 4.75702 20.9741C5.02873 21.2017 5.63529 21.3501 6.57523 21.4191V21.8553H0V21.422ZM7.92788 7.6195C7.26257 7.3287 6.42102 7.18331 5.40324 7.18331C4.92151 7.18331 4.62484 7.23029 4.51469 7.32723C4.40307 7.42269 4.34873 7.63563 4.34873 7.96461V14.0919C4.76877 14.1301 5.04488 14.1536 5.17412 14.1609C5.30336 14.1683 5.42967 14.1727 5.55304 14.1727C6.63104 14.1727 7.47993 14.0199 8.09971 13.7145C9.22471 13.1564 9.78575 12.1122 9.78575 10.5818C9.78722 9.14104 9.16743 8.15409 7.92788 7.6195Z" fill="#CBD8FF"/>
        <path d="M12.7959 21.4793C13.4994 21.4176 13.9664 21.2942 14.1955 21.1062C14.4247 20.9182 14.5392 20.5203 14.5392 19.9078V14.7337C14.5392 13.9759 14.4687 13.4354 14.3263 13.1108C14.1838 12.7847 13.9268 12.6232 13.5523 12.6232C13.4759 12.6232 13.3746 12.6335 13.2483 12.6526C13.1219 12.6717 12.9898 12.6966 12.8517 12.7275V12.3486C13.2864 12.1958 13.7329 12.0387 14.1897 11.8786C14.6464 11.7185 14.9637 11.6025 15.1384 11.5349C15.5188 11.3895 15.9124 11.225 16.3163 11.0414C16.3706 11.0414 16.403 11.0605 16.4132 11.0987C16.4235 11.1369 16.4309 11.2177 16.4309 11.3396V13.221C16.9214 12.5395 17.3958 12.0093 17.8511 11.626C18.3078 11.2427 18.7807 11.0518 19.2727 11.0518C19.6634 11.0518 19.9821 11.1677 20.2274 11.4013C20.4726 11.6348 20.596 11.9271 20.596 12.2796C20.596 12.5939 20.502 12.8582 20.3155 13.0712C20.1275 13.2856 19.8925 13.3928 19.6105 13.3928C19.3197 13.3928 19.0275 13.2591 18.7323 12.9918C18.4371 12.7231 18.2065 12.5909 18.0376 12.5909C17.7688 12.5909 17.4413 12.8068 17.0506 13.2386C16.66 13.6704 16.4661 14.1168 16.4661 14.5751V19.7492C16.4661 20.4072 16.6188 20.8639 16.9243 21.1209C17.2298 21.3779 17.7394 21.4984 18.4503 21.4822V21.8611H12.793V21.4793H12.7959Z" fill="#CBD8FF"/>
        <path d="M23.9818 8.95014C24.9614 7.71792 26.1158 6.72803 27.4464 5.979L27.6638 6.35791C26.4316 7.33752 25.5518 8.28923 25.0246 9.21449C24.0993 10.8286 23.6367 12.9772 23.6367 15.6634C23.6367 17.652 23.8129 19.2939 24.1639 20.5864C24.7837 22.8511 25.9498 24.5444 27.6638 25.6694L27.3656 26.0484C26.4242 25.596 25.4079 24.7133 24.3137 23.3974C22.5014 21.2179 21.5938 18.7388 21.5938 15.963C21.5952 13.2989 22.3898 10.9622 23.9818 8.95014Z" fill="#CBD8FF"/>
        <path d="M28.499 21.5938L38.8032 7.20528H33.3868C32.0253 7.20528 31.0574 7.54456 30.4832 8.22602C30.1395 8.63137 29.8678 9.33192 29.6681 10.3262H29.0601L29.53 6.31085H41.9329V6.57525L31.6288 20.9638H37.7252C39.1087 20.9638 40.1162 20.6377 40.7507 19.9886C41.1443 19.5759 41.4997 18.8225 41.8169 17.7283H42.3677L41.7831 21.8582H28.4961V21.5938H28.499Z" fill="#CBD8FF"/>
        <path d="M48.7773 11.5217V9.78137L61.5136 15.5988V16.2303L48.7773 22.0477V20.3074L58.4647 15.8954L48.7773 11.5217Z" fill="#CBD8FF"/>
        <path d="M77.3782 8.83557C78.1507 10.3277 78.537 12.0417 78.537 13.9759C78.537 15.4974 78.2991 16.9323 77.8261 18.2791C76.9317 20.8111 75.3823 22.0771 73.1793 22.0771C71.6724 22.0771 70.4329 21.3927 69.4621 20.0239C68.4223 18.5625 67.9023 16.5769 67.9023 14.0684C67.9023 12.0945 68.2504 10.3968 68.9466 8.97361C69.888 7.03937 71.3332 6.07007 73.2836 6.07007C75.0415 6.07007 76.4074 6.99239 77.3782 8.83557ZM75.6349 19.5759C76.0549 18.3452 76.2664 16.5637 76.2664 14.2329C76.2664 12.375 76.1401 10.8932 75.8875 9.78432C75.4131 7.72231 74.526 6.68984 73.2263 6.68984C71.925 6.68984 71.035 7.75313 70.5533 9.87683C70.3007 11.0092 70.1744 12.4984 70.1744 14.3489C70.1744 16.0849 70.3036 17.4713 70.565 18.5111C71.0541 20.4512 71.972 21.422 73.3188 21.422C74.4409 21.422 75.2134 20.8067 75.6349 19.5759Z" fill="#CBD8FF"/>
        <path d="M82.3477 21.7495C82.0951 21.4925 81.9688 21.1856 81.9688 20.8257C81.9688 20.4659 82.0965 20.1604 82.3535 19.9078C82.6091 19.6552 82.9175 19.5289 83.2773 19.5289C83.6371 19.5289 83.9426 19.6552 84.1952 19.9078C84.4478 20.1604 84.5742 20.4659 84.5742 20.8257C84.5742 21.1856 84.4493 21.4925 84.2011 21.7495C83.9529 22.0065 83.6445 22.1343 83.2773 22.1343C82.9102 22.1343 82.6003 22.0065 82.3477 21.7495Z" fill="#CBD8FF"/>
        <path d="M95.0032 8.83557C95.7757 10.3277 96.162 12.0417 96.162 13.9759C96.162 15.4974 95.9241 16.9323 95.4512 18.2791C94.5567 20.8111 93.0073 22.0771 90.8043 22.0771C89.2974 22.0771 88.0579 21.3927 87.0871 20.0239C86.0473 18.5625 85.5273 16.5769 85.5273 14.0684C85.5273 12.0945 85.8754 10.3968 86.5716 8.97361C87.513 7.03937 88.9582 6.07007 90.9086 6.07007C92.6666 6.07007 94.0324 6.99239 95.0032 8.83557ZM93.2599 19.5759C93.6799 18.3452 93.8914 16.5637 93.8914 14.2329C93.8914 12.375 93.7651 10.8932 93.5125 9.78432C93.0381 7.72231 92.151 6.68984 90.8513 6.68984C89.55 6.68984 88.66 7.75313 88.1783 9.87683C87.9257 11.0092 87.7994 12.4984 87.7994 14.3489C87.7994 16.0849 87.9286 17.4713 88.19 18.5111C88.6791 20.4512 89.597 21.422 90.9438 21.422C92.0659 21.422 92.8384 20.8067 93.2599 19.5759Z" fill="#CBD8FF"/>
        <path d="M104.074 6.17866C104.077 6.19776 104.08 6.24181 104.08 6.31084V20.1252C104.08 20.7141 104.237 21.0886 104.553 21.2502C104.869 21.4103 105.456 21.5072 106.319 21.5365V21.8582H99.8359V21.5145C100.761 21.469 101.366 21.3427 101.648 21.1356C101.93 20.9285 102.073 20.4821 102.073 19.7933V9.16889C102.073 8.80172 102.027 8.52267 101.935 8.33174C101.842 8.14081 101.644 8.04534 101.338 8.04534C101.139 8.04534 100.88 8.10116 100.564 8.21131C100.247 8.32146 99.9504 8.43896 99.6758 8.56086V8.23923L103.886 6.09351H104.025C104.052 6.13169 104.07 6.16104 104.074 6.17866Z" fill="#CBD8FF"/>
        <path d="M115.06 19.3116C114.761 20.3279 114.325 21.2899 113.751 22.1916C113.146 23.1551 112.34 24.0554 111.331 24.8881C110.665 25.4389 110.107 25.8251 109.655 26.0469L109.438 25.668C110.615 24.7736 111.476 23.8601 112.019 22.926C112.983 21.2737 113.465 19.0898 113.465 16.3742C113.465 14.1786 113.243 12.3853 112.799 10.993C112.18 9.02649 111.059 7.48145 109.438 6.35791L109.736 5.979C110.944 6.65165 112.068 7.66945 113.109 9.0309C114.707 11.1267 115.508 13.4751 115.508 16.0761C115.506 17.2158 115.358 18.2938 115.06 19.3116Z" fill="#CBD8FF"/>
        <path d="M135.071 12.7481V14.3548H123.219V12.7481H135.071ZM135.071 17.486V19.0927H123.219V17.486H135.071Z" fill="#CBD8FF"/>
        <path d="M142.023 21.422C142.918 21.3383 143.476 21.1606 143.699 20.8918C143.921 20.6201 144.033 20.0033 144.033 19.0354V8.85757C144.033 8.03805 143.908 7.49906 143.66 7.23911C143.411 6.97915 142.865 6.81467 142.025 6.74564V6.30945H148.221C150.21 6.30945 151.733 6.69571 152.787 7.46823C153.842 8.24075 154.371 9.25854 154.371 10.5201C154.371 12.1195 153.786 13.2783 152.616 13.9964C151.445 14.7146 149.981 15.0744 148.221 15.0744C147.969 15.0744 147.646 15.0686 147.252 15.0568C146.857 15.0451 146.565 15.0392 146.374 15.0392V19.3072C146.374 20.1898 146.509 20.745 146.78 20.9741C147.052 21.2017 147.659 21.3501 148.599 21.4191V21.8553H142.023V21.422ZM149.951 7.6195C149.286 7.3287 148.444 7.18331 147.427 7.18331C146.945 7.18331 146.648 7.23029 146.538 7.32723C146.427 7.42269 146.372 7.63563 146.372 7.96461V14.0919C146.792 14.1301 147.068 14.1536 147.198 14.1609C147.327 14.1683 147.453 14.1727 147.576 14.1727C148.655 14.1727 149.503 14.0199 150.123 13.7145C151.248 13.1564 151.809 12.1122 151.809 10.5818C151.811 9.14104 151.191 8.15409 149.951 7.6195Z" fill="#CBD8FF"/>
        <path d="M154.819 21.4793C155.523 21.4176 155.99 21.2942 156.219 21.1062C156.448 20.9182 156.563 20.5203 156.563 19.9078V14.7337C156.563 13.9759 156.492 13.4354 156.35 13.1108C156.207 12.7847 155.95 12.6232 155.576 12.6232C155.499 12.6232 155.398 12.6335 155.272 12.6526C155.145 12.6717 155.013 12.6966 154.875 12.7275V12.3486C155.31 12.1958 155.756 12.0387 156.213 11.8786C156.67 11.7185 156.987 11.6025 157.162 11.5349C157.542 11.3895 157.936 11.225 158.34 11.0414C158.394 11.0414 158.426 11.0605 158.437 11.0987C158.447 11.1369 158.454 11.2177 158.454 11.3396V13.221C158.945 12.5395 159.419 12.0093 159.875 11.626C160.331 11.2427 160.804 11.0518 161.296 11.0518C161.687 11.0518 162.006 11.1677 162.251 11.4013C162.496 11.6348 162.619 11.9271 162.619 12.2796C162.619 12.5939 162.525 12.8582 162.339 13.0712C162.151 13.2856 161.916 13.3928 161.634 13.3928C161.343 13.3928 161.051 13.2591 160.756 12.9918C160.461 12.7231 160.23 12.5909 160.061 12.5909C159.792 12.5909 159.465 12.8068 159.074 13.2386C158.683 13.6704 158.49 14.1168 158.49 14.5751V19.7492C158.49 20.4072 158.642 20.8639 158.948 21.1209C159.253 21.3779 159.763 21.4984 160.474 21.4822V21.8611H154.816V21.4793H154.819Z" fill="#CBD8FF"/>
        <path d="M166.005 8.95014C166.985 7.71792 168.139 6.72803 169.47 5.979L169.687 6.35791C168.455 7.33752 167.575 8.28923 167.048 9.21449C166.123 10.8286 165.66 12.9772 165.66 15.6634C165.66 17.652 165.836 19.2939 166.187 20.5864C166.807 22.8511 167.973 24.5444 169.687 25.6694L169.389 26.0484C168.448 25.596 167.431 24.7133 166.337 23.3974C164.525 21.2179 163.617 18.7388 163.617 15.963C163.619 13.2989 164.415 10.9622 166.005 8.95014Z" fill="#CBD8FF"/>
        <path d="M170.526 21.5938L180.831 7.20528H175.414C174.053 7.20528 173.085 7.54456 172.511 8.22602C172.167 8.63137 171.895 9.33192 171.695 10.3262H171.087L171.557 6.31085H183.96V6.57525L173.656 20.9638H179.753C181.136 20.9638 182.144 20.6377 182.778 19.9886C183.172 19.5759 183.527 18.8225 183.844 17.7283H184.395L183.81 21.8582H170.523V21.5938H170.526Z" fill="#CBD8FF"/>
        <path d="M191.174 17.5815C191.689 18.5772 191.946 19.7184 191.946 21.0094C191.946 22.0227 191.789 22.9803 191.472 23.8777C190.876 25.5652 189.843 26.4097 188.374 26.4097C187.37 26.4097 186.543 25.9529 185.895 25.0408C185.202 24.0671 184.855 22.7438 184.855 21.071C184.855 19.7551 185.088 18.6227 185.552 17.674C186.179 16.3845 187.142 15.7397 188.443 15.7397C189.615 15.7383 190.526 16.3536 191.174 17.5815ZM190.012 24.7427C190.292 23.9217 190.432 22.7365 190.432 21.1811C190.432 19.9416 190.348 18.9532 190.179 18.2145C189.864 16.8383 189.272 16.151 188.405 16.151C187.539 16.151 186.944 16.8589 186.624 18.2761C186.455 19.031 186.371 20.0224 186.371 21.2561C186.371 22.4134 186.458 23.3386 186.631 24.0319C186.957 25.3257 187.57 25.972 188.467 25.972C189.216 25.9735 189.73 25.5622 190.012 24.7427Z" fill="#CBD8FF"/>
        <path d="M196.676 11.5217V9.78137L209.412 15.5988V16.2303L196.676 22.0477V20.3074L206.363 15.8954L196.676 11.5217Z" fill="#CBD8FF"/>
        <path d="M228.447 26.2877C228.433 26.884 228.325 27.3628 228.126 27.7226C227.919 28.128 227.563 28.3306 227.058 28.3306C226.262 28.3306 225.597 28.2851 225.062 28.1926L225.017 28.2381C226.538 29.5232 227.292 30.9875 227.277 32.6324C227.262 34.1848 226.783 35.4934 225.842 36.5567C224.901 37.6508 223.639 38.2133 222.056 38.2427C220.487 38.228 219.202 37.6963 218.2 36.6477C217.152 35.6152 216.62 34.2611 216.605 32.5854C216.605 30.8803 217.106 29.4836 218.108 28.3967C219.095 27.3026 220.464 26.7489 222.216 26.7328C222.912 26.7474 223.658 26.7944 224.453 26.8708C225.232 26.9707 226.024 27.0206 226.827 27.0206C227.264 27.0206 227.585 26.956 227.791 26.8253C227.989 26.7181 228.101 26.5389 228.124 26.2863H228.447V26.2877ZM224.948 34.7663C224.993 34.2846 225.017 33.8337 225.017 33.4122C225.017 32.7396 224.978 32.0552 224.902 31.3591C224.811 30.6702 224.638 30.0313 224.385 29.4424C224.132 28.8461 223.789 28.3674 223.353 28.0075C222.894 27.6477 222.313 27.4568 221.608 27.4333C220.721 27.4568 220.039 27.8343 219.565 28.5686C219.098 29.3176 218.864 30.3354 218.864 31.6204C218.85 33.3417 219.074 34.7532 219.541 35.8547C220.008 36.9635 220.846 37.526 222.054 37.5407C222.727 37.5407 223.266 37.3997 223.673 37.1162C224.071 36.8489 224.362 36.5126 224.545 36.1058C224.752 35.7034 224.886 35.2554 224.948 34.7663Z" fill="#CBD8FF"/>
        <path d="M234.964 22.2944L230.972 12.8391L228.746 14.1712L228.414 13.4824L232.366 11.1193L235.754 19.1426L242.996 0H243.892L235.458 22.2944H234.964Z" fill="#CBD8FF"/>
        <path d="M241.941 29.9022V29.4087C241.941 28.6127 242.099 27.9738 242.411 27.4921C242.726 27.003 243.296 26.7504 244.121 26.7342C244.686 26.7342 245.12 26.8679 245.418 27.1352C245.716 27.4186 245.949 27.8313 246.118 28.3747L248.562 35.2819C249.037 34.3787 249.461 33.4343 249.835 32.4474C250.179 31.4604 250.36 30.4588 250.374 29.441C250.374 29.2956 250.36 29.1311 250.329 28.9475C250.298 28.7713 250.283 28.5657 250.283 28.3278C250.283 27.2644 250.703 26.7328 251.545 26.7328C252.318 26.7636 252.704 27.1234 252.704 27.8108C252.704 27.9562 252.661 28.1588 252.577 28.4188C252.486 28.6861 252.363 29.0077 252.21 29.3822C251.896 30.1548 251.48 31.0419 250.959 32.0435C249.896 34.1393 248.947 36.1278 248.113 38.0092H247.436L244.119 28.7963C243.951 28.2837 243.679 28.0355 243.304 28.0501C243.083 28.0501 242.899 28.1647 242.754 28.3938C242.601 28.6611 242.524 29.162 242.524 29.8963H241.941V29.9022Z" fill="#CBD8FF"/>
        <path d="M259.552 19.3116C259.254 20.3279 258.817 21.2899 258.243 22.1916C257.638 23.1551 256.832 24.0554 255.823 24.8881C255.157 25.4389 254.599 25.8251 254.147 26.0469L253.93 25.668C255.108 24.7736 255.968 23.8601 256.512 22.926C257.475 21.2737 257.957 19.0898 257.957 16.3742C257.957 14.1786 257.735 12.3853 257.291 10.993C256.672 9.02649 255.551 7.48145 253.93 6.35791L254.228 5.979C255.437 6.65165 256.56 7.66945 257.601 9.0309C259.199 11.1267 260 13.4751 260 16.0761C260 17.2158 259.851 18.2938 259.552 19.3116Z" fill="#CBD8FF"/>
    </g>
</svg>
