<svg width="180" height="26" viewBox="0 0 180 26" fill="none" xmlns="http://www.w3.org/2000/svg">
    <g opacity="0.5">
        <path d="M7.9274 6.82842C8.29773 7.02111 8.65451 7.29058 8.99774 7.63381V3.21098C8.99774 2.64495 8.93451 2.25656 8.80956 2.04279C8.68462 1.82902 8.38655 1.72212 7.91235 1.72212C7.80095 1.72212 7.7031 1.72664 7.62031 1.73567C7.53751 1.74621 7.35235 1.76427 7.06482 1.79287V1.33374L8.2044 1.04169C8.62139 0.930291 9.03839 0.814384 9.45538 0.692447C9.87237 0.572015 10.2382 0.457589 10.5543 0.346189C10.7034 0.299522 10.9487 0.213733 11.2905 0.0827637L11.3732 0.108353L11.3462 1.56859C11.3371 2.09849 11.3281 2.64344 11.3191 3.20344C11.3085 3.76345 11.304 4.31894 11.304 4.86389L11.2769 16.2266C11.2769 16.8288 11.3507 17.2518 11.4982 17.4911C11.6472 17.7335 12.0401 17.8539 12.6799 17.8539C12.7823 17.8539 12.8832 17.8509 12.987 17.8464C13.0894 17.8434 13.1903 17.8314 13.2926 17.8118V18.2709C13.2384 18.289 12.5655 18.5208 11.2769 18.9664L9.09258 19.7854L8.99473 19.6604V17.9503C8.47537 18.5163 8.02676 18.9198 7.6474 19.1606C6.96997 19.5776 6.18566 19.7869 5.29748 19.7869C3.72133 19.7869 2.44325 19.1787 1.46625 17.9593C0.487746 16.7384 0 15.3279 0 13.7247C0 11.712 0.585597 9.98524 1.7583 8.54307C2.931 7.10091 4.36564 6.38132 6.06222 6.38132C6.74116 6.38283 7.36138 6.53185 7.9274 6.82842ZM8.33085 17.6477C8.77645 17.2202 8.99774 16.8183 8.99774 16.4374V10.4715C8.99774 9.26718 8.67559 8.4136 8.03128 7.91832C7.38697 7.42305 6.75922 7.17467 6.14653 7.17467C4.97834 7.17467 4.06908 7.69103 3.42176 8.72675C2.77293 9.75945 2.44777 11.0315 2.44777 12.5444C2.44777 14.0363 2.7925 15.3655 3.48499 16.5337C4.17446 17.7019 5.20716 18.286 6.57857 18.286C7.30116 18.286 7.88526 18.0752 8.33085 17.6477Z" fill="#CBD8FF"/>
        <path d="M14.1459 19.1366C15.007 19.0538 15.591 18.8791 15.8981 18.6157C16.2052 18.3493 16.3573 17.8329 16.3573 17.0636V3.47594C16.3573 2.86325 16.3061 2.44325 16.2052 2.21142C16.0186 1.82001 15.6437 1.62732 15.0792 1.62732C14.9482 1.62732 14.8082 1.64089 14.6547 1.6695C14.5026 1.69509 14.3085 1.7372 14.0781 1.79441V1.33528C15.3291 1.00108 16.836 0.555491 18.5973 0C18.662 0 18.7012 0.0255807 18.7162 0.0827857C18.7313 0.13698 18.7373 0.257432 18.7373 0.442596V17.1178C18.7373 17.9262 18.8773 18.4471 19.1543 18.682C19.4313 18.9198 20.0064 19.0703 20.8795 19.1351V19.5235H14.1459V19.1366Z" fill="#CBD8FF"/>
        <path d="M23.9551 8.39406C25.1278 7.11899 26.6362 6.48071 28.4818 6.48071C30.3169 6.48071 31.8374 7.08286 33.0432 8.29019C34.2475 9.49451 34.8512 11.0978 34.8512 13.1015C34.8512 14.9471 34.2671 16.5518 33.0989 17.9127C31.9307 19.2766 30.4178 19.957 28.5646 19.957C26.7853 19.957 25.2784 19.3051 24.0439 17.9955C22.8125 16.6888 22.1953 15.0494 22.1953 13.0728C22.1968 11.2287 22.7824 9.66612 23.9551 8.39406ZM26.1756 8.0388C25.2467 8.88032 24.7831 10.336 24.7831 12.4044C24.7831 14.0543 25.1564 15.5929 25.9046 17.023C26.6513 18.4516 27.69 19.1636 29.0193 19.1636C30.0595 19.1636 30.8604 18.6864 31.4219 17.732C31.9834 16.7776 32.2649 15.5266 32.2649 13.9776C32.2649 12.3743 31.9066 10.8614 31.1915 9.44331C30.4765 8.02523 29.4408 7.3162 28.0829 7.3162C27.3513 7.31469 26.716 7.55708 26.1756 8.0388Z" fill="#CBD8FF"/>
        <path d="M38.3496 13.3634C37.8814 12.6513 37.6481 11.849 37.6481 10.9593C37.6481 9.8739 38.0786 8.84422 38.9412 7.87173C39.8023 6.89624 41.0217 6.4115 42.5978 6.4115C43.2738 6.4115 44.0219 6.57107 44.8379 6.89172C45.6523 7.20936 46.4366 7.37194 47.1878 7.37194C47.3835 7.37194 47.677 7.3644 48.0714 7.35085C48.4658 7.3358 48.7489 7.32977 48.9265 7.32977H49.0936V8.45583H46.6865C46.8536 8.84422 46.983 9.1829 47.0764 9.47043C47.2344 10.0079 47.3127 10.5182 47.3127 11.0014C47.3127 12.0582 46.8746 13.0277 45.9985 13.9144C45.1224 14.801 43.9421 15.2421 42.4593 15.2421C42.229 15.2421 41.812 15.2 41.2083 15.1172C40.9404 15.1172 40.5821 15.3445 40.138 15.8006C39.6939 16.2538 39.4711 16.6241 39.4711 16.9116C39.4711 17.2082 39.7963 17.428 40.4466 17.5665C40.8726 17.6598 41.3468 17.7049 41.8662 17.7049C44.2538 17.7049 45.8736 17.8404 46.7271 18.1084C48.1286 18.5435 48.8302 19.4798 48.8302 20.9159C48.8302 22.3807 48.0112 23.5489 46.3749 24.4205C44.7385 25.2936 43.0871 25.7302 41.4161 25.7302C39.8956 25.7302 38.6913 25.4201 37.8001 24.8044C36.9089 24.1887 36.4648 23.5429 36.4648 22.8639C36.4648 22.5297 36.5823 22.2046 36.8186 21.8839C37.055 21.5633 37.5171 21.0891 38.2111 20.4583L39.1249 19.6394L39.2905 19.4723C38.8675 19.3052 38.5498 19.1411 38.3391 18.9845C37.9717 18.697 37.7866 18.3688 37.7866 17.997C37.7866 17.6553 37.9477 17.2774 38.2668 16.865C38.5875 16.451 39.2709 15.7825 40.3187 14.8552C39.4756 14.5737 38.8178 14.0784 38.3496 13.3634ZM39.8249 23.71C40.701 24.0065 41.7051 24.1556 42.8372 24.1556C44.3757 24.1556 45.6267 23.8891 46.5916 23.3547C47.5551 22.8233 48.0368 22.1655 48.0368 21.3887C48.0368 20.7654 47.6469 20.3529 46.8656 20.1497C46.3824 20.0293 45.4686 19.96 44.1213 19.9405C43.7766 19.9299 43.4153 19.9194 43.0344 19.9058C42.652 19.8908 42.3043 19.8742 41.9881 19.8562C41.7834 19.8456 41.4537 19.8095 40.9991 19.7448C40.5445 19.68 40.2058 19.6243 39.9815 19.5777C39.8701 19.5777 39.5991 19.8697 39.1685 20.4538C38.729 21.0485 38.5092 21.5964 38.5092 22.0962C38.5107 22.876 38.9487 23.4149 39.8249 23.71ZM44.2402 14.1567C44.7972 13.7142 45.0742 12.9389 45.0742 11.8354C45.0742 10.9548 44.8484 9.96122 44.3998 8.85776C43.9497 7.75431 43.2 7.20481 42.1537 7.20481C41.2445 7.20481 40.6197 7.63536 40.2765 8.49796C40.1004 8.95108 40.0116 9.5126 40.0116 10.1795C40.0116 11.3115 40.2855 12.3262 40.832 13.2249C41.38 14.1251 42.089 14.5722 42.9606 14.5722C43.471 14.5737 43.897 14.4352 44.2402 14.1567Z" fill="#CBD8FF"/>
        <path d="M54.1536 3.87945C55.3413 2.38609 56.7398 1.18628 58.3536 0.275513L58.6186 0.734693C57.1252 1.92395 56.0594 3.07556 55.4196 4.19708C54.2981 6.1556 53.7366 8.75992 53.7366 12.0146C53.7366 14.4232 53.9504 16.4134 54.3764 17.9805C55.1276 20.7233 56.5411 22.7782 58.6186 24.142L58.2558 24.6012C57.1162 24.0532 55.8833 22.9814 54.557 21.3887C52.3592 18.7452 51.2617 15.7404 51.2617 12.3774C51.2617 9.14981 52.2252 6.31818 54.1536 3.87945Z" fill="#CBD8FF"/>
        <path d="M59.8975 18.995C60.9829 18.8926 61.6589 18.6789 61.9268 18.3507C62.1963 18.0241 62.3303 17.2744 62.3303 16.1032V3.76644C62.3303 2.77589 62.1797 2.12108 61.8771 1.80494C61.5761 1.48881 60.9152 1.2916 59.896 1.2073V0.677368H67.4049C69.8151 0.677368 71.6607 1.14708 72.9403 2.08344C74.2199 3.01979 74.8597 4.25268 74.8597 5.78366C74.8597 7.72111 74.1506 9.12415 72.7325 9.99728C71.3145 10.8689 69.5381 11.304 67.4049 11.304C67.0993 11.304 66.7079 11.2964 66.2307 11.2829C65.752 11.2693 65.3983 11.2618 65.1664 11.2618V16.4343C65.1664 17.5032 65.3305 18.1761 65.6587 18.4531C65.9884 18.7316 66.7245 18.9092 67.8626 18.9935V19.5234H59.8945V18.995H59.8975ZM69.508 2.26559C68.7011 1.91333 67.6819 1.73566 66.4475 1.73566C65.8634 1.73566 65.5036 1.79588 65.3697 1.91029C65.2357 2.02771 65.1694 2.28363 65.1694 2.68255V10.1087C65.6798 10.1554 66.0125 10.1839 66.1705 10.1915C66.3286 10.202 66.4806 10.2065 66.6297 10.2065C67.9379 10.2065 68.966 10.0184 69.7172 9.64804C71.0796 8.97211 71.7616 7.70607 71.7616 5.85143C71.7601 4.1127 71.0104 2.91592 69.508 2.26559Z" fill="#CBD8FF"/>
        <path d="M82.5266 6.70355V7.70461H79.689L79.6619 15.7148C79.6619 16.4194 79.7221 16.9508 79.8425 17.3136C80.0638 17.9519 80.5004 18.2725 81.1492 18.2725C81.4834 18.2725 81.7739 18.1942 82.0193 18.0346C82.2662 17.8781 82.5462 17.6282 82.8608 17.2834L83.2221 17.5906L82.915 18.0076C82.4333 18.6564 81.923 19.1155 81.3856 19.385C80.8466 19.6529 80.3288 19.7869 79.8275 19.7869C78.733 19.7869 77.9924 19.3022 77.6025 18.3267C77.3902 17.7998 77.2833 17.0667 77.2833 16.1318V7.70461H75.7674C75.7222 7.67601 75.6861 7.64741 75.6635 7.62182C75.641 7.59322 75.6289 7.55708 75.6289 7.51042C75.6289 7.41708 75.65 7.34635 75.6921 7.29367C75.7343 7.24399 75.8653 7.12357 76.0881 6.9384C76.7263 6.41152 77.1885 5.98097 77.4715 5.65279C77.7545 5.32462 78.4199 4.45295 79.4677 3.04541C79.5881 3.04541 79.6589 3.05298 79.6829 3.07105C79.707 3.09212 79.7176 3.15983 79.7176 3.28026V6.70355H82.5266Z" fill="#CBD8FF"/>
        <path d="M90.7587 16.4375C90.3974 17.6704 89.8675 18.834 89.1735 19.9285C88.4404 21.0967 87.4634 22.1835 86.2395 23.1952C85.4326 23.862 84.7552 24.3317 84.2103 24.6012L83.9453 24.142C85.3724 23.0567 86.4157 21.9487 87.075 20.8181C88.2432 18.8159 88.8273 16.1695 88.8273 12.8787C88.8273 10.2172 88.5593 8.04188 88.0204 6.35433C87.2692 3.97129 85.9129 2.09858 83.9468 0.734693L84.3081 0.275513C85.7729 1.09144 87.1352 2.32437 88.3968 3.97578C90.3357 6.51538 91.3037 9.36209 91.3037 12.5159C91.3007 13.8978 91.1185 15.2045 90.7587 16.4375Z" fill="#CBD8FF"/>
        <path d="M115.011 8.48291V10.4309H100.645V8.48291H115.011ZM115.011 14.226V16.174H100.645V14.226H115.011Z" fill="#CBD8FF"/>
        <path d="M138.556 5.3125C138.538 6.03509 138.407 6.61466 138.166 7.05123C137.916 7.54349 137.484 7.78886 136.873 7.78886C135.908 7.78886 135.102 7.73317 134.453 7.62177L134.398 7.6775C136.242 9.23558 137.156 11.0104 137.137 13.0036C137.119 14.8853 136.54 16.4705 135.399 17.7591C134.258 19.0854 132.728 19.7658 130.809 19.8034C128.907 19.7854 127.351 19.1411 126.136 17.8705C124.866 16.6195 124.221 14.9771 124.203 12.9478C124.203 10.8809 124.81 9.18891 126.025 7.87169C127.22 6.54544 128.88 5.87404 131.003 5.85447C131.846 5.87253 132.751 5.92822 133.714 6.02155C134.66 6.14198 135.62 6.20219 136.593 6.20219C137.121 6.20219 137.511 6.12389 137.761 5.96583C138.002 5.83636 138.136 5.6181 138.164 5.3125H138.556ZM134.315 15.5898C134.371 15.0057 134.398 14.4593 134.398 13.9489C134.398 13.133 134.351 12.3036 134.259 11.459C134.148 10.625 133.94 9.85128 133.633 9.13621C133.327 8.41363 132.91 7.83405 132.382 7.39749C131.825 6.96243 131.12 6.73059 130.268 6.70199C129.192 6.72908 128.367 7.18824 127.794 8.07943C127.227 8.98869 126.944 10.2216 126.944 11.7782C126.926 13.8647 127.199 15.5748 127.765 16.9101C128.331 18.2544 129.346 18.9363 130.81 18.9544C131.626 18.9544 132.28 18.7828 132.772 18.4395C133.254 18.1144 133.606 17.7079 133.829 17.2157C134.079 16.7249 134.24 16.1829 134.315 15.5898Z" fill="#CBD8FF"/>
        <path d="M147.43 6.82842C147.8 7.02111 148.157 7.29058 148.5 7.63381V3.21098C148.5 2.64495 148.437 2.25656 148.312 2.04279C148.187 1.82902 147.889 1.72212 147.415 1.72212C147.303 1.72212 147.206 1.72664 147.123 1.73567C147.04 1.74621 146.855 1.76427 146.567 1.79287V1.33374L147.707 1.04169C148.124 0.930291 148.541 0.814384 148.958 0.692447C149.375 0.572015 149.742 0.457589 150.057 0.346189C150.206 0.299522 150.451 0.213733 150.793 0.0827637L150.876 0.108353L150.849 1.56859C150.84 2.09849 150.83 2.64344 150.821 3.20344C150.811 3.76345 150.806 4.31894 150.806 4.86389L150.779 16.2266C150.779 16.8288 150.852 17.2518 151.001 17.4911C151.15 17.7335 151.543 17.8539 152.184 17.8539C152.286 17.8539 152.387 17.8509 152.491 17.8464C152.593 17.8434 152.694 17.8314 152.797 17.8118V18.2709C152.742 18.289 152.069 18.5208 150.781 18.9664L148.596 19.7854L148.499 19.6604V17.9503C147.979 18.5163 147.531 18.9198 147.151 19.1606C146.474 19.5776 145.69 19.7869 144.801 19.7869C143.225 19.7869 141.947 19.1787 140.97 17.9593C139.993 16.74 139.504 15.3279 139.504 13.7247C139.504 11.712 140.09 9.98524 141.262 8.54307C142.435 7.10091 143.87 6.38132 145.566 6.38132C146.244 6.38283 146.864 6.53185 147.43 6.82842ZM147.832 17.6477C148.277 17.2202 148.499 16.8183 148.499 16.4374V10.4715C148.499 9.26718 148.176 8.4136 147.532 7.91832C146.888 7.42305 146.26 7.17467 145.647 7.17467C144.479 7.17467 143.57 7.69103 142.923 8.72675C142.274 9.75945 141.949 11.0315 141.949 12.5444C141.949 14.0363 142.295 15.3655 142.986 16.5337C143.675 17.7019 144.708 18.286 146.079 18.286C146.804 18.286 147.388 18.0752 147.832 17.6477Z" fill="#CBD8FF"/>
        <path d="M153.562 18.995C154.707 18.9318 155.446 18.7527 155.783 18.4636C156.12 18.1746 156.289 17.4987 156.289 16.4374V3.76798C156.289 2.72022 156.12 2.04732 155.783 1.74474C155.447 1.44516 154.707 1.2645 153.562 1.2103V0.68042H161.538C163.817 0.68042 165.625 1.04772 166.964 1.78084C168.302 2.51397 168.972 3.77551 168.972 5.56693C168.972 6.91276 168.504 7.93189 167.567 8.62739C167.037 9.02631 166.245 9.35751 165.189 9.61493C166.495 9.93107 167.612 10.4565 168.54 11.1926C169.467 11.9302 169.931 12.9599 169.931 14.2847C169.931 16.5081 168.902 18.0361 166.846 18.8686C165.762 19.3037 164.427 19.5234 162.845 19.5234H153.562V18.995ZM164.27 8.66202C165.475 8.10653 166.077 7.10847 166.077 5.6663C166.077 3.96671 165.381 2.81959 163.99 2.22496C163.221 1.9013 162.053 1.7372 160.486 1.7372C159.893 1.7372 159.527 1.78987 159.387 1.89074C159.248 1.9931 159.178 2.2716 159.178 2.72773V9.16632L161.89 9.12419C162.848 9.10312 163.64 8.95106 164.27 8.66202ZM165.189 17.6477C166.17 17.0817 166.662 15.9978 166.662 14.3931C166.662 12.7974 166.087 11.7104 164.939 11.1263C163.789 10.5423 162.324 10.2502 160.545 10.2502C160.109 10.2502 159.832 10.2502 159.717 10.2502C159.601 10.2502 159.421 10.2457 159.181 10.2351V17.327C159.181 17.8193 159.321 18.1385 159.598 18.2815C159.876 18.4245 160.52 18.4952 161.531 18.4952C162.986 18.4952 164.206 18.2137 165.189 17.6477Z" fill="#CBD8FF"/>
        <path d="M179.304 6.70355V7.70461H176.466L176.439 15.7148C176.439 16.4194 176.499 16.9508 176.62 17.3136C176.841 17.9519 177.278 18.2725 177.927 18.2725C178.261 18.2725 178.551 18.1942 178.797 18.0346C179.044 17.8781 179.324 17.6282 179.638 17.2834L179.999 17.5906L179.692 18.0076C179.211 18.6564 178.7 19.1155 178.163 19.385C177.624 19.6529 177.106 19.7869 176.605 19.7869C175.51 19.7869 174.77 19.3022 174.38 18.3267C174.168 17.7998 174.061 17.0667 174.061 16.1318V7.70461H172.545C172.5 7.67601 172.463 7.64741 172.441 7.62182C172.418 7.59322 172.406 7.55708 172.406 7.51042C172.406 7.41708 172.427 7.34635 172.469 7.29367C172.512 7.24399 172.643 7.12357 172.865 6.9384C173.504 6.41152 173.966 5.98097 174.249 5.65279C174.532 5.32462 175.197 4.45295 176.245 3.04541C176.365 3.04541 176.436 3.05298 176.46 3.07105C176.484 3.09212 176.495 3.15983 176.495 3.28026V6.70355H179.304Z" fill="#CBD8FF"/>
    </g>
</svg>
