<svg width="130" height="29" viewBox="0 0 130 29" fill="none" xmlns="http://www.w3.org/2000/svg">
    <g opacity="0.5">
        <path d="M0.00201375 20.7022C1.3087 20.5978 2.1196 20.3649 2.43272 20.0037C2.74585 19.6404 2.90241 18.7813 2.90241 17.4184V3.48846C2.90241 2.32629 2.72778 1.57563 2.37652 1.23441C2.02526 0.895189 1.23443 0.684415 0 0.600113V0.00398156H9.14277V0.600113C7.88828 0.662336 7.07737 0.873115 6.71206 1.22638C6.34475 1.58165 6.1641 2.33434 6.1641 3.48245V10.064C8.14119 8.37799 9.75899 6.94286 11.0155 5.75862C13.2656 3.62296 14.3916 2.25002 14.3916 1.64585C14.3916 1.21832 14.2009 0.935327 13.8175 0.800844C13.4342 0.666362 12.8942 0.596131 12.1917 0.596131V0H20.6059V0.596131C19.5802 0.698498 18.7713 0.895183 18.1792 1.19024C17.5871 1.4853 16.7681 2.12761 15.7204 3.12117L9.45189 8.93198L17.1013 17.1956C18.4943 18.6809 19.4417 19.6063 19.9435 19.9756C20.4453 20.3469 21.1839 20.5878 22.1594 20.7002V21.2482H12.3362V20.7002C13.2254 20.6681 13.8276 20.5978 14.1407 20.4894C14.4538 20.381 14.6104 20.1623 14.6104 19.8371C14.6104 19.6585 14.508 19.3855 14.3053 19.0201C14.1026 18.6548 13.7794 18.2293 13.3398 17.7476L7.15365 11.0656L6.1641 11.9829V17.7958C6.1641 18.9901 6.34475 19.7468 6.70605 20.0679C7.06734 20.385 7.85215 20.5998 9.06651 20.7022V21.2501H0.00201375V20.7022Z" fill="#CBD8FF"/>
        <path d="M47.7957 8.79956V10.9955H31.5977V8.79956H47.7957ZM47.7957 15.2768V17.4727H31.5977V15.2768H47.7957Z" fill="#CBD8FF"/>
        <path d="M57.4258 11.0436C57.4258 10.4896 57.4579 9.90949 57.5201 9.30332C57.5823 8.70718 57.6927 8.15319 57.8493 7.64136C58.0159 7.10744 58.2728 6.67993 58.618 6.35476C58.9312 6.00952 59.3708 5.83691 59.9348 5.83691C60.7196 5.85699 61.4141 6.26647 62.0202 7.05931C62.5943 7.89631 63.0861 8.95611 63.4935 10.2427C64.3305 12.9825 65.035 15.6682 65.6111 18.3036H65.6733C66.4883 16.6316 67.1526 14.9998 67.6645 13.4101C68.1763 11.8726 68.5737 10.0119 68.8567 7.82806C68.9611 7.18977 69.196 6.68797 69.5633 6.32266C69.9085 5.99951 70.326 5.83691 70.8178 5.83691C71.2674 5.83691 71.6066 5.98944 71.8374 6.29253C72.0783 6.60565 72.1987 7.01313 72.1987 7.51493C72.1787 8.11106 71.8595 9.01027 71.2413 10.2126C70.615 11.4249 69.8824 12.7055 69.0454 14.0544C68.2606 15.4032 67.5561 16.5834 66.9278 17.599C66.2695 18.6227 65.9303 19.2409 65.9082 19.4497C65.9082 19.5862 65.9604 19.8411 66.0647 20.2185C66.127 20.6259 66.2113 21.1438 66.3156 21.77C66.5766 23.0145 66.7171 24.546 66.7392 26.3645C66.7191 27.9221 66.137 28.7109 64.9989 28.733C64.4449 28.7129 64.0375 28.4239 63.7765 27.8699C63.5457 27.3781 63.4313 26.9185 63.4313 26.4889C63.4514 24.6905 63.7284 23.1269 64.2623 21.8001C64.5031 21.1518 64.7059 20.6139 64.8745 20.1844C65.021 19.7548 65.0933 19.4778 65.0933 19.3534C65.0933 19.2289 65.0611 18.982 64.9989 18.6167C64.9367 18.2715 64.8323 17.8439 64.6858 17.3301C64.3827 16.2843 63.9752 15.1182 63.4634 13.8336C62.9716 12.5269 62.4016 11.3828 61.7533 10.3993C61.0728 9.43784 60.3583 8.94606 59.6056 8.92599C59.0315 8.94606 58.6341 9.18289 58.4133 9.6325C58.1825 10.0821 58.0681 10.5518 58.0681 11.0436H57.4258Z" fill="#CBD8FF"/>
        <path d="M85.6906 9.30925C86.0619 9.67055 86.2466 10.1021 86.2466 10.6039C86.2466 11.1378 86.0599 11.5774 85.6906 11.9287C85.3193 12.2799 84.8777 12.4546 84.3658 12.4546C83.8319 12.4546 83.3944 12.2679 83.0491 11.8986C82.7039 11.5292 82.5312 11.0977 82.5312 10.6039C82.5312 10.1021 82.7079 9.67055 83.0652 9.30925C83.4204 8.94796 83.8379 8.76733 84.3197 8.76733C84.8616 8.76934 85.3193 8.94997 85.6906 9.30925Z" fill="#CBD8FF"/>
        <path d="M97.5098 20.7022C98.8165 20.5978 99.6274 20.3649 99.9405 20.0037C100.254 19.6404 100.41 18.7813 100.41 17.4184V3.48846C100.41 2.32629 100.236 1.57563 99.8843 1.23441C99.5331 0.895189 98.7422 0.684415 97.5078 0.600113V0.00398156H106.651V0.600113C105.396 0.662336 104.585 0.873115 104.22 1.22638C103.853 1.58165 103.672 2.33434 103.672 3.48245V10.064C105.649 8.37799 107.267 6.94286 108.523 5.75862C110.773 3.62296 111.899 2.25002 111.899 1.64585C111.899 1.21832 111.709 0.935327 111.325 0.800844C110.942 0.666362 110.402 0.596131 109.7 0.596131V0H118.114V0.596131C117.088 0.698498 116.279 0.895183 115.687 1.19024C115.095 1.4853 114.276 2.12761 113.228 3.12117L106.96 8.93198L114.609 17.1956C116.002 18.6809 116.95 19.6063 117.451 19.9756C117.953 20.3469 118.692 20.5878 119.667 20.7002V21.2482H109.844V20.7002C110.733 20.6681 111.335 20.5978 111.649 20.4894C111.962 20.381 112.118 20.1623 112.118 19.8371C112.118 19.6585 112.016 19.3855 111.813 19.0201C111.61 18.6548 111.287 18.2293 110.848 17.7476L104.661 11.0656L103.672 11.9829V17.7958C103.672 18.9901 103.853 19.7468 104.214 20.0679C104.575 20.385 105.36 20.5998 106.574 20.7022V21.2501H97.5098V20.7022Z" fill="#CBD8FF"/>
        <path d="M128.944 15.4052C129.648 16.7661 129.999 18.3256 129.999 20.09C129.999 21.4749 129.785 22.7836 129.351 24.01C128.536 26.3163 127.125 27.4704 125.118 27.4704C123.745 27.4704 122.615 26.8462 121.73 25.5998C120.782 24.269 120.309 22.4605 120.309 20.1743C120.309 18.3759 120.626 16.8283 121.26 15.5316C122.117 13.7693 123.434 12.8882 125.212 12.8882C126.814 12.8882 128.058 13.7292 128.944 15.4052ZM127.354 25.1923C127.737 24.0703 127.928 22.4504 127.928 20.3248C127.928 18.6307 127.813 17.2799 127.583 16.2703C127.151 14.3896 126.342 13.4502 125.158 13.4502C123.974 13.4502 123.161 14.4176 122.723 16.3546C122.492 17.3863 122.378 18.7411 122.378 20.4272C122.378 22.0088 122.496 23.2734 122.733 24.2208C123.179 25.9891 124.016 26.8723 125.242 26.8723C126.266 26.8743 126.97 26.3143 127.354 25.1923Z" fill="#CBD8FF"/>
    </g>
</svg>
