<svg width="180" height="29" viewBox="0 0 180 29" fill="none" xmlns="http://www.w3.org/2000/svg">
    <g opacity="0.5">
        <path d="M0 18.654C1.02738 18.5451 1.69483 18.3608 2.0006 18.1027C2.30462 17.8446 2.45838 17.1863 2.45838 16.1311V3.63599C2.45838 2.64053 2.30812 1.98919 2.00759 1.68195C1.70706 1.37471 1.03787 1.18684 0.00174629 1.1131V0.591675H14.8534L14.9495 4.6104H14.2401C14.0025 3.37266 13.6478 2.57207 13.176 2.20689C12.7025 1.84346 11.6472 1.66087 10.01 1.66087H6.20448C5.79388 1.66087 5.54053 1.72759 5.44443 1.85927C5.34834 1.99094 5.30116 2.24199 5.30116 2.60717V8.87492H9.61512C10.8067 8.87492 11.5668 8.69758 11.8953 8.34294C12.2238 7.98829 12.4859 7.27025 12.6868 6.18524H13.342V12.6724H12.6868C12.4771 11.5839 12.2098 10.8641 11.8813 10.513C11.5528 10.1618 10.798 9.98451 9.61512 9.98451H5.30116V16.9387C5.30116 17.4953 5.47763 17.8253 5.82708 17.9254C6.17653 18.0255 7.22838 18.0764 8.97737 18.0764C10.8731 18.0764 12.2727 17.8692 13.1743 17.4531C14.0759 17.037 14.8866 16.0275 15.6064 14.4281H16.384L15.1137 19.1737H0V18.654Z" fill="#CBD8FF"/>
        <path d="M20.8879 3.74312C22.0533 2.27011 23.4266 1.0868 25.0097 0.191406L25.2683 0.644361C23.8023 1.81539 22.7557 2.95308 22.1285 4.05915C21.0277 5.98863 20.4773 8.55716 20.4773 11.7683C20.4773 14.1455 20.687 16.1083 21.1046 17.6533C21.8419 20.3605 23.2292 22.3848 25.2683 23.7297L24.9136 24.1826C23.7936 23.6419 22.5845 22.5867 21.2828 21.0136C19.1267 18.4082 18.0469 15.4447 18.0469 12.1264C18.0486 8.94167 18.9939 6.14838 20.8879 3.74312Z" fill="#CBD8FF"/>
        <path d="M29.8116 0V19.1754H27.9141V0H29.8116Z" fill="#CBD8FF"/>
        <path d="M33.4711 13.524C33.9446 14.7863 34.4985 15.7923 35.1345 16.542C36.2423 17.85 37.6191 18.5031 39.265 18.5031C40.1561 18.5031 40.9249 18.2204 41.5749 17.6533C42.2248 17.0863 42.5498 16.2962 42.5498 15.2797C42.5498 14.365 42.2231 13.5697 41.5679 12.8937C41.1415 12.4636 40.2417 11.8192 38.8701 10.959L36.4869 9.46313C35.7687 9.0049 35.1956 8.54494 34.7693 8.07794C33.9778 7.19132 33.5812 6.21339 33.5812 5.14244C33.5812 3.72386 34.0495 2.54582 34.9877 1.60302C35.9243 0.661986 37.1665 0.189697 38.7146 0.189697C39.3506 0.189697 40.1177 0.347715 41.014 0.663735C41.9103 0.979756 42.4223 1.13777 42.5498 1.13777C42.8958 1.13777 43.1334 1.05525 43.2662 0.890213C43.3972 0.72518 43.5003 0.491685 43.5737 0.191465H44.1468L44.7618 6.17126H44.0926C43.6366 4.36994 42.9063 3.11289 41.9016 2.40009C40.8952 1.68729 39.901 1.3309 38.919 1.3309C38.1537 1.3309 37.488 1.55737 36.9184 2.01033C36.3488 2.46329 36.0658 3.09183 36.0658 3.89593C36.0658 4.61751 36.2842 5.23549 36.7192 5.74814C37.1561 6.26958 37.8323 6.81209 38.7513 7.38093L41.2062 8.90308C42.742 9.85465 43.8271 10.7272 44.4578 11.5225C45.0781 12.3266 45.3891 13.2782 45.3891 14.3755C45.3891 15.8485 44.837 17.0775 43.731 18.0659C42.625 19.0544 41.2132 19.5477 39.4921 19.5477C38.6272 19.5477 37.7239 19.3827 36.7822 19.0544C35.8404 18.7261 35.3005 18.561 35.1642 18.561C34.8357 18.561 34.6156 18.6628 34.502 18.863C34.3884 19.0631 34.3133 19.2791 34.2766 19.5073H33.6616L32.8281 13.5275H33.4711V13.524Z" fill="#CBD8FF"/>
        <path d="M54.7951 18.0765C54.7706 16.7896 54.374 16.147 53.6035 16.147C53.1492 16.1593 52.763 16.3384 52.4485 16.686C52.127 17.0512 51.8719 17.5024 51.6832 18.0396C51.5015 18.5523 51.3652 19.0702 51.2744 19.5934C51.1888 20.1183 51.1468 20.5467 51.1468 20.882V24.439H49.5079V17.4339C49.5201 16.6351 49.307 16.2365 48.8702 16.2365C48.6885 16.2488 48.5399 16.3243 48.4246 16.4648C48.3145 16.6105 48.2342 16.8036 48.1782 17.0406C48.0804 17.5287 48.0385 17.9149 48.0507 18.2011H47.5859C47.5859 17.9149 47.6104 17.6095 47.6593 17.2864C47.6838 17.1337 47.7135 16.9844 47.7502 16.8387C47.7921 16.686 47.8375 16.5403 47.8865 16.3998C48.007 16.1136 48.187 15.8854 48.4229 15.7133C48.6587 15.536 48.9715 15.4482 49.3594 15.4482C49.7665 15.4482 50.088 15.5307 50.3239 15.6958C50.5475 15.8661 50.7083 16.1013 50.8061 16.3998C50.9214 16.693 50.9966 17.0248 51.0333 17.397C51.0577 17.7991 51.0752 18.2169 51.0874 18.6506H51.1416C51.215 18.3275 51.3198 17.9799 51.4596 17.6077C51.5802 17.2425 51.7531 16.8984 51.9785 16.5736C52.2022 16.2506 52.4765 15.982 52.798 15.7695C53.1265 15.5571 53.5109 15.45 53.9529 15.45C54.7724 15.45 55.3944 15.687 55.819 16.1628C56.2313 16.6755 56.4375 17.5287 56.4375 18.7225V28.8001H54.7899V18.0765H54.7951Z" fill="#CBD8FF"/>
        <path d="M77.1885 11.1221H63.0742V13.0428H77.1885V11.1221Z" fill="#CBD8FF"/>
        <path d="M85.4453 18.654C86.5094 18.5539 87.1733 18.3415 87.4389 18.0202C87.7028 17.6954 87.8356 16.958 87.8356 15.801V3.63422C87.8356 2.65456 87.687 2.01022 87.3917 1.69947C87.0965 1.38871 86.4465 1.19208 85.4471 1.10956V0.588135H92.8187C95.1845 0.588135 96.9964 1.04988 98.2509 1.97336C99.5054 2.89684 100.134 4.11352 100.134 5.62164C100.134 7.53357 99.439 8.91877 98.0465 9.77729C96.6539 10.6358 94.9119 11.066 92.8187 11.066C92.5182 11.066 92.1338 11.0589 91.6655 11.0449C91.1955 11.0308 90.8478 11.0238 90.6207 11.0238V16.1258C90.6207 17.181 90.7814 17.8446 91.1047 18.1185C91.4279 18.3906 92.1495 18.5679 93.2677 18.6504V19.1719H85.4453V18.654ZM94.877 2.15245C94.0855 1.80482 93.0843 1.63099 91.8734 1.63099C91.3003 1.63099 90.9474 1.68719 90.8164 1.80306C90.6836 1.91718 90.6189 2.17173 90.6189 2.565V9.88967C91.1186 9.93532 91.4471 9.96341 91.6009 9.97219C91.7546 9.98096 91.9049 9.98622 92.0517 9.98622C93.3341 9.98622 94.3441 9.80364 95.0814 9.43846C96.4198 8.77131 97.0872 7.52303 97.0872 5.69363C97.089 3.97132 96.3517 2.79151 94.877 2.15245Z" fill="#CBD8FF"/>
        <path d="M110.265 0V19.1754H108.367V0H110.265Z" fill="#CBD8FF"/>
        <path d="M127.444 0.431905C127.447 0.454728 127.451 0.507392 127.451 0.589908V17.1037C127.451 17.8078 127.638 18.2555 128.014 18.4486C128.389 18.64 129.088 18.7558 130.114 18.7909V19.1754H122.401V18.7646C123.502 18.7102 124.222 18.5592 124.557 18.3116C124.893 18.0641 125.062 17.5304 125.062 16.707V4.00646C125.062 3.56755 125.008 3.23396 124.898 3.00572C124.788 2.77748 124.552 2.66338 124.189 2.66338C123.951 2.66338 123.644 2.73008 123.268 2.86175C122.891 2.99343 122.538 3.13389 122.211 3.27961V2.89511L127.22 0.330078H127.385C127.418 0.37397 127.439 0.409081 127.444 0.431905Z" fill="#CBD8FF"/>
        <path d="M140.654 18.0765C140.63 16.7896 140.233 16.147 139.463 16.147C139.009 16.1593 138.622 16.3384 138.308 16.686C137.986 17.0512 137.731 17.5024 137.543 18.0396C137.361 18.5523 137.225 19.0702 137.134 19.5934C137.048 20.1183 137.006 20.5467 137.006 20.882V24.439H135.367V17.4339C135.38 16.6351 135.166 16.2365 134.73 16.2365C134.548 16.2488 134.399 16.3243 134.284 16.4648C134.176 16.6105 134.094 16.8036 134.038 17.0406C133.94 17.5287 133.898 17.9149 133.91 18.2011H133.445C133.445 17.9149 133.47 17.6095 133.519 17.2864C133.543 17.1337 133.573 16.9844 133.61 16.8387C133.651 16.686 133.697 16.5402 133.746 16.3998C133.866 16.1136 134.046 15.8854 134.282 15.7133C134.518 15.536 134.831 15.4482 135.219 15.4482C135.626 15.4482 135.947 15.5307 136.183 15.6958C136.407 15.8661 136.568 16.1013 136.665 16.3998C136.781 16.693 136.856 17.0248 136.893 17.397C136.917 17.7991 136.935 18.2169 136.947 18.6506H137.001C137.074 18.3275 137.179 17.9799 137.319 17.6077C137.44 17.2425 137.612 16.8984 137.838 16.5736C138.062 16.2506 138.336 15.982 138.657 15.7695C138.986 15.5571 139.37 15.45 139.812 15.45C140.632 15.45 141.254 15.687 141.678 16.1628C142.091 16.6754 142.297 17.5287 142.297 18.7225V28.8001H140.649V18.0765H140.654ZM153.27 22.5569L143.869 18.935V18.4417L153.27 14.8197V16.2102L146.658 18.6787L153.27 21.1752V22.5569ZM143.868 24.4408V23.2065H153.268V24.4408H143.868Z" fill="#CBD8FF"/>
        <path d="M154.04 12.0509H164.577L164.677 15.2322H164.231C164.013 14.2332 163.735 13.5818 163.398 13.2799C163.061 12.9779 162.353 12.8269 161.273 12.8269H160.235V22.4111C160.235 23.1327 160.347 23.5804 160.573 23.7524C160.796 23.9262 161.289 24.0386 162.047 24.093V24.4406H156.613V24.093C157.403 24.0333 157.894 23.9034 158.088 23.7015C158.282 23.5014 158.38 22.9992 158.38 22.1916V12.8269H157.333C156.302 12.8269 155.6 12.9779 155.226 13.2764C154.852 13.5748 154.571 14.2262 154.384 15.2322H153.93L154.04 12.0509Z" fill="#CBD8FF"/>
        <path d="M168.893 19.2527C169.199 19.8461 169.352 20.5291 169.352 21.2998C169.352 21.9073 169.258 22.4779 169.069 23.0151C168.715 24.0229 168.1 24.5285 167.226 24.5285C166.628 24.5285 166.137 24.2564 165.751 23.7086C165.339 23.1275 165.133 22.3374 165.133 21.3349C165.133 20.5501 165.271 19.8725 165.547 19.3071C165.921 18.5364 166.494 18.1501 167.266 18.1501C167.967 18.1501 168.507 18.5171 168.893 19.2527ZM168.201 23.533C168.369 23.0432 168.453 22.3321 168.453 21.4034C168.453 20.6625 168.402 20.0726 168.302 19.6302C168.114 18.8085 167.762 18.3977 167.247 18.3977C166.732 18.3977 166.377 18.8208 166.186 19.6688C166.087 20.1182 166.036 20.7134 166.036 21.4508C166.036 22.1425 166.087 22.6938 166.19 23.1081C166.384 23.8806 166.747 24.2687 167.282 24.2687C167.727 24.2687 168.035 24.0228 168.201 23.533Z" fill="#CBD8FF"/>
        <path d="M179.47 16.1294C179.115 17.3443 178.596 18.4943 177.913 19.5722C177.193 20.724 176.234 21.8002 175.033 22.7956C174.242 23.454 173.578 23.9158 173.04 24.1809L172.781 23.7279C174.183 22.6587 175.206 21.5667 175.853 20.4501C176.999 18.4749 177.572 15.8643 177.572 12.618C177.572 9.99331 177.308 7.84963 176.781 6.18526C176.043 3.83442 174.71 1.98745 172.781 0.644361L173.136 0.191406C174.574 0.995502 175.911 2.21219 177.149 3.83969C179.05 6.34503 180.003 9.15234 180.003 12.2616C180.003 13.624 179.824 14.9144 179.47 16.1294Z" fill="#CBD8FF"/>
    </g>
</svg>
