<svg width="240" height="53" viewBox="0 0 240 53" fill="none" xmlns="http://www.w3.org/2000/svg">
    <g opacity="0.5">
        <path d="M13.0301 31.2564L12.5097 31.1683C12.5097 28.2131 11.8732 26.4454 9.07144 26.4454C7.07794 26.4454 5.83454 27.5176 5.83454 29.3423C5.83454 30.763 6.067 31.228 8.69572 33.8646C11.3244 36.5298 11.961 37.7769 11.961 39.6613C11.961 42.9649 9.44717 45.3128 6.12512 45.3128C5.22906 45.3128 4.44922 45.1095 3.11932 44.6459C2.33814 44.3557 2.07865 44.2961 1.76104 44.2961C1.18394 44.2961 0.720361 44.5591 0.520335 45.2247H0L0.982561 38.7313L1.56101 38.7909C1.5029 39.0512 1.5029 39.2546 1.5029 39.4579C1.5029 42.2979 3.2369 44.2975 5.66289 44.2975C7.88751 44.2975 9.44852 42.7927 9.44852 40.5885C9.44852 39.344 9.04306 38.4737 7.71451 37.0259L6.58734 35.8086C6.18323 35.3734 5.83589 34.9667 5.46017 34.5885C3.72751 32.7368 3.29367 31.8082 3.29367 30.2438C3.29367 27.2004 5.6629 25.4896 8.43623 25.4896C9.33229 25.4896 10.2851 25.6333 10.8919 25.8963C11.4988 26.1281 11.8461 26.2149 12.2219 26.2149C12.8571 26.2149 13.1166 26.0685 13.522 25.4612H14.187L13.0301 31.2564Z" fill="#CBD8FF"/>
        <path d="M18.188 52.3308C14.597 52.3308 13.4414 48.4131 13.4414 44.9576C13.4414 41.2297 14.8902 37.7959 18.2704 37.7959C21.0208 37.7959 22.9318 40.7674 22.9318 45.0837C22.9332 48.7059 21.6114 52.3308 18.188 52.3308ZM18.1461 38.3436C16.404 38.3436 15.4579 40.8284 15.4579 45.104C15.4579 49.3796 16.3823 51.7818 18.188 51.7818C19.9733 51.7818 20.9167 49.3579 20.9167 45.1881C20.918 40.8081 19.9936 38.3436 18.1461 38.3436Z" fill="#CBD8FF"/>
        <path d="M35.3818 41.978C33.7343 44.0073 31.8841 45.1094 29.4864 45.1094C27.1456 45.1094 25.5859 43.5451 25.5859 41.1402C25.5859 36.6463 29.8919 32.0101 34.2249 32.0101C35.7562 32.0101 36.5941 32.7639 36.5941 33.9812C36.5941 36.4742 33.5599 38.7326 28.3876 39.401C28.0998 39.9798 28.0998 40.7335 28.0998 41.1687C28.0998 42.7615 29.1675 43.8053 30.7866 43.8053C32.057 43.8053 32.9545 43.3417 35.0345 41.6309L35.3818 41.978ZM28.5917 38.7625C31.0758 38.1524 32.1746 37.6305 33.2437 36.6165C34.1397 35.7476 34.6885 34.7051 34.6885 33.805C34.6885 33.1109 34.4857 32.6757 33.6762 32.6757C32.03 32.6757 30.0649 34.9057 29.0823 37.4868L28.5917 38.7625Z" fill="#CBD8FF"/>
        <path d="M45.6549 34.194C42.3369 32.2975 40.5312 28.7404 40.5312 25.1588C40.5312 21.2614 42.3585 18.2289 45.7184 16.2267L45.9063 16.5642C42.987 19.0721 42.3355 21.0296 42.3355 25.0951C42.3355 29.0129 42.9654 31.3933 45.9063 33.8578L45.6549 34.194Z" fill="#CBD8FF"/>
        <path d="M59.1412 28.1914C57.8397 30.214 57.2099 30.6966 56.2652 30.6966C55.6759 30.6966 55.2353 30.3387 55.2353 29.7504C55.2353 29.3898 55.3826 28.655 55.5502 28.148L56.2422 25.9587H56.2219C54.3744 29.2434 53.2188 30.6559 51.9592 30.6559C51.5605 30.6559 51.3078 30.4445 51.2024 30.0649C50.3847 33.2262 50.2576 34.2375 49.7954 34.7824H48.3047C48.598 34.3635 48.8926 33.7508 49.2278 32.4237L51.9781 21.4513H53.5527L51.9781 27.7278C51.9362 27.9162 51.8943 28.106 51.8943 28.2958C51.8943 28.8638 52.1457 29.3071 52.7336 29.3071C53.973 29.3071 56.2611 25.369 56.6179 24.0202L57.3099 21.45H58.9277L57.2694 27.7685C57.1842 28.106 56.8707 29.181 56.8707 29.3898C56.8707 29.5592 56.9545 29.7056 57.1018 29.7056C57.4383 29.7056 57.7519 29.4332 58.8439 28.0003L59.1412 28.1914Z" fill="#CBD8FF"/>
        <path d="M61.3945 25.8326V24.4404H73.092V25.8326H61.3945Z" fill="#CBD8FF"/>
        <path d="M89.6468 14.5824H86.0774C86.9181 15.9068 88.0939 15.8865 88.0939 17.4658C88.0939 19.7839 85.4476 22.2687 82.508 22.2687C80.5348 22.2687 79.4414 21.1314 79.4414 19.2999C79.4414 16.4545 81.9836 13.0234 85.9504 13.0234H90.0252L89.6468 14.5824ZM85.1097 14.5824C83.6622 14.5824 81.2051 16.9615 81.2051 19.9303C81.2051 21.1964 81.8552 21.8268 82.8432 21.8268C84.8597 21.8268 86.3288 19.0695 86.3288 17.3845C86.3288 16.0356 85.7828 14.9809 85.1097 14.5824Z" fill="#CBD8FF"/>
        <path d="M100.813 14.2394H92.6016V13.9872L96.3399 10.0044C98.3131 7.92086 99.0686 6.31988 99.0686 4.53047C99.0686 2.61091 97.9347 1.55895 96.1493 1.55895C94.637 1.55895 93.9031 2.2327 93.0624 4.29865L92.6218 4.19292C93.0624 1.72841 94.4072 0 96.99 0C99.3632 0 100.876 1.62267 100.876 3.7076C100.876 5.3723 100.057 6.95159 98.1874 8.93215L94.7221 12.6398H99.6349C100.517 12.6398 100.958 12.4079 101.651 11.2272L101.946 11.3533L100.813 14.2394Z" fill="#CBD8FF"/>
        <path d="M104.599 24.4391H76.7734V25.8516H104.599V24.4391Z" fill="#CBD8FF"/>
        <path d="M94.2548 41.5103H86.043V41.2581L89.7813 37.2753C91.7545 35.1917 92.51 33.5907 92.51 31.8013C92.51 29.8818 91.3761 28.8298 89.5907 28.8298C88.0784 28.8298 87.3445 29.5036 86.5038 31.5695L86.0632 31.4638C86.5038 28.9993 87.8486 27.2709 90.4314 27.2709C92.8046 27.2709 94.317 28.8935 94.317 30.9785C94.317 32.6432 93.498 34.2225 91.6288 36.203L88.1635 39.9106H93.0763C93.9588 39.9106 94.3995 39.6788 95.0928 38.4981L95.3874 38.6242L94.2548 41.5103Z" fill="#CBD8FF"/>
        <path d="M108.527 16.2267C111.741 18.1639 113.652 21.683 113.652 25.2646C113.652 29.1593 111.805 32.1511 108.465 34.194L108.277 33.8565C111.259 31.392 111.848 29.4141 111.848 25.3256C111.848 21.3875 111.322 18.9664 108.277 16.5629L108.527 16.2267Z" fill="#CBD8FF"/>
        <path d="M127.032 20.1661L126.675 20.1254C126.716 19.7676 126.738 19.4314 126.738 19.1562C126.738 18.0392 125.981 17.4508 124.617 17.4508H123.399L120.523 27.7725C120.396 28.2144 120.229 28.6984 120.229 29.162C120.229 29.8154 120.481 29.9848 121.342 30.0675L122.077 30.1313V30.4688H116.029V30.1313C117.478 30.0052 117.962 29.6893 118.277 28.552L121.279 17.4508C117.961 17.4508 117.289 17.7884 116.281 20.0617L115.902 19.979L116.785 16.7147H127.957L127.032 20.1661Z" fill="#CBD8FF"/>
        <path d="M134.223 25.8326V31.3296H132.836V25.8326H127.355V24.4404H132.836V18.9434H134.223V24.4404H139.702V25.8326H134.223Z" fill="#CBD8FF"/>
        <path d="M152.338 23.0116H148.769C149.608 24.336 150.785 24.3157 150.785 25.895C150.785 28.2131 148.139 30.6979 145.199 30.6979C143.226 30.6979 142.133 29.5606 142.133 27.7291C142.133 24.8837 144.674 21.4526 148.642 21.4526H152.717L152.338 23.0116ZM147.802 23.0116C146.354 23.0116 143.898 25.3907 143.898 28.3595C143.898 29.6229 144.548 30.256 145.536 30.256C147.552 30.256 149.022 27.4987 149.022 25.8137C149.022 24.4648 148.474 23.4102 147.802 23.0116Z" fill="#CBD8FF"/>
        <path d="M171.125 17.0509C170.326 17.3031 170.116 17.4698 169.507 18.6302L163.186 30.8443H162.767L161.717 21.3021H161.611L156.95 30.8443H156.55L155.27 20.0184C155.039 18.0378 154.955 17.6799 154.66 17.3641C154.471 17.1757 154.262 17.1323 153.59 17.0496V16.712H158.524V17.0496C157.454 17.1553 157.012 17.3221 157.012 18.1219C157.012 18.2276 157.012 18.3971 157.032 18.5435L157.957 27.054L161.568 19.7229L161.4 18.3537C161.275 17.2814 161.044 17.0903 159.826 17.0496V16.712H164.782V17.0496C163.71 17.1553 163.353 17.3871 163.353 18.0609C163.353 18.1869 163.395 18.313 163.395 18.3754L164.236 27.0554L168.184 19.3663C168.457 18.839 168.667 18.3347 168.667 17.9334C168.667 17.4088 168.309 17.0713 167.261 17.0509V16.7134H171.125V17.0509Z" fill="#CBD8FF"/>
        <path d="M181.106 26.3409L180.748 26.3003C180.79 25.9424 180.812 25.6062 180.812 25.331C180.812 24.214 180.055 23.6256 178.691 23.6256H177.473L174.597 33.9473C174.47 34.3892 174.303 34.8732 174.303 35.3368C174.303 35.9902 174.556 36.1596 175.416 36.2423L176.152 36.3061V36.6436H170.104V36.3061C171.552 36.18 172.036 35.8641 172.35 34.7268L175.353 23.6256C172.035 23.6256 171.363 23.9632 170.355 26.2365L169.977 26.1538L170.859 22.8895H182.031L181.106 26.3409Z" fill="#CBD8FF"/>
        <path d="M192.707 35.5158V33.6017H209.724V35.5158H192.707ZM192.707 41.3124V39.401H209.724V41.3124H192.707Z" fill="#CBD8FF"/>
        <path d="M239.998 26.3301C239.275 26.3301 238.61 26.7652 237.773 27.4024L229.161 33.9215L234.016 42.4131C234.911 43.9802 235.2 44.1524 237.021 44.3272V44.7908H229.075V44.3272L229.913 44.2391C230.809 44.151 231.243 43.804 231.243 43.3105C231.243 42.7032 230.693 41.8627 230.174 40.9355L226.621 34.7051L224.742 41.574C224.511 42.3846 224.424 42.7317 224.424 43.0502C224.424 43.9477 224.888 44.1795 226.476 44.3259V44.7895H219.34V44.3259C221.074 44.1225 221.247 43.804 221.681 42.268L225.264 29.3721C225.465 28.6468 225.668 28.0368 225.668 27.5745C225.668 26.7923 225.177 26.4168 223.385 26.3301V25.8665H231.187V26.3301C229.684 26.4453 228.76 26.852 228.326 28.4733L226.795 34.0964L231.216 30.9378C233.786 29.1118 235.347 27.6627 235.347 26.9686C235.347 26.65 235.001 26.5036 234.307 26.4182L233.613 26.3301V25.8665H239.999V26.3301H239.998Z" fill="#CBD8FF"/>
    </g>
</svg>
