<svg width="150" height="33" viewBox="0 0 150 33" fill="none" xmlns="http://www.w3.org/2000/svg">
    <g opacity="0.5">
        <path d="M0 31.0942C1.1646 30.9852 1.89128 30.7538 2.18195 30.4038C2.47071 30.0501 2.61605 29.2469 2.61605 27.9867V14.7343C2.61605 13.6673 2.4535 12.9655 2.13032 12.627C1.80714 12.2885 1.09575 12.0743 0.00191126 11.9845V11.4165H8.06997C10.6592 11.4165 12.6423 11.9194 14.0153 12.9253C15.3884 13.9312 16.0768 15.2564 16.0768 16.8991C16.0768 18.9816 15.3157 20.4904 13.7916 21.4255C12.2675 22.3606 10.3609 22.8292 8.06997 22.8292C7.74105 22.8292 7.32034 22.8215 6.80784 22.8062C6.29343 22.7909 5.91288 22.7833 5.66428 22.7833V28.3405C5.66428 29.4898 5.84021 30.2126 6.19399 30.5109C6.54777 30.8073 7.33755 31.0005 8.56143 31.0904V31.6583H0V31.0942ZM10.3227 13.1223C9.45639 12.7436 8.36064 12.5543 7.0354 12.5543C6.40816 12.5543 6.02188 12.6155 5.87845 12.7417C5.73312 12.866 5.66237 13.1433 5.66237 13.5717V21.5498C6.20929 21.5995 6.5688 21.6301 6.73708 21.6397C6.90536 21.6493 7.06983 21.655 7.23046 21.655C8.6341 21.655 9.73941 21.4561 10.5464 21.0584C12.0112 20.3317 12.7417 18.9721 12.7417 16.9794C12.7437 15.1034 11.9367 13.8184 10.3227 13.1223Z" fill="#CBD8FF"/>
        <path d="M21.7109 22.4793V23.1964H19.6782L19.659 28.9334C19.659 29.4382 19.7011 29.8188 19.7891 30.0788C19.9478 30.5359 20.2614 30.7653 20.7242 30.7653C20.9632 30.7653 21.1717 30.7099 21.3476 30.5951C21.5235 30.4823 21.7243 30.3044 21.95 30.0578L22.2082 30.2777L21.9882 30.576C21.6421 31.0407 21.2768 31.3696 20.8925 31.5628C20.5062 31.7559 20.1352 31.8496 19.7776 31.8496C18.9935 31.8496 18.4619 31.5016 18.1846 30.8036C18.0317 30.4269 17.9552 29.9009 17.9552 29.2316V23.1964H16.869C16.8365 23.1754 16.8116 23.1562 16.7944 23.1371C16.7791 23.1161 16.7695 23.0912 16.7695 23.0568C16.7695 22.9899 16.7848 22.9382 16.8135 22.9019C16.8441 22.8655 16.9378 22.7814 17.0965 22.6475C17.5536 22.2708 17.8844 21.963 18.0871 21.7277C18.2898 21.4925 18.766 20.8691 19.5175 19.8594C19.6036 19.8594 19.6552 19.8651 19.6724 19.8785C19.6896 19.8938 19.6973 19.9416 19.6973 20.0277V22.4793H21.7109Z" fill="#CBD8FF"/>
        <path d="M43.6355 19.8001V21.8922H28.2031V19.8001H43.6355ZM43.6355 25.9692V28.0613H28.2031V25.9692H43.6355Z" fill="#CBD8FF"/>
        <path d="M52.6875 31.0942C53.8521 30.9852 54.5788 30.7538 54.8694 30.4038C55.1582 30.0501 55.3036 29.2469 55.3036 27.9867V14.7343C55.3036 13.6673 55.141 12.9655 54.8178 12.627C54.4946 12.2885 53.7833 12.0743 52.6894 11.9845V11.4165H60.7575C63.3467 11.4165 65.3298 11.9194 66.7028 12.9253C68.0759 13.9312 68.7643 15.2564 68.7643 16.8991C68.7643 18.9816 68.0032 20.4904 66.4791 21.4255C64.955 22.3606 63.0484 22.8292 60.7575 22.8292C60.4285 22.8292 60.0078 22.8215 59.4953 22.8062C58.9809 22.7909 58.6004 22.7833 58.3518 22.7833V28.3405C58.3518 29.4898 58.5277 30.2126 58.8815 30.5109C59.2353 30.8073 60.0251 31.0005 61.2489 31.0904V31.6583H52.6875V31.0942ZM63.0102 13.1223C62.1439 12.7436 61.0481 12.5543 59.7229 12.5543C59.0957 12.5543 58.7094 12.6155 58.566 12.7417C58.4206 12.866 58.3499 13.1433 58.3499 13.5717V21.5498C58.8968 21.5995 59.2563 21.6301 59.4246 21.6397C59.5929 21.6493 59.7573 21.655 59.918 21.655C61.3216 21.655 62.4269 21.4561 63.2339 21.0584C64.6987 20.3317 65.4292 18.9721 65.4292 16.9794C65.4312 15.1034 64.6242 13.8184 63.0102 13.1223Z" fill="#CBD8FF"/>
        <path d="M74.4024 22.4793V23.1964H72.3696L72.3504 28.9334C72.3504 29.4382 72.3925 29.8188 72.4805 30.0788C72.6392 30.5359 72.9528 30.7653 73.4156 30.7653C73.6546 30.7653 73.8631 30.7099 74.039 30.5951C74.2149 30.4823 74.4157 30.3044 74.6414 30.0578L74.8996 30.2777L74.6796 30.576C74.3335 31.0407 73.9683 31.3696 73.5839 31.5628C73.1976 31.7559 72.8266 31.8496 72.469 31.8496C71.685 31.8496 71.1533 31.5016 70.876 30.8036C70.7231 30.4269 70.6466 29.9009 70.6466 29.2316V23.1964H69.5604C69.5279 23.1754 69.503 23.1562 69.4858 23.1371C69.4705 23.1161 69.4609 23.0912 69.4609 23.0568C69.4609 22.9899 69.4762 22.9382 69.5049 22.9019C69.5355 22.8655 69.6292 22.7814 69.7879 22.6475C70.245 22.2708 70.5758 21.963 70.7785 21.7277C70.9812 21.4925 71.4574 20.8691 72.2089 19.8594C72.295 19.8594 72.3466 19.8651 72.3638 19.8785C72.381 19.8938 72.3887 19.9416 72.3887 20.0277V22.4793H74.4024Z" fill="#CBD8FF"/>
        <path d="M85.7841 25.8162H75.4844V27.2103H85.7841V25.8162Z" fill="#CBD8FF"/>
        <path d="M86.7806 18.1651H98.3138L98.4228 21.6302H97.9352C97.6961 20.5421 97.3921 19.8327 97.023 19.5037C96.6539 19.1748 95.8794 19.0103 94.6976 19.0103H93.5617V29.4497C93.5617 30.2356 93.6841 30.7233 93.9308 30.9107C94.1756 31.1 94.7148 31.2224 95.5448 31.2817V31.6603H89.5975V31.2817C90.4618 31.2167 90.9992 31.0751 91.2115 30.8552C91.4237 30.6372 91.5308 30.0903 91.5308 29.2106V19.0103H90.3854C89.2571 19.0103 88.4883 19.1748 88.0791 19.4999C87.6699 19.825 87.362 20.5345 87.1574 21.6302H86.6602L86.7806 18.1651Z" fill="#CBD8FF"/>
        <path d="M114.284 19.1059C115.34 20.0774 115.868 21.4542 115.868 23.2365H106.381C106.48 25.5428 107.002 27.2217 107.949 28.2754C108.896 29.3291 110.016 29.855 111.311 29.855C112.357 29.855 113.238 29.5815 113.956 29.0346C114.673 28.4877 115.334 27.7132 115.942 26.7092L116.464 26.889C116.055 28.155 115.292 29.3272 114.172 30.4058C113.051 31.4843 111.678 32.0217 110.056 32.0217C108.184 32.0217 106.737 31.3141 105.715 29.9009C104.694 28.4877 104.184 26.8584 104.184 25.015C104.184 23.0128 104.776 21.2859 105.962 19.8307C107.148 18.3754 108.691 17.6487 110.594 17.6487C111.999 17.6487 113.229 18.1345 114.284 19.1059ZM107.129 20.2475C106.809 20.7849 106.58 21.4638 106.442 22.2784H112.747C112.636 21.2821 112.449 20.5401 112.179 20.0525C111.691 19.1767 110.873 18.7368 109.729 18.7368C108.591 18.7388 107.725 19.2417 107.129 20.2475Z" fill="#CBD8FF"/>
        <path d="M128.318 3.31592C128.304 3.83416 128.211 4.24913 128.039 4.56084C127.859 4.9127 127.551 5.08864 127.113 5.08864C126.423 5.08864 125.845 5.04851 125.38 4.97011L125.34 5.01026C126.662 6.12514 127.316 7.39682 127.302 8.82532C127.289 10.1735 126.874 11.3094 126.057 12.2312C125.241 13.1816 124.145 13.6692 122.77 13.696C121.409 13.6826 120.294 13.2217 119.424 12.3115C118.513 11.4146 118.052 10.2404 118.039 8.78517C118.039 7.30504 118.473 6.09263 119.343 5.14986C120.2 4.20135 121.388 3.71944 122.91 3.70605C123.514 3.71944 124.16 3.75962 124.853 3.82464C125.53 3.91069 126.218 3.95466 126.914 3.95466C127.293 3.95466 127.572 3.89922 127.752 3.78448C127.924 3.69078 128.021 3.53583 128.04 3.31592H128.318ZM125.281 10.6764C125.321 10.2576 125.34 9.86561 125.34 9.50036C125.34 8.9171 125.308 8.32236 125.241 7.71807C125.161 7.12143 125.011 6.56686 124.793 6.05436C124.573 5.53613 124.275 5.12115 123.896 4.80945C123.499 4.49774 122.994 4.33141 122.382 4.31228C121.611 4.33141 121.02 4.66031 120.609 5.29902C120.204 5.94921 120.001 6.83272 120.001 7.9476C119.988 9.44111 120.183 10.6669 120.588 11.6231C120.994 12.585 121.72 13.0745 122.77 13.0879C123.355 13.0879 123.822 12.9655 124.174 12.7188C124.52 12.4855 124.772 12.1948 124.931 11.843C125.111 11.4892 125.227 11.1009 125.281 10.6764Z" fill="#CBD8FF"/>
        <path d="M128.65 13.2657L137.594 0.776411H132.894C131.712 0.776411 130.872 1.07089 130.375 1.6637C130.077 2.01557 129.84 2.62369 129.668 3.48614H129.14L129.547 0H140.314V0.229468L131.37 12.7188H136.663C137.864 12.7188 138.738 12.4377 139.289 11.8735C139.631 11.514 139.939 10.86 140.214 9.91149H140.692L140.184 13.4971H128.648V13.2657H128.65Z" fill="#CBD8FF"/>
        <path d="M141.268 6.24176H149.917L149.999 8.84061H149.634C149.454 8.02405 149.227 7.49246 148.951 7.24577C148.676 6.99908 148.093 6.87665 147.207 6.87665H146.356V14.7057C146.356 15.2966 146.448 15.6599 146.634 15.8015C146.817 15.9411 147.221 16.0348 147.844 16.0807V16.3637H143.385V16.0807C144.031 16.0328 144.435 15.9239 144.595 15.7613C144.754 15.5969 144.834 15.1857 144.834 14.5259V6.87665H143.976C143.128 6.87665 142.553 6.99714 142.247 7.24192C141.941 7.4867 141.709 8.01832 141.556 8.84061H141.184L141.268 6.24176Z" fill="#CBD8FF"/>
    </g>
</svg>
