<svg width="182" height="25" viewBox="0 0 182 25" fill="none" xmlns="http://www.w3.org/2000/svg">
    <g opacity="0.5">
        <path d="M0 19.3357C1.14436 19.2285 1.8584 19.0012 2.14402 18.6573C2.42776 18.3097 2.57058 17.5205 2.57058 16.2822V3.26017C2.57058 2.21165 2.41086 1.52204 2.09329 1.18945C1.77573 0.85685 1.07671 0.646397 0.00187804 0.55808V0H7.9297C10.474 0 12.4226 0.4942 13.7717 1.48259C15.1209 2.47099 15.7974 3.77319 15.7974 5.38732C15.7974 7.43363 15.0495 8.91618 13.5519 9.83504C12.0543 10.7539 10.1808 11.2143 7.9297 11.2143C7.6065 11.2143 7.19311 11.2068 6.68951 11.1918C6.18404 11.1767 5.81011 11.1692 5.56583 11.1692V16.6298C5.56583 17.7592 5.7387 18.4694 6.08633 18.7625C6.43396 19.0538 7.21002 19.2436 8.41263 19.3319V19.89H0V19.3357ZM10.1432 1.67613C9.29203 1.30408 8.21532 1.11805 6.91312 1.11805C6.29678 1.11805 5.91721 1.17817 5.77628 1.30219C5.63347 1.42433 5.56395 1.69677 5.56395 2.11769V9.95719C6.10136 10.006 6.45462 10.0361 6.61998 10.0455C6.78534 10.0549 6.94695 10.0606 7.10479 10.0606C8.48403 10.0606 9.57013 9.86514 10.3631 9.47429C11.8025 8.76024 12.5203 7.42422 12.5203 5.46623C12.5222 3.62285 11.7292 2.36012 10.1432 1.67613Z" fill="#CBD8FF"/>
        <path d="M21.336 15.5682V16.2728H19.3386L19.3198 21.91C19.3198 22.4061 19.3611 22.78 19.4475 23.0356C19.6035 23.4847 19.9117 23.7102 20.3664 23.7102C20.6013 23.7102 20.8061 23.6557 20.979 23.5429C21.1518 23.4321 21.3492 23.2573 21.5709 23.0149L21.8246 23.231L21.6085 23.5241C21.2684 23.9807 20.9094 24.304 20.5318 24.4938C20.1522 24.6836 19.7876 24.7756 19.4363 24.7756C18.6658 24.7756 18.1434 24.4336 17.871 23.7478C17.7207 23.3776 17.6455 22.8608 17.6455 22.2031V16.2728H16.5782C16.5462 16.2521 16.5218 16.2333 16.5049 16.2145C16.4899 16.1939 16.4805 16.1695 16.4805 16.1356C16.4805 16.0699 16.4955 16.0191 16.5237 15.9834C16.5538 15.9477 16.6458 15.865 16.8018 15.7335C17.2509 15.3633 17.576 15.0608 17.7752 14.8297C17.9743 14.5985 18.4422 13.9859 19.1807 12.9938C19.2653 12.9938 19.316 12.9994 19.3329 13.0126C19.3498 13.0276 19.3573 13.0746 19.3573 13.1592V15.5682H21.336Z" fill="#CBD8FF"/>
        <path d="M37.8823 11.2762H22.7031V13.332H37.8823V11.2762Z" fill="#CBD8FF"/>
        <path d="M39.2461 19.3357C40.3905 19.2285 41.1045 19.0012 41.3901 18.6573C41.6739 18.3097 41.8167 17.5205 41.8167 16.2822V3.26017C41.8167 2.21165 41.657 1.52204 41.3394 1.18945C41.0218 0.85685 40.3228 0.646397 39.248 0.55808V0H47.1758C49.7201 0 51.6687 0.4942 53.0178 1.48259C54.367 2.47099 55.0435 3.77319 55.0435 5.38732C55.0435 7.43363 54.2956 8.91618 52.798 9.83504C51.3004 10.7539 49.4269 11.2143 47.1758 11.2143C46.8526 11.2143 46.4392 11.2068 45.9356 11.1918C45.4301 11.1767 45.0562 11.1692 44.8119 11.1692V16.6298C44.8119 17.7592 44.9848 18.4694 45.3324 18.7625C45.6801 19.0538 46.4561 19.2436 47.6587 19.3319V19.89H39.2461V19.3357ZM49.3893 1.67613C48.5381 1.30408 47.4614 1.11805 46.1592 1.11805C45.5429 1.11805 45.1633 1.17817 45.0224 1.30219C44.8796 1.42433 44.81 1.69677 44.81 2.11769V9.95719C45.3475 10.006 45.7007 10.0361 45.8661 10.0455C46.0314 10.0549 46.193 10.0606 46.3509 10.0606C47.7301 10.0606 48.8162 9.86514 49.6092 9.47429C51.0486 8.76024 51.7664 7.42422 51.7664 5.46623C51.7683 3.62285 50.9753 2.36012 49.3893 1.67613Z" fill="#CBD8FF"/>
        <path d="M60.5821 15.5682V16.2728H58.5846L58.5658 21.91C58.5658 22.4061 58.6072 22.78 58.6936 23.0356C58.8496 23.4847 59.1577 23.7102 59.6125 23.7102C59.8474 23.7102 60.0522 23.6557 60.2251 23.5429C60.3979 23.4321 60.5952 23.2573 60.817 23.0149L61.0706 23.231L60.8545 23.5241C60.5144 23.9807 60.1555 24.304 59.7778 24.4938C59.3983 24.6836 59.0337 24.7756 58.6823 24.7756C57.9119 24.7756 57.3895 24.4336 57.1171 23.7478C56.9667 23.3776 56.8916 22.8608 56.8916 22.2031V16.2728H55.8243C55.7923 16.2521 55.7679 16.2333 55.751 16.2145C55.736 16.1939 55.7266 16.1695 55.7266 16.1356C55.7266 16.0699 55.7416 16.0191 55.7698 15.9834C55.7998 15.9477 55.8919 15.865 56.0479 15.7335C56.497 15.3633 56.8221 15.0608 57.0212 14.8297C57.2204 14.5985 57.6883 13.9859 58.4268 12.9938C58.5113 12.9938 58.5621 12.9994 58.579 13.0126C58.5959 13.0276 58.6034 13.0746 58.6034 13.1592V15.5682H60.5821Z" fill="#CBD8FF"/>
        <path d="M71.7691 18.8472H61.6484V20.217H71.7691V18.8472Z" fill="#CBD8FF"/>
        <path d="M72.7473 11.329H84.08L84.1871 14.7339H83.708C83.4731 13.6647 83.1743 12.9676 82.8116 12.6444C82.449 12.3212 81.6879 12.1595 80.5267 12.1595H79.4105V22.4174C79.4105 23.1897 79.5308 23.6689 79.7732 23.853C80.0137 24.0391 80.5436 24.1593 81.3591 24.2176V24.5896H75.5152V24.2176C76.3645 24.1537 76.8925 24.0146 77.1011 23.7985C77.3097 23.5843 77.4149 23.0469 77.4149 22.1825V12.1595H76.2894C75.1807 12.1595 74.4253 12.3211 74.0232 12.6406C73.6211 12.96 73.3185 13.6572 73.1175 14.7339H72.6289L72.7473 11.329Z" fill="#CBD8FF"/>
        <path d="M110.317 8.23792V10.2936H95.1523V8.23792H110.317ZM110.317 14.2998V16.3555H95.1523V14.2998H110.317Z" fill="#CBD8FF"/>
        <path d="M118.695 19.3357C119.84 19.2285 120.554 19.0012 120.839 18.6573C121.123 18.3097 121.266 17.5205 121.266 16.2822V3.26017C121.266 2.21165 121.106 1.52204 120.789 1.18945C120.471 0.85685 119.772 0.646397 118.697 0.55808V0H126.625C129.169 0 131.118 0.4942 132.467 1.48259C133.816 2.47099 134.493 3.77319 134.493 5.38732C134.493 7.43363 133.745 8.91618 132.247 9.83504C130.75 10.7539 128.876 11.2143 126.625 11.2143C126.302 11.2143 125.888 11.2068 125.385 11.1918C124.879 11.1767 124.505 11.1692 124.261 11.1692V16.6298C124.261 17.7592 124.434 18.4694 124.782 18.7625C125.129 19.0538 125.905 19.2436 127.108 19.3319V19.89H118.695V19.3357ZM128.839 1.67613C127.987 1.30408 126.911 1.11805 125.608 1.11805C124.992 1.11805 124.613 1.17817 124.472 1.30219C124.329 1.42433 124.259 1.69677 124.259 2.11769V9.95719C124.797 10.006 125.15 10.0361 125.315 10.0455C125.481 10.0549 125.642 10.0606 125.8 10.0606C127.179 10.0606 128.265 9.86514 129.058 9.47429C130.498 8.76024 131.216 7.42422 131.216 5.46623C131.217 3.62285 130.424 2.36012 128.839 1.67613Z" fill="#CBD8FF"/>
        <path d="M140.031 15.5682V16.2728H138.034L138.015 21.91C138.015 22.4061 138.056 22.78 138.143 23.0356C138.299 23.4847 138.607 23.7102 139.062 23.7102C139.297 23.7102 139.501 23.6557 139.674 23.5429C139.847 23.4321 140.044 23.2573 140.266 23.0149L140.52 23.231L140.304 23.5241C139.964 23.9807 139.605 24.304 139.227 24.4938C138.848 24.6836 138.483 24.7756 138.132 24.7756C137.361 24.7756 136.839 24.4336 136.566 23.7478C136.416 23.3776 136.341 22.8608 136.341 22.2031V16.2728H135.273C135.242 16.2521 135.217 16.2333 135.2 16.2145C135.185 16.1939 135.176 16.1695 135.176 16.1356C135.176 16.0699 135.191 16.0191 135.219 15.9834C135.249 15.9477 135.341 15.865 135.497 15.7335C135.946 15.3633 136.271 15.0608 136.47 14.8297C136.67 14.5985 137.138 13.9859 137.876 12.9938C137.961 12.9938 138.011 12.9994 138.028 13.0126C138.045 13.0276 138.053 13.0746 138.053 13.1592V15.5682H140.031Z" fill="#CBD8FF"/>
        <path d="M151.218 18.8472H141.098V20.217H151.218V18.8472Z" fill="#CBD8FF"/>
        <path d="M152.197 11.329H163.529L163.636 14.7339H163.157C162.922 13.6647 162.624 12.9676 162.261 12.6444C161.898 12.3212 161.137 12.1595 159.976 12.1595H158.86V22.4174C158.86 23.1897 158.98 23.6689 159.222 23.853C159.463 24.0391 159.993 24.1593 160.808 24.2176V24.5896H154.964V24.2176C155.814 24.1537 156.342 24.0146 156.55 23.7985C156.759 23.5843 156.864 23.0469 156.864 22.1825V12.1595H155.739C154.63 12.1595 153.875 12.3211 153.472 12.6406C153.07 12.96 152.768 13.6572 152.567 14.7339H152.078L152.197 11.329Z" fill="#CBD8FF"/>
        <path d="M164.254 19.5555L177.437 1.1462H170.507C168.765 1.1462 167.527 1.58029 166.792 2.45218C166.353 2.9708 166.005 3.86711 165.749 5.13924H164.972L165.573 0.00183105H181.442V0.340108L168.258 18.7494H176.058C177.828 18.7494 179.117 18.3323 179.929 17.5017C180.433 16.9737 180.887 16.0097 181.293 14.6098H181.998L181.25 19.8938H164.25V19.5555H164.254Z" fill="#CBD8FF"/>
    </g>
</svg>
