<svg width="420" height="88" viewBox="0 0 420 88" fill="none" xmlns="http://www.w3.org/2000/svg">
	<path fill-rule="evenodd" clip-rule="evenodd" d="M5.58701 59.923C6.11028 59.6338 6.69811 59.4814 7.29599 59.48C7.46399 59.48 7.665 59.49 7.896 59.512C8.11906 59.5326 8.34076 59.566 8.56 59.612C8.602 59.4427 8.67601 59.2 8.78201 58.884C8.87987 58.5818 9.0181 58.2942 9.19299 58.029C10.2057 56.215 11.2187 54.3897 12.232 52.553C13.2453 50.7163 14.3637 48.7853 15.587 46.76C15.6939 46.578 15.8336 46.4173 15.999 46.286C16.0666 46.3054 16.1283 46.3416 16.1781 46.3913C16.228 46.4409 16.2644 46.5024 16.284 46.57C17.8447 48.6807 19.5327 50.8333 21.348 53.028C23.1633 55.2227 24.936 57.2893 26.666 59.228C28.301 61.0879 30.1021 62.795 32.047 64.328C33.5985 65.5461 35.2745 66.5966 37.047 67.462C39.7277 68.7774 42.6711 69.4696 45.657 69.487C47.632 69.4931 49.5997 69.2485 51.513 68.759C53.1311 68.381 54.6796 67.7509 56.102 66.892C56.1637 66.8593 56.2181 66.8143 56.2618 66.7598C56.3055 66.7052 56.3375 66.6424 56.356 66.575C56.356 66.275 56.186 66.237 55.849 66.449C54.6405 67.2535 53.3017 67.8426 51.892 68.19C50.2518 68.6349 48.5595 68.8582 46.86 68.854C45.807 68.8626 44.7561 68.7566 43.726 68.538C42.7213 68.3075 41.7448 67.9678 40.814 67.525C39.7267 67.0013 38.6977 66.3645 37.744 65.625C36.5118 64.6721 35.3283 63.6578 34.198 62.586C31.0366 59.6997 28.0757 56.6012 25.336 53.312C23.014 50.4633 20.988 47.8783 19.258 45.557C19.2676 45.4783 19.2955 45.403 19.3394 45.337C19.3833 45.271 19.4421 45.2162 19.511 45.177C20.8617 44.2057 22.2333 43.2667 23.626 42.36C25.0187 41.4534 26.3483 40.5987 27.615 39.796C29.935 38.3614 31.8973 37.169 33.502 36.219C35.1067 35.269 36.4467 34.4987 37.522 33.908C38.598 33.318 39.4313 32.875 40.022 32.579C40.4485 32.3527 40.893 32.162 41.351 32.009C41.392 31.9685 41.42 31.9167 41.4312 31.8602C41.4424 31.8037 41.4364 31.7451 41.414 31.692C41.1194 31.608 40.8347 31.5237 40.56 31.439C40.3054 31.3636 40.0609 31.2576 39.832 31.123H39.578C38.9894 31.409 38.4281 31.7481 37.901 32.136C36.951 32.7687 35.8957 33.4753 34.735 34.256L31.349 36.535C30.251 37.2737 29.4913 37.7697 29.07 38.023C27.2973 39.205 25.3557 40.4607 23.245 41.79C21.1343 43.1193 18.982 44.438 16.788 45.746C16.733 45.816 16.6587 45.8683 16.5743 45.8966C16.4899 45.9248 16.3991 45.9277 16.313 45.905C16.213 45.841 16.239 45.662 16.413 45.367C17.9737 42.7497 19.377 40.4073 20.623 38.34C21.869 36.2727 23.0403 34.3727 24.137 32.64C24.2069 32.4957 24.3142 32.3727 24.4477 32.2837C24.5811 32.1948 24.7359 32.1431 24.896 32.134C25.276 32.092 25.7297 32.0587 26.257 32.034C26.7844 32.0093 27.1537 31.9987 27.365 32.002C27.4449 31.9322 27.4958 31.8349 27.5077 31.7294C27.5195 31.6239 27.4915 31.5178 27.429 31.432C25.7397 31.5593 24.3257 31.6437 23.187 31.685C22.0483 31.7263 20.8243 31.7477 19.515 31.749C19.177 31.749 18.871 31.739 18.597 31.717C18.323 31.695 18.08 31.685 17.869 31.685C17.363 31.644 16.769 31.591 16.097 31.527C15.5858 31.4892 15.0778 31.4153 14.577 31.306C14.4057 31.2831 14.2481 31.2002 14.1322 31.0721C14.0163 30.9439 13.9496 30.7787 13.944 30.606C13.8792 30.6202 13.818 30.6472 13.7637 30.6853C13.7095 30.7234 13.6633 30.7719 13.628 30.828C13.495 30.9843 13.3784 31.1539 13.28 31.334C13.174 31.524 13.079 31.714 12.995 31.904C12.9376 32.0139 12.8949 32.1309 12.868 32.252C12.868 32.5053 13.1013 32.632 13.568 32.632C14.6466 32.6259 15.7241 32.5625 16.796 32.442C17.9525 32.3171 19.1148 32.2536 20.278 32.252C20.489 32.252 20.595 32.316 20.595 32.442C20.597 32.46 20.5952 32.4782 20.5897 32.4955C20.5842 32.5127 20.5751 32.5285 20.563 32.542C20.551 32.5555 20.5419 32.5714 20.5364 32.5886C20.5309 32.6058 20.529 32.624 20.531 32.642C19.7717 34.204 18.9487 35.85 18.062 37.58C17.1753 39.31 16.2363 41.0613 15.245 42.834C14.253 44.6073 13.2507 46.359 12.238 48.089C11.2253 49.819 10.2337 51.465 9.263 53.027C8.20433 54.713 7.22034 56.1993 6.311 57.486C5.40167 58.7727 4.63133 59.796 4 60.556C4 60.683 4.127 60.746 4.38 60.746C4.74218 60.417 5.14842 60.14 5.58701 59.923ZM82.658 57.19C82.4963 56.6694 82.2507 56.1786 81.931 55.737C81.6918 55.4015 81.3788 55.1254 81.016 54.93C80.7468 54.7848 80.4561 54.6835 80.155 54.63C79.833 54.81 79.3847 55.0253 78.81 55.276C78.2354 55.5267 77.6167 55.7957 76.954 56.083L74.963 56.944C74.2963 57.2313 73.6963 57.4823 73.163 57.697C72.2261 58.0798 71.3546 58.6065 70.58 59.258C69.8972 59.8078 69.2502 60.4007 68.643 61.033C67.6764 62.106 66.7777 63.2382 65.952 64.423C65.1632 65.5476 64.4532 66.7254 63.827 67.948C63.2627 69.0445 62.7943 70.1878 62.427 71.365C62.1027 72.3742 61.9304 73.4261 61.916 74.486C61.8773 75.3264 62.063 76.162 62.454 76.907C62.7713 77.4751 63.224 77.9561 63.772 78.307C64.2918 78.6298 64.869 78.8491 65.472 78.953C66.0223 79.0553 66.5803 79.1096 67.14 79.115C68.5334 79.1077 69.9061 78.7759 71.149 78.146C72.4999 77.4714 73.7497 76.6111 74.862 75.59C76.0612 74.4944 77.1433 73.2772 78.091 71.958C79.0637 70.6172 79.9188 69.1949 80.647 67.707C81.3387 66.3059 81.9075 64.8474 82.347 63.348C82.7348 62.0738 82.9431 60.7517 82.966 59.42C82.9809 58.6651 82.8769 57.9126 82.658 57.19ZM79.483 67.39C78.8087 69.3901 77.8383 71.2778 76.604 72.99C75.5278 74.5001 74.188 75.8036 72.649 76.838C71.3601 77.7365 69.8338 78.2327 68.263 78.264C67.7726 78.2821 67.2845 78.1872 66.8366 77.9866C66.3887 77.786 65.993 77.485 65.68 77.107C64.9877 76.189 64.6446 75.0548 64.712 73.907C64.7272 73.1018 64.8081 72.2991 64.954 71.507C65.1555 70.4188 65.4712 69.3549 65.896 68.333C66.4226 67.0466 67.0523 65.8049 67.779 64.62C68.6564 63.1928 69.6651 61.8507 70.792 60.611C71.4452 59.8453 72.1859 59.159 72.999 58.566C73.67 58.0771 74.3809 57.6452 75.124 57.275C75.6975 56.9854 76.3011 56.7597 76.924 56.602C77.3112 56.4993 77.708 56.4363 78.108 56.414C78.5352 56.3849 78.9599 56.4985 79.3154 56.7371C79.6709 56.9757 79.9371 57.3257 80.072 57.732C80.4256 58.6871 80.5989 59.6996 80.583 60.718C80.5937 62.987 80.2218 65.2416 79.483 67.387V67.39ZM170.511 24.693C170.426 24.63 170.342 24.661 170.258 24.793C169.252 26.0488 168.184 27.2533 167.058 28.402C166.025 29.4618 164.937 30.4656 163.797 31.409C162.877 32.1833 161.88 32.8618 160.822 33.434C160.088 33.8626 159.264 34.112 158.416 34.162C158.205 34.1913 157.99 34.1724 157.787 34.1068C157.584 34.0412 157.399 33.9305 157.245 33.783C157.048 33.5064 156.948 33.1724 156.96 32.833C157.127 31.2726 157.589 29.7581 158.321 28.37C159.228 26.366 160.653 23.6543 162.595 20.235C162.848 20.235 163.228 20.257 163.734 20.298C164.12 20.3197 164.502 20.3834 164.874 20.488C164.9 20.4917 164.926 20.4893 164.951 20.481C164.976 20.4728 164.998 20.4589 165.016 20.4405C165.035 20.4221 165.049 20.3996 165.057 20.3748C165.065 20.3501 165.068 20.3238 165.064 20.298C165.049 20.2197 165.01 20.1478 164.954 20.0915C164.897 20.0352 164.825 19.9971 164.747 19.982C164.535 19.94 164.219 19.898 163.797 19.855C163.375 19.812 163.059 19.792 162.848 19.792C163.059 19.455 163.259 19.127 163.448 18.811C163.615 18.5235 163.816 18.2575 164.048 18.019L163.921 17.956L162.148 18.462C161.96 18.5613 161.79 18.6896 161.642 18.842C161.409 19.1078 161.217 19.4068 161.072 19.729C159.258 19.741 157.483 20.2557 155.944 21.216C154.321 22.1894 152.84 23.3823 151.544 24.761C150.326 26.0356 149.292 27.4742 148.473 29.035C147.819 30.1559 147.429 31.4115 147.334 32.706C147.308 32.8866 147.325 33.0707 147.382 33.2438C147.44 33.4169 147.537 33.5743 147.666 33.7033C147.795 33.8324 147.952 33.9296 148.125 33.9874C148.298 34.0451 148.482 34.0618 148.663 34.036C149.385 33.995 150.083 33.7657 150.689 33.371C151.497 32.8932 152.26 32.3423 152.968 31.725C153.753 31.0458 154.493 30.3163 155.184 29.541C155.901 28.741 156.534 27.9813 157.084 27.262C156.433 28.2681 155.892 29.3408 155.47 30.462C155.162 31.2185 154.98 32.0205 154.932 32.836C154.911 33.4065 155.09 33.9662 155.438 34.419C155.666 34.6518 155.945 34.8297 156.252 34.9394C156.559 35.049 156.887 35.0875 157.211 35.052C158.333 35.012 159.429 34.7082 160.411 34.165C161.663 33.5137 162.841 32.7284 163.924 31.823C165.157 30.8046 166.33 29.7162 167.438 28.563C168.598 27.363 169.665 26.1707 170.638 24.986C170.643 24.9304 170.634 24.8745 170.612 24.8233C170.59 24.7721 170.555 24.7273 170.511 24.693ZM160.825 20.23C160.319 21.116 159.749 22.129 159.116 23.269C158.483 24.409 157.828 25.485 157.153 26.497C156.574 27.3688 155.929 28.1943 155.222 28.966C154.58 29.674 153.893 30.3401 153.165 30.96C152.595 31.4517 151.993 31.9067 151.365 32.322C151.023 32.5853 150.62 32.7592 150.194 32.828C149.94 32.828 149.814 32.66 149.814 32.322C149.93 31.2811 150.242 30.2715 150.732 29.346C151.399 27.9031 152.215 26.5345 153.169 25.263C154.159 23.9153 155.33 22.7115 156.651 21.686C157.81 20.727 159.262 20.1912 160.766 20.167L160.825 20.23ZM194.185 73.312C194.1 73.249 194.016 73.281 193.932 73.407C192.927 74.6631 191.859 75.8676 190.732 77.016C189.7 78.0755 188.611 79.0793 187.472 80.023C186.551 80.7971 185.554 81.4759 184.496 82.049C183.763 82.4771 182.939 82.7265 182.091 82.777C181.88 82.8063 181.664 82.7873 181.461 82.7215C181.258 82.6557 181.073 82.5447 180.919 82.397C180.722 82.1205 180.621 81.7864 180.634 81.447C180.802 79.8866 181.264 78.3722 181.996 76.984C182.903 74.98 184.327 72.2683 186.269 68.849C186.522 68.849 186.901 68.8703 187.408 68.913C187.794 68.9338 188.176 68.9972 188.548 69.102C188.574 69.1057 188.6 69.1033 188.625 69.0951C188.649 69.0869 188.672 69.0731 188.69 69.0548C188.708 69.0365 188.722 69.0141 188.731 68.9895C188.739 68.9649 188.742 68.9387 188.738 68.913C188.723 68.8345 188.685 68.7624 188.628 68.7059C188.572 68.6494 188.499 68.6111 188.421 68.596C188.209 68.554 187.893 68.5117 187.472 68.469C187.049 68.428 186.733 68.406 186.522 68.406C186.733 68.069 186.933 67.741 187.122 67.425C187.289 67.1377 187.49 66.872 187.722 66.634L187.595 66.57L185.823 67.077C185.635 67.1754 185.463 67.3037 185.316 67.457C185.083 67.7224 184.891 68.021 184.746 68.343C182.932 68.355 181.158 68.8698 179.619 69.83C177.996 70.8041 176.516 71.9973 175.219 73.376C174.001 74.6502 172.967 76.0885 172.148 77.649C171.494 78.7703 171.104 80.0262 171.009 81.321C170.983 81.5015 171 81.6855 171.058 81.8585C171.115 82.0315 171.212 82.1887 171.341 82.3176C171.47 82.4465 171.628 82.5437 171.801 82.6014C171.973 82.6591 172.157 82.6757 172.338 82.65C173.06 82.609 173.758 82.3797 174.364 81.985C175.173 81.5075 175.935 80.9565 176.643 80.339C177.428 79.6598 178.168 78.9303 178.859 78.155C179.576 77.355 180.209 76.5953 180.759 75.876C180.108 76.8821 179.567 77.9549 179.145 79.076C178.837 79.8325 178.655 80.6345 178.607 81.45C178.586 82.0205 178.765 82.5803 179.113 83.033C179.341 83.2658 179.62 83.4437 179.927 83.5533C180.234 83.663 180.562 83.7015 180.886 83.666C182.007 83.626 183.104 83.3224 184.086 82.78C185.338 82.1283 186.516 81.3427 187.599 80.437C188.832 79.4186 190.005 78.3301 191.113 77.177C192.273 75.977 193.34 74.7847 194.313 73.6C194.317 73.5455 194.308 73.4907 194.286 73.4406C194.264 73.3904 194.231 73.3463 194.188 73.312H194.185ZM184.499 68.849C183.993 69.7363 183.423 70.7493 182.79 71.888C182.157 73.0267 181.502 74.103 180.827 75.117C180.248 75.9882 179.603 76.8136 178.897 77.586C178.254 78.2933 177.566 78.9593 176.839 79.58C176.268 80.0714 175.667 80.526 175.039 80.941C174.697 81.2043 174.294 81.3782 173.868 81.447C173.614 81.447 173.488 81.279 173.488 80.941C173.605 79.9003 173.916 78.8908 174.406 77.965C175.072 76.5221 175.889 75.1535 176.843 73.882C177.833 72.5344 179.004 71.3305 180.325 70.305C181.484 69.3462 182.936 68.8106 184.44 68.786L184.499 68.849ZM138.384 60.005C138.004 60.118 137.618 60.2078 137.227 60.274C136.814 60.347 136.427 60.418 136.07 60.49C135.244 61.064 134.284 61.6917 133.191 62.373C132.098 63.0543 130.986 63.736 129.855 64.418C128.725 65.1 127.622 65.7367 126.545 66.328C125.468 66.9193 124.518 67.4307 123.694 67.862C123.69 68.0428 123.708 68.2234 123.747 68.4C123.778 68.534 123.833 68.6613 123.909 68.776C124.842 68.2033 125.802 67.6117 126.788 67.001C127.774 66.3903 128.741 65.7904 129.688 65.201C130.638 64.609 131.544 64.044 132.406 63.506C133.268 62.968 134.039 62.5014 134.72 62.106C134.741 62.0686 134.773 62.0383 134.811 62.0191C134.849 61.9999 134.893 61.9925 134.935 61.998C134.966 62.0257 134.986 62.0644 134.989 62.106V62.156C134.987 62.1765 134.982 62.1965 134.973 62.2149C134.963 62.2333 134.951 62.2496 134.935 62.263C134.038 63.5203 133.061 64.9203 132.002 66.463C130.943 68.0057 129.921 69.548 128.935 71.09C127.948 72.6327 127.033 74.1217 126.191 75.557C125.349 76.9923 124.676 78.2297 124.173 79.269C123.792 80.0009 123.59 80.8121 123.581 81.637C123.586 82.2612 123.815 82.8629 124.227 83.332C124.657 83.852 125.177 84.5067 125.787 85.296C125.895 85.439 126.002 85.431 126.11 85.269C126.136 85.2377 126.154 85.2007 126.162 85.161C126.171 85.1214 126.17 85.0803 126.159 85.0411C126.149 85.0019 126.129 84.9659 126.102 84.9359C126.074 84.906 126.04 84.8831 126.002 84.869C125.606 84.3629 125.397 83.7356 125.41 83.093C125.415 82.6219 125.469 82.1527 125.572 81.693C125.71 81.1101 125.928 80.5489 126.218 80.025C127.796 76.9757 129.616 73.747 131.679 70.339C133.742 66.931 136.011 63.541 138.486 60.169L138.384 60.005ZM284.799 9.10501C284.419 9.21801 284.033 9.30782 283.642 9.37399C283.23 9.44599 282.845 9.51769 282.486 9.58902C281.66 10.1644 280.7 10.7923 279.607 11.473C278.514 12.1537 277.401 12.8353 276.27 13.518C275.14 14.1993 274.037 14.836 272.961 15.428C271.885 16.02 270.934 16.531 270.109 16.961C270.105 17.1422 270.123 17.3232 270.163 17.5C270.194 17.6338 270.249 17.7611 270.324 17.876C271.257 17.3033 272.217 16.7113 273.203 16.1C274.189 15.4887 275.158 14.8887 276.109 14.3L278.826 12.605C279.687 12.067 280.459 11.6004 281.14 11.205C281.161 11.1677 281.193 11.1376 281.232 11.1184C281.27 11.0992 281.313 11.0917 281.356 11.097C281.387 11.1246 281.406 11.1634 281.409 11.205V11.256C281.408 11.2765 281.402 11.2965 281.393 11.3148C281.384 11.3332 281.371 11.3496 281.356 11.363C280.458 12.619 279.48 14.019 278.423 15.563C277.366 17.107 276.343 18.6497 275.356 20.191C274.369 21.7343 273.454 23.223 272.611 24.657C271.768 26.091 271.095 27.3287 270.593 28.37C270.213 29.102 270.01 29.9132 270.002 30.738C270.007 31.362 270.236 31.9635 270.647 32.433C271.078 32.953 271.598 33.6077 272.208 34.397C272.315 34.5397 272.422 34.5307 272.531 34.37C272.557 34.3386 272.574 34.3016 272.583 34.262C272.591 34.2224 272.59 34.1814 272.58 34.1423C272.569 34.1032 272.549 34.0672 272.522 34.0372C272.495 34.0073 272.461 33.9842 272.423 33.97C272.027 33.4644 271.818 32.8373 271.831 32.195C271.835 31.7239 271.89 31.2547 271.993 30.795C272.131 30.2122 272.348 29.6509 272.638 29.127C274.216 26.0783 276.037 22.8497 278.1 19.441C280.163 16.0323 282.432 12.6423 284.907 9.271L284.799 9.10501ZM312.694 73.305C312.609 73.242 312.525 73.274 312.441 73.4C311.436 74.6561 310.368 75.8606 309.241 77.009C308.209 78.0685 307.12 79.0723 305.981 80.016C305.06 80.7898 304.063 81.4686 303.006 82.042C302.272 82.4701 301.448 82.7195 300.6 82.77C300.389 82.7993 300.174 82.7803 299.971 82.7144C299.768 82.6486 299.583 82.5377 299.429 82.39C299.232 82.1135 299.132 81.7794 299.144 81.44C299.311 79.8796 299.773 78.3652 300.505 76.977C301.412 74.973 302.836 72.2613 304.778 68.842C305.031 68.842 305.411 68.8633 305.918 68.906C306.303 68.9269 306.685 68.9903 307.057 69.095C307.083 69.0989 307.109 69.0967 307.134 69.0885C307.159 69.0804 307.181 69.0666 307.199 69.0482C307.218 69.0299 307.232 69.0075 307.24 68.9828C307.248 68.9581 307.251 68.9318 307.247 68.906C307.232 68.8275 307.194 68.7554 307.137 68.6989C307.081 68.6424 307.008 68.6042 306.93 68.589C306.719 68.547 306.402 68.505 305.981 68.462C305.56 68.419 305.242 68.399 305.031 68.399C305.242 68.062 305.443 67.734 305.631 67.418C305.798 67.1306 305.999 66.865 306.231 66.627L306.105 66.563L304.332 67.07C304.144 67.1689 303.973 67.2972 303.825 67.45C303.592 67.7153 303.4 68.0139 303.256 68.336C301.442 68.3479 299.667 68.8626 298.128 69.823C296.505 70.7971 295.025 71.9904 293.728 73.369C292.51 74.643 291.477 76.0813 290.658 77.642C290.003 78.763 289.613 80.0191 289.518 81.314C289.492 81.4946 289.509 81.6787 289.567 81.8518C289.624 82.0249 289.722 82.1821 289.851 82.3111C289.98 82.44 290.137 82.5371 290.31 82.5948C290.483 82.6524 290.667 82.6689 290.848 82.643C291.57 82.6018 292.268 82.3726 292.874 81.978C293.682 81.5 294.445 80.949 295.153 80.332C295.938 79.6525 296.678 78.923 297.368 78.148C298.085 77.348 298.718 76.5883 299.268 75.869C298.617 76.8751 298.076 77.9478 297.654 79.069C297.346 79.8255 297.164 80.6275 297.116 81.443C297.095 82.0135 297.274 82.5732 297.622 83.026C297.85 83.2587 298.129 83.4366 298.436 83.5463C298.743 83.6559 299.071 83.6944 299.395 83.659C300.516 83.6191 301.613 83.3156 302.595 82.773C303.847 82.1211 305.026 81.3355 306.109 80.43C307.342 79.4118 308.515 78.3234 309.622 77.17C310.782 75.97 311.849 74.7777 312.822 73.593C312.825 73.5396 312.815 73.4863 312.793 73.4374C312.772 73.3885 312.739 73.3456 312.697 73.312L312.694 73.305ZM303.009 68.842C302.502 69.7293 301.932 70.7423 301.299 71.881C300.666 73.0197 300.012 74.096 299.337 75.11C298.757 75.981 298.112 76.8064 297.406 77.579C296.763 78.2866 296.076 78.9526 295.348 79.573C294.777 80.0644 294.176 80.519 293.548 80.934C293.206 81.1973 292.803 81.3712 292.377 81.44C292.124 81.44 291.997 81.272 291.997 80.934C292.114 79.8933 292.426 78.8838 292.915 77.958C293.582 76.5153 294.399 75.1468 295.352 73.875C296.342 72.5276 297.514 71.3238 298.834 70.298C299.993 69.3392 301.445 68.8035 302.949 68.779L303.009 68.842ZM258.409 59.998C258.029 60.111 257.643 60.2008 257.252 60.267C256.84 60.34 256.452 60.411 256.096 60.483C255.27 61.057 254.31 61.6847 253.217 62.366C252.124 63.0473 251.011 63.729 249.88 64.411C248.75 65.093 247.647 65.7297 246.571 66.321C245.495 66.9123 244.544 67.4237 243.719 67.855C243.715 68.0359 243.733 68.2165 243.773 68.393C243.804 68.5269 243.858 68.6542 243.934 68.769C244.867 68.1963 245.827 67.6047 246.813 66.994C247.799 66.3834 248.768 65.7833 249.719 65.194L252.436 63.499C253.297 62.961 254.068 62.4943 254.75 62.099C254.771 62.0617 254.803 62.0316 254.842 62.0124C254.88 61.9931 254.923 61.9857 254.966 61.991C254.997 62.0187 255.016 62.0575 255.019 62.099V62.156C255.018 62.1765 255.012 62.1965 255.003 62.2148C254.994 62.2332 254.982 62.2496 254.966 62.263C254.068 63.5203 253.09 64.9203 252.033 66.463C250.976 68.0057 249.953 69.548 248.966 71.09C247.979 72.6327 247.064 74.1217 246.221 75.557C245.378 76.9923 244.706 78.2297 244.203 79.269C243.823 80.001 243.62 80.8122 243.612 81.637C243.617 82.2611 243.846 82.8627 244.257 83.332C244.688 83.852 245.209 84.5067 245.818 85.296C245.925 85.439 246.033 85.431 246.141 85.269C246.167 85.2377 246.185 85.2007 246.193 85.161C246.202 85.1214 246.201 85.0803 246.19 85.0411C246.18 85.0019 246.16 84.9659 246.133 84.9359C246.105 84.906 246.071 84.8831 246.033 84.869C245.637 84.3629 245.428 83.7356 245.441 83.093C245.446 82.6219 245.5 82.1527 245.603 81.693C245.741 81.1101 245.958 80.5489 246.248 80.025C247.826 76.9757 249.647 73.747 251.71 70.339C253.773 66.931 256.042 63.541 258.517 60.169L258.409 59.998ZM335.709 20.513C335.024 20.3275 334.319 20.2268 333.609 20.213C331.999 20.1819 330.442 20.7862 329.275 21.895C328.075 23.0157 327.475 24.7423 327.475 27.075C327.406 28.0027 327.524 28.9347 327.821 29.8162C328.118 30.6976 328.589 31.5106 329.206 32.207C329.783 32.7803 330.47 33.2296 331.227 33.5273C331.984 33.8249 332.793 33.9647 333.606 33.938C335.224 33.9743 336.792 33.3776 337.977 32.275C339.177 31.1657 339.777 29.4367 339.777 27.088C339.85 26.2217 339.742 25.3496 339.459 24.5277C339.176 23.7057 338.724 22.9521 338.132 22.315H341.711V20.51H335.711L335.709 20.513ZM336.543 23.474C337.226 24.5469 337.565 25.8031 337.514 27.074C337.597 28.3971 337.224 29.7085 336.457 30.79C336.112 31.1979 335.684 31.5268 335.201 31.7541C334.717 31.9813 334.191 32.1017 333.657 32.1071C333.123 32.1124 332.594 32.0025 332.106 31.7849C331.619 31.5672 331.184 31.247 330.831 30.846C330.042 29.7587 329.663 28.427 329.761 27.087C329.662 25.7386 330.052 24.3996 330.861 23.316C331.19 22.9153 331.604 22.5938 332.074 22.3754C332.544 22.1569 333.057 22.0471 333.575 22.054C334.152 22.0154 334.729 22.1265 335.25 22.3765C335.772 22.6265 336.22 23.007 336.551 23.481L336.543 23.474ZM367.043 32.245C365.912 32.8208 364.652 33.0985 363.384 33.052C362.92 33.0843 362.455 32.9915 362.039 32.783C361.916 32.7236 361.811 32.6324 361.735 32.5188C361.66 32.4052 361.616 32.2733 361.608 32.137C361.608 31.5283 362.066 31.1337 362.981 30.953C364.289 30.7444 365.612 30.6544 366.936 30.684C367.33 30.684 367.76 30.694 368.227 30.711C368.569 30.7196 368.911 30.7466 369.25 30.792C368.564 31.3493 367.826 31.8396 367.046 32.256L367.043 32.245ZM381.143 33.645C381.276 33.267 381.384 32.8804 381.465 32.488C381.573 32.004 381.665 31.583 381.735 31.223C381.753 31.025 381.698 30.8272 381.578 30.6682C381.459 30.5092 381.284 30.4004 381.089 30.363C379.823 30.0068 378.525 29.7724 377.214 29.663C375.528 29.4843 373.788 29.323 371.995 29.179C373.25 28.175 374.64 26.973 376.165 25.573C377.69 24.173 379.123 22.7397 380.465 21.273C381.706 19.9358 382.831 18.4957 383.828 16.968C384.609 15.898 385.075 14.6304 385.173 13.309C385.202 12.6598 385.073 12.0132 384.797 11.425C384.572 10.989 384.238 10.6184 383.828 10.349C383.45 10.1053 383.03 9.93224 382.59 9.83801C382.183 9.75106 381.769 9.70582 381.353 9.703C380.377 9.69789 379.408 9.88053 378.501 10.241C377.615 10.5948 376.775 11.0559 376.001 11.614C375.221 12.1767 374.491 12.8068 373.821 13.497C373.14 14.197 372.53 14.8697 371.992 15.515C371.955 15.5693 371.94 15.6357 371.95 15.7007C371.96 15.7657 371.994 15.8244 372.046 15.865C372.153 15.955 372.26 15.928 372.369 15.784C372.799 15.246 373.247 14.7347 373.714 14.25C374.183 13.7638 374.696 13.3225 375.247 12.932C375.818 12.5306 376.443 12.2133 377.104 11.99C377.851 11.747 378.633 11.6291 379.418 11.641C379.878 11.6067 380.34 11.6732 380.772 11.8357C381.204 11.9982 381.595 12.2529 381.918 12.582C382.516 13.3361 382.813 14.2854 382.752 15.246C382.695 16.4669 382.304 17.6487 381.622 18.663C380.802 19.9886 379.856 21.232 378.797 22.376C377.626 23.6531 376.387 24.8655 375.084 26.008C373.739 27.192 372.492 28.2503 371.344 29.183C370.949 29.147 370.465 29.129 369.891 29.129H368.062C367.111 29.1229 366.162 29.2314 365.237 29.452C364.432 29.6393 363.655 29.9287 362.923 30.313C362.327 30.6199 361.789 31.0295 361.335 31.523C360.974 31.8913 360.763 32.3807 360.743 32.896C360.723 33.1116 360.783 33.327 360.913 33.5007C361.042 33.6745 361.231 33.7942 361.443 33.837C361.97 33.9704 362.513 34.034 363.057 34.026C363.643 34.016 364.224 33.9148 364.779 33.726C365.415 33.5187 366.036 33.2667 366.636 32.972C367.257 32.6706 367.859 32.3292 368.436 31.95C369.01 31.5733 369.53 31.2067 369.997 30.85C371.324 30.9567 372.57 31.109 373.737 31.307C374.904 31.505 375.97 31.7293 376.937 31.98C377.787 32.193 378.623 32.4626 379.437 32.787C380.013 33.0021 380.549 33.3113 381.024 33.702L381.143 33.645ZM403.128 13.181C403.444 13.181 403.528 13.324 403.366 13.609C402.699 14.8757 401.971 16.197 401.181 17.573C400.391 18.949 399.576 20.3577 398.736 21.799C397.897 23.239 397.042 24.687 396.172 26.143C395.302 27.599 394.44 29.0233 393.585 30.416C393.38 30.7326 393.205 31.0673 393.062 31.416C392.946 31.6866 392.882 31.9767 392.873 32.271C392.85 32.6155 392.96 32.9557 393.181 33.221C393.403 33.4535 393.681 33.6256 393.988 33.721C394.357 33.8381 394.741 33.9021 395.128 33.911C395.555 33.927 396.006 33.935 396.481 33.935C397.051 33.935 397.668 33.927 398.333 33.911C398.998 33.895 399.598 33.8553 400.133 33.792C400.323 33.666 400.37 33.539 400.275 33.413C400.087 33.4467 399.897 33.4625 399.706 33.46H399.136C398.569 33.4738 398.003 33.4181 397.45 33.294C397.1 33.2183 396.769 33.0731 396.477 32.867C396.27 32.7143 396.12 32.4968 396.05 32.249C395.984 32.0092 395.951 31.7617 395.95 31.513C395.994 31.0814 396.097 30.658 396.258 30.255C396.457 29.7413 396.687 29.2404 396.947 28.755C398.181 26.507 399.55 24.1013 401.054 21.538C402.558 18.9747 404.196 16.3473 405.968 13.656C406.08 13.4981 406.231 13.3716 406.406 13.2885C406.581 13.2053 406.775 13.1683 406.968 13.181C407.443 13.1503 407.981 13.1423 408.582 13.157C409.183 13.1717 409.753 13.164 410.292 13.134C411.608 13.1069 412.912 12.8827 414.161 12.469C415.16 12.1383 416.01 11.4654 416.561 10.569C416.674 10.3646 416.739 10.1372 416.751 9.90399C416.765 9.70363 416.715 9.50402 416.608 9.33401C416.389 8.88077 416.101 8.46442 415.754 8.10001C415.719 8.05193 415.668 8.01679 415.611 8C415.511 8 415.469 8.064 415.469 8.19C415.467 8.21562 415.47 8.24142 415.478 8.26584C415.486 8.29026 415.499 8.31277 415.516 8.332C415.555 8.43857 415.571 8.5519 415.564 8.66501C415.554 9.29061 415.298 9.88712 414.852 10.326C414.442 10.7812 413.961 11.1663 413.427 11.466C411.533 12.3734 409.449 12.8131 407.35 12.748H405.311C404.393 12.748 403.475 12.74 402.557 12.724C401.639 12.708 400.721 12.7 399.804 12.7C398.822 12.7 397.841 12.6923 396.86 12.677C395.969 12.6535 395.077 12.7249 394.201 12.89C393.471 13.0174 392.785 13.3269 392.207 13.79C391.583 14.2885 391.032 14.8718 390.569 15.523C390.066 16.2251 389.629 16.9723 389.263 17.755C388.881 18.5655 388.547 19.398 388.263 20.248C388.293 20.387 388.368 20.5121 388.477 20.604C388.555 20.651 388.627 20.612 388.69 20.485C389.226 19.0959 389.962 17.7922 390.874 16.615C391.604 15.6999 392.518 14.948 393.557 14.408C394.645 13.874 395.818 13.5355 397.023 13.408C398.528 13.2392 400.042 13.1598 401.557 13.17H403.124L403.128 13.181ZM375.887 68.681C376.373 68.4082 376.913 68.246 377.469 68.206C378.102 68.1433 378.947 68.1117 380.002 68.111C378.827 71.0934 377.204 73.8793 375.19 76.373C373.671 78.0397 372.025 78.7043 370.252 78.367C370.238 78.3559 370.221 78.3479 370.204 78.3435C370.186 78.3391 370.168 78.3384 370.15 78.3414C370.133 78.3444 370.116 78.3511 370.101 78.361C370.086 78.3709 370.073 78.3839 370.063 78.399C370.044 78.4475 370.041 78.5003 370.052 78.551C370.063 78.6016 370.089 78.6479 370.126 78.684C370.337 78.9374 370.622 79.243 370.98 79.601C371.295 79.9247 371.645 80.2115 372.025 80.456C372.766 80.3199 373.425 79.8997 373.861 79.285C374.7 78.345 375.462 77.3395 376.14 76.278C376.94 75.054 377.721 73.714 378.482 72.258C379.243 70.802 379.919 69.4197 380.508 68.111C381.015 68.111 381.585 68.1217 382.217 68.143L384.017 68.206C384.586 68.228 385.114 68.2494 385.599 68.27C386.084 68.291 386.454 68.301 386.707 68.301C386.454 68.513 386.179 68.744 385.884 69.001C385.61 69.2323 385.356 69.4862 385.124 69.76C384.618 70.436 384.101 71.2063 383.573 72.071C383.065 72.9007 382.6 73.7566 382.181 74.635C381.781 75.4797 381.443 76.2817 381.168 77.041C380.925 77.6467 380.786 78.289 380.756 78.941C380.746 79.3589 380.844 79.7724 381.041 80.141C381.161 80.3199 381.327 80.4619 381.523 80.5513C381.719 80.6407 381.936 80.6738 382.149 80.647C383.31 80.6261 384.437 80.2507 385.378 79.571C386.7 78.634 387.948 77.5976 389.113 76.471C389.137 76.4149 389.147 76.3537 389.141 76.293C389.135 76.2322 389.115 76.1738 389.081 76.123C389.018 76.059 388.923 76.091 388.796 76.218C387.906 77.1175 386.954 77.9529 385.947 78.718C385.311 79.2896 384.516 79.6541 383.668 79.763C383.529 79.7733 383.39 79.7514 383.262 79.699C383.133 79.6466 383.018 79.565 382.926 79.4608C382.834 79.3566 382.768 79.2325 382.732 79.0982C382.696 78.964 382.691 78.8232 382.719 78.687C382.745 77.804 382.894 76.9289 383.162 76.087C383.461 75.0642 383.82 74.0601 384.238 73.08C384.639 72.1311 385.104 71.2109 385.631 70.326C386.002 69.6651 386.448 69.049 386.96 68.49C387.299 68.3246 387.663 68.2177 388.037 68.174C388.32 68.1497 388.595 68.0634 388.841 67.9211C389.087 67.7789 389.299 67.5843 389.461 67.351C389.777 66.8843 390.125 66.3143 390.505 65.641C390.59 65.431 390.59 65.325 390.505 65.325C390.444 65.3415 390.389 65.3735 390.345 65.4178C390.3 65.4622 390.268 65.5174 390.252 65.578C390.057 66.02 389.724 66.3867 389.303 66.623C388.922 66.7785 388.514 66.8537 388.103 66.844C386.498 66.844 384.788 66.7704 382.975 66.623C381.162 66.4757 379.284 66.4017 377.341 66.401C376.976 66.4332 376.636 66.603 376.391 66.876C376.026 67.2246 375.707 67.6181 375.442 68.047C375.138 68.5262 374.863 69.0231 374.619 69.535C374.365 70.063 374.154 70.5377 373.986 70.959C373.976 71.005 373.984 71.0529 374.007 71.0938C374.03 71.1347 374.068 71.1657 374.112 71.181C374.166 71.1846 374.219 71.1712 374.264 71.1426C374.31 71.1141 374.345 71.0718 374.365 71.022C374.643 70.1146 375.169 69.3033 375.885 68.68L375.887 68.681Z" fill="white"/>
	<path d="M372.604 59H398V60.625H372.604V59Z" fill="white"/>
	<path d="M357.954 85L352.198 73.9731L348.545 75.5266L348 74.7233L354.485 71.9675L359.25 81.3243L372.72 59H374.19L358.764 85H357.954Z" fill="white"/>
	<rect x="330.999" y="46" width="84" height="2" fill="white"/>
	<path d="M374.001 2H406.001V4H374.001V2Z" fill="white"/>
	<path d="M355.542 34L348.289 20.4284L343.686 22.3405L343 21.3518L351.171 17.96L357.176 29.4761L374.148 2H376L356.562 34H355.542Z" fill="white"/>
	<rect x="235.999" y="46" width="84" height="2" fill="white"/>
	<path d="M210.999 46H226.999V48H210.999V46Z" fill="white"/>
	<path d="M217.999 39H219.999V55H217.999V39Z" fill="white"/>
	<rect x="265" y="72" width="16" height="2" fill="white"/>
	<rect x="145" y="72" width="16" height="2" fill="white"/>
	<rect x="116.999" y="46" width="84" height="2" fill="white"/>
	<rect x="91.999" y="49" width="16" height="2" fill="white"/>
	<rect x="91.999" y="42" width="16" height="2" fill="white"/>
</svg>
