<svg width="160" height="44" viewBox="0 0 160 44" fill="none" xmlns="http://www.w3.org/2000/svg">
    <path d="M12.6338 9.29202L12.6132 8.74118C12.6132 8.74118 12.5785 8.23122 12.3934 7.95428C12.2084 7.67735 11.9488 7.51769 11.7601 7.45111C11.5706 7.38376 11.4585 7.35576 11.213 7.34593C10.9674 7.33685 10.6813 7.33533 10.6813 7.33533L12.6338 9.29202ZM10.6813 11.2487C10.6813 11.2487 10.3952 11.2472 10.1497 11.2381C9.90413 11.2291 9.79205 11.2003 9.60255 11.133C9.41305 11.0656 9.15424 10.9067 8.96843 10.6298C8.78262 10.3528 8.74867 9.84288 8.74867 9.84288L8.72806 9.29202L10.6805 7.33533C10.6805 7.33533 10.3945 7.33685 10.149 7.34593C9.90341 7.35501 9.79133 7.38376 9.60183 7.45111C9.41233 7.51845 9.15348 7.67735 8.96767 7.95428C8.78185 8.23122 8.74795 8.74118 8.74795 8.74118L8.72729 9.29202L10.6813 11.2487ZM10.6813 11.2487C10.6813 11.2487 10.9674 11.2472 11.213 11.2381C11.4585 11.2291 11.5706 11.2003 11.7601 11.133C11.9496 11.0656 12.2084 10.9067 12.3934 10.6298C12.5785 10.3528 12.6132 9.84288 12.6132 9.84288L12.6338 9.29202L10.6813 11.2487ZM10.6813 7.33609L8.72878 9.29278L10.6813 11.2495L12.6338 9.29278L10.6813 7.33609ZM12.6346 13.2054L12.6139 12.6546C12.6139 12.6546 12.5793 12.1446 12.3942 11.8677C12.2091 11.5907 11.9496 11.4311 11.7608 11.3645C11.5713 11.2972 11.4592 11.2692 11.2137 11.2593C10.9681 11.2495 10.682 11.2487 10.682 11.2487L12.6346 13.2054ZM8.7295 13.2054L8.75016 12.6546C8.75016 12.6546 8.78484 12.1446 8.96992 11.8677C9.15499 11.5907 9.41453 11.4311 9.60403 11.3645C9.79353 11.2972 9.90562 11.2692 10.1512 11.2593C10.3967 11.2495 10.6828 11.2487 10.6828 11.2487L8.7295 13.2054L8.75016 13.7563C8.75016 13.7563 8.78484 14.2662 8.96992 14.5432C9.15499 14.8201 9.41453 14.9798 9.60403 15.0464C9.79353 15.1137 9.90562 15.1417 10.1512 15.1515C10.3967 15.1614 10.6828 15.1621 10.6828 15.1621L8.7295 13.2054ZM10.682 15.1614C10.682 15.1614 10.9681 15.1599 11.2137 15.1508C11.4592 15.1417 11.5713 15.1129 11.7608 15.0456C11.9503 14.9782 12.2091 14.8194 12.3942 14.5424C12.5793 14.2655 12.6139 13.7555 12.6139 13.7555L12.6346 13.2047L10.682 15.1614ZM10.682 11.2487L8.7295 13.2054L10.682 15.1621L12.6346 13.2054L10.682 11.2487Z" fill="white"/>
    <path d="M12.6346 19.3105L12.6139 18.7596C12.6139 18.7596 12.5793 18.2496 12.3942 17.9727C12.2091 17.6958 11.9496 17.5361 11.7601 17.4695C11.5706 17.4022 11.4585 17.3742 11.2129 17.3644C10.9674 17.3545 10.6813 17.3538 10.6813 17.3538L12.6346 19.3105ZM8.72949 19.3105L8.75015 18.7596C8.75015 18.7596 8.78483 18.2496 8.96991 17.9727C9.15498 17.6958 9.4145 17.5361 9.60326 17.4695C9.79276 17.4022 9.90484 17.3742 10.1504 17.3644C10.3959 17.3553 10.682 17.3538 10.682 17.3538L8.72949 19.3105L8.75015 19.8613C8.75015 19.8613 8.78483 20.3713 8.96991 20.6482C9.15498 20.9252 9.4145 21.0848 9.60326 21.1514C9.79276 21.2187 9.90484 21.2467 10.1504 21.2566C10.3959 21.2656 10.682 21.2672 10.682 21.2672L8.72949 19.3105ZM10.682 21.2672C10.682 21.2672 10.9681 21.2656 11.2137 21.2566C11.4592 21.2475 11.5713 21.2187 11.7608 21.1514C11.9503 21.0841 12.2091 20.9252 12.3949 20.6482C12.58 20.3713 12.6147 19.8613 12.6147 19.8613L12.6353 19.3105L10.682 21.2672ZM10.682 17.3545L8.72949 19.3112L10.682 21.2679L12.6346 19.3112L10.682 17.3545ZM12.6346 23.2238L12.6139 22.673C12.6139 22.673 12.5793 22.163 12.3942 21.8861C12.2091 21.6092 11.9496 21.4495 11.7601 21.3829C11.5706 21.3156 11.4585 21.2876 11.2129 21.2778C10.9674 21.2687 10.6813 21.2672 10.6813 21.2672L12.6346 23.2238ZM8.72949 23.2238L8.75015 22.673C8.75015 22.673 8.78483 22.163 8.96991 21.8861C9.15498 21.6092 9.41452 21.4495 9.60403 21.3829C9.79353 21.3156 9.90561 21.2876 10.1511 21.2778C10.3967 21.2687 10.6828 21.2672 10.6828 21.2672L8.72949 23.2238L8.75015 23.7747C8.75015 23.7747 8.78483 24.2847 8.96991 24.5616C9.15498 24.8385 9.41452 24.9982 9.60403 25.0648C9.79353 25.1321 9.90561 25.1601 10.1511 25.1699C10.3967 25.179 10.6828 25.1805 10.6828 25.1805L8.72949 23.2238ZM10.682 25.1798C10.682 25.1798 10.9681 25.1783 11.2137 25.1692C11.4592 25.1601 11.5713 25.1314 11.7608 25.064C11.9503 24.9967 12.2091 24.8378 12.3949 24.5608C12.58 24.2839 12.6147 23.7739 12.6147 23.7739L12.6353 23.2231L10.682 25.1798ZM10.682 21.2672L8.72949 23.2238L10.682 25.1805L12.6346 23.2238L10.682 21.2672Z" fill="white"/>
    <path d="M12.636 29.33L12.6154 28.7791C12.6154 28.7791 12.5808 28.2692 12.3957 27.9922C12.2106 27.7153 11.951 27.5556 11.7615 27.489C11.572 27.4217 11.4599 27.3937 11.2144 27.3839C10.9688 27.3748 10.6828 27.3733 10.6828 27.3733L12.636 29.33ZM8.73098 29.33L8.75163 28.7791C8.75163 28.7791 8.78627 28.2692 8.97135 27.9922C9.15643 27.7153 9.41601 27.5556 9.60551 27.489C9.79501 27.4217 9.90705 27.3937 10.1526 27.3839C10.3981 27.3741 10.6842 27.3733 10.6842 27.3733L8.73098 29.33L8.75163 29.8808C8.75163 29.8808 8.78627 30.3908 8.97135 30.6677C9.15643 30.9447 9.41601 31.1043 9.60551 31.1709C9.79501 31.2382 9.90705 31.2662 10.1526 31.2761C10.3981 31.2852 10.6842 31.2867 10.6842 31.2867L8.73098 29.33ZM10.6835 31.2867C10.6835 31.2867 10.9696 31.2852 11.2152 31.2761C11.4607 31.267 11.5728 31.2382 11.7623 31.1709C11.9518 31.1036 12.2106 30.9447 12.3964 30.6677C12.5815 30.3908 12.6161 29.8808 12.6161 29.8808L12.6368 29.33L10.6835 31.2867ZM10.6835 27.3741L8.73098 29.3307L10.6835 31.2874L12.636 29.3307L10.6835 27.3741ZM12.636 33.2434L12.6154 32.6925C12.6154 32.6925 12.5808 32.1825 12.3957 31.9056C12.2106 31.6287 11.951 31.469 11.7623 31.4024C11.5728 31.3351 11.4607 31.3071 11.2152 31.2973C10.9696 31.2874 10.6835 31.2867 10.6835 31.2867L12.636 33.2434ZM10.6835 35.1993C10.6835 35.1993 10.3974 35.1978 10.1519 35.1887C9.90633 35.1797 9.79425 35.1509 9.60475 35.0836C9.41524 35.0162 9.15644 34.8573 8.97063 34.5804C8.78555 34.3034 8.75087 33.7935 8.75087 33.7935L8.73026 33.2426L10.6828 31.2859C10.6828 31.2859 10.3967 31.2874 10.1511 31.2965C9.90561 31.3056 9.79353 31.3344 9.60403 31.4017C9.41452 31.469 9.15572 31.6279 8.96991 31.9049C8.78483 32.1818 8.75015 32.6918 8.75015 32.6918L8.72949 33.2426L10.6835 35.1993ZM10.6835 35.1993C10.6835 35.1993 10.9696 35.1978 11.2152 35.1887C11.4607 35.1797 11.5728 35.1509 11.7623 35.0836C11.9518 35.0162 12.2106 34.8573 12.3957 34.5804C12.5808 34.3034 12.6154 33.7935 12.6154 33.7935L12.636 33.2426L10.6835 35.1993ZM10.6835 31.2867L8.73098 33.2434L10.6835 35.2001L12.636 33.2434L10.6835 31.2867Z" fill="white"/>
    <path d="M18.4936 9.29007L18.473 8.73923C18.473 8.73923 18.4384 8.22927 18.2533 7.95233C18.0682 7.6754 17.8086 7.51574 17.6199 7.44915C17.4304 7.38181 17.3183 7.35381 17.0728 7.34397C16.8272 7.33414 16.5411 7.33337 16.5411 7.33337L18.4936 9.29007ZM14.5893 9.29083L14.61 8.73999C14.61 8.73999 14.6446 8.23 14.8297 7.95307C15.0148 7.67614 15.2743 7.5165 15.4638 7.44991C15.6533 7.38257 15.7654 7.35457 16.011 7.34473C16.2565 7.3349 16.5426 7.33414 16.5426 7.33414L14.5893 9.29083L14.61 9.84167C14.61 9.84167 14.6446 10.3517 14.8297 10.6286C15.0148 10.9055 15.2743 11.0652 15.4638 11.1318C15.6533 11.1991 15.7654 11.2271 16.011 11.2369C16.2565 11.2468 16.5426 11.2475 16.5426 11.2475L14.5893 9.29083ZM16.5411 11.2468C16.5411 11.2468 16.8272 11.2453 17.0728 11.2362C17.3183 11.2271 17.4304 11.1984 17.6199 11.131C17.8094 11.0637 18.0682 10.9048 18.2533 10.6278C18.4384 10.3509 18.473 9.84093 18.473 9.84093L18.4936 9.29007L16.5411 11.2468ZM16.5411 7.33414L14.5886 9.29083L16.5411 11.2468L18.4936 9.29083L16.5411 7.33414ZM22.4009 9.29159L22.3803 8.74075C22.3803 8.74075 22.3456 8.23077 22.1605 7.95383C21.9755 7.6769 21.7159 7.51724 21.5264 7.45065C21.3369 7.38331 21.2248 7.35533 20.9793 7.3455C20.7338 7.33642 20.4477 7.3349 20.4477 7.3349L22.4009 9.29159ZM18.4959 9.29159L18.5165 8.74075C18.5165 8.74075 18.5512 8.23077 18.7363 7.95383C18.9213 7.6769 19.1809 7.51724 19.3704 7.45065C19.5599 7.38331 19.672 7.35533 19.9175 7.3455C20.163 7.33642 20.4491 7.3349 20.4491 7.3349L18.4959 9.29159L18.5165 9.84243C18.5165 9.84243 18.5512 10.3524 18.7363 10.6294C18.9213 10.9063 19.1809 11.0659 19.3704 11.1325C19.5599 11.1999 19.672 11.2279 19.9175 11.2377C20.163 11.2468 20.4491 11.2483 20.4491 11.2483L18.4959 9.29159ZM20.4484 11.2475C20.4484 11.2475 20.7345 11.246 20.98 11.2369C21.2256 11.2278 21.3376 11.1991 21.5271 11.1318C21.7167 11.0644 21.9755 10.9055 22.1613 10.6286C22.3471 10.3517 22.381 9.84167 22.381 9.84167L22.4016 9.29083L20.4484 11.2475ZM20.4484 7.3349L18.4959 9.29159L20.4484 11.2475L22.4009 9.29159L20.4484 7.3349Z" fill="white"/>
    <path d="M28.2637 9.29239L28.2431 8.74155C28.2431 8.74155 28.2084 8.23156 28.0233 7.95463C27.8382 7.67769 27.5787 7.51803 27.3892 7.45145C27.1997 7.38411 27.0876 7.35611 26.8421 7.34627C26.5965 7.33643 26.3104 7.33569 26.3104 7.33569L28.2637 9.29239ZM24.3586 9.29239L24.3793 8.74155C24.3793 8.74155 24.4139 8.23156 24.599 7.95463C24.7841 7.67769 25.0436 7.51803 25.2324 7.45145C25.4219 7.38411 25.534 7.35611 25.7795 7.34627C26.0251 7.33643 26.3104 7.33569 26.3104 7.33569L24.3586 9.29239L24.3793 9.84323C24.3793 9.84323 24.4139 10.3532 24.599 10.6302C24.7841 10.9071 25.0436 11.0667 25.2324 11.1333C25.4219 11.2006 25.534 11.2286 25.7795 11.2385C26.0251 11.2483 26.3111 11.2491 26.3111 11.2491L24.3586 9.29239ZM26.3111 11.2491C26.3111 11.2491 26.5972 11.2468 26.8428 11.2377C27.0883 11.2286 27.2004 11.1999 27.3899 11.1325C27.5794 11.0652 27.8382 10.9063 28.024 10.6294C28.2091 10.3525 28.2438 9.84247 28.2438 9.84247L28.2644 9.29163L26.3111 11.2491ZM26.3104 7.33569L24.3586 9.29239L26.3111 11.2491L28.2637 9.29239L26.3104 7.33569ZM32.1709 9.29313L32.1503 8.74229C32.1503 8.74229 32.1156 8.23232 31.9306 7.95539C31.7455 7.67846 31.4859 7.5188 31.2972 7.45221C31.1077 7.38487 30.9956 7.35687 30.75 7.34703C30.5045 7.33719 30.2184 7.33643 30.2184 7.33643L32.1709 9.29313ZM30.2184 11.2498C30.2184 11.2498 29.9323 11.2483 29.6868 11.2392C29.4412 11.2302 29.3291 11.2014 29.1396 11.1341C28.9501 11.0667 28.6913 10.9078 28.5055 10.6309C28.3197 10.354 28.2858 9.84399 28.2858 9.84399L28.2651 9.29313L30.2184 7.33643C30.2184 7.33643 29.9316 7.33795 29.686 7.34703C29.4405 7.35611 29.3284 7.38487 29.1389 7.45221C28.9494 7.51955 28.6906 7.67846 28.5048 7.95539C28.319 8.23232 28.285 8.74229 28.285 8.74229L28.2651 9.29313L30.2184 11.2498ZM30.2184 11.2498C30.2184 11.2498 30.5045 11.2483 30.75 11.2392C30.9956 11.2302 31.1077 11.2014 31.2972 11.1341C31.4867 11.0667 31.7455 10.9078 31.9306 10.6309C32.1156 10.354 32.1503 9.84399 32.1503 9.84399L32.1709 9.29313L30.2184 11.2498ZM30.2184 7.33643L28.2659 9.29389L30.2184 11.2498L32.1709 9.29313L30.2184 7.33643Z" fill="white"/>
    <path d="M18.4958 19.3089L18.4752 18.758C18.4752 18.758 18.4405 18.2481 18.2555 17.9711C18.0704 17.6942 17.8109 17.5345 17.6214 17.468C17.4319 17.4006 17.3198 17.3726 17.0742 17.3628C16.8287 17.3537 16.5426 17.3522 16.5426 17.3522L18.4958 19.3089ZM14.5908 19.3089L14.6115 18.758C14.6115 18.758 14.6461 18.2481 14.8312 17.9711C15.0163 17.6942 15.2758 17.5345 15.4653 17.468C15.6548 17.4006 15.7669 17.3726 16.0124 17.3628C16.258 17.3529 16.5441 17.3522 16.5441 17.3522L14.5908 19.3089L14.6115 19.8597C14.6115 19.8597 14.6461 20.3697 14.8312 20.6466C15.0163 20.9236 15.2758 21.0832 15.4653 21.1498C15.6548 21.2172 15.7669 21.2452 16.0124 21.255C16.258 21.2648 16.5441 21.2656 16.5441 21.2656L14.5908 19.3089ZM16.5434 21.2648C16.5434 21.2648 16.8294 21.2633 17.0749 21.2542C17.3205 21.2452 17.4326 21.2164 17.6221 21.149C17.8116 21.0817 18.0704 20.9228 18.2562 20.6459C18.442 20.369 18.4759 19.859 18.4759 19.859L18.4966 19.3081L16.5434 21.2648ZM16.5426 17.3522L14.5908 19.3089L16.5434 21.2648L18.4958 19.3089L16.5426 17.3522ZM22.4031 19.3096L22.3825 18.7588C22.3825 18.7588 22.3478 18.2488 22.1627 17.9719C21.9777 17.6949 21.7181 17.5353 21.5286 17.4687C21.3391 17.4014 21.227 17.3734 20.9815 17.3635C20.736 17.3537 20.4499 17.3529 20.4499 17.3529L22.4031 19.3096ZM18.4981 19.3096L18.5187 18.7588C18.5187 18.7588 18.5534 18.2488 18.7385 17.9719C18.9235 17.6949 19.1831 17.5353 19.3719 17.4687C19.5614 17.4014 19.6734 17.3734 19.919 17.3635C20.1645 17.3537 20.4499 17.3529 20.4499 17.3529L18.4981 19.3096L18.5187 19.8605C18.5187 19.8605 18.5534 20.3705 18.7385 20.6474C18.9235 20.9243 19.1831 21.084 19.3719 21.1506C19.5614 21.2179 19.6734 21.2459 19.919 21.2558C20.1645 21.2656 20.4506 21.2663 20.4506 21.2663L18.4981 19.3096ZM20.4506 21.2663C20.4506 21.2663 20.7367 21.2648 20.9822 21.2558C21.2278 21.2467 21.3398 21.2179 21.5293 21.1506C21.7188 21.0832 21.9776 20.9243 22.1635 20.6474C22.3493 20.3705 22.3832 19.8605 22.3832 19.8605L22.4031 19.3096L20.4506 21.2663ZM20.4506 17.3537L18.4981 19.3096L20.4506 21.2663L22.4031 19.3096L20.4506 17.3537Z" fill="white"/>
    <path d="M62.4256 9.29166L62.4049 8.74082C62.4049 8.74082 62.3703 8.23083 62.1852 7.9539C62.0001 7.67696 61.7406 7.5173 61.5511 7.45072C61.3616 7.38337 61.2495 7.3554 61.004 7.34556C60.7584 7.33572 60.4723 7.33496 60.4723 7.33496L62.4256 9.29166ZM58.5205 9.29242L58.5412 8.74158C58.5412 8.74158 58.5758 8.23159 58.7609 7.95466C58.946 7.67772 59.2055 7.51806 59.3943 7.45148C59.5838 7.38414 59.6959 7.35614 59.9414 7.3463C60.1869 7.33722 60.473 7.33572 60.473 7.33572L58.5205 9.29242L58.5412 9.84326C58.5412 9.84326 58.5758 10.3532 58.7609 10.6302C58.946 10.9071 59.2055 11.0668 59.3943 11.1333C59.5838 11.2007 59.6959 11.2287 59.9414 11.2385C60.1869 11.2476 60.473 11.2491 60.473 11.2491L58.5205 9.29242ZM60.473 11.2484C60.473 11.2484 60.7591 11.2468 61.0047 11.2378C61.2502 11.2287 61.3623 11.1999 61.5518 11.1326C61.7413 11.0652 62.0001 10.9064 62.1859 10.6294C62.371 10.3525 62.4057 9.8425 62.4057 9.8425L62.4263 9.29166L60.473 11.2484ZM60.473 7.33572L58.5205 9.29242L60.473 11.2491L62.4256 9.29242L60.473 7.33572ZM66.3328 9.29316L66.3122 8.74232C66.3122 8.74232 66.2776 8.23235 66.0925 7.95542C65.9074 7.67849 65.6478 7.51883 65.4591 7.45224C65.2696 7.3849 65.1575 7.3569 64.912 7.34706C64.6664 7.33722 64.3803 7.33646 64.3803 7.33646L66.3328 9.29316ZM62.4278 9.29316L62.4484 8.74232C62.4484 8.74232 62.4831 8.23235 62.6682 7.95542C62.8532 7.67849 63.1128 7.51883 63.3015 7.45224C63.4911 7.3849 63.6031 7.3569 63.8487 7.34706C64.0942 7.33722 64.3803 7.33646 64.3803 7.33646L62.4278 9.29316L62.4484 9.84402C62.4484 9.84402 62.4831 10.354 62.6682 10.6309C62.8532 10.9079 63.1128 11.0675 63.3015 11.1341C63.4911 11.2014 63.6031 11.2294 63.8487 11.2393C64.0942 11.2491 64.3803 11.2499 64.3803 11.2499L62.4278 9.29316ZM64.3803 11.2491C64.3803 11.2491 64.6664 11.2476 64.912 11.2385C65.1575 11.2294 65.2696 11.2007 65.4591 11.1333C65.6486 11.066 65.9074 10.9071 66.0925 10.6302C66.2776 10.3532 66.3122 9.84326 66.3122 9.84326L66.3328 9.29242L64.3803 11.2491ZM64.3803 7.33646L62.4278 9.29316L64.3803 11.2499L66.3328 9.29316L64.3803 7.33646Z" fill="white"/>
    <path d="M51.6932 19.3105L51.6725 18.7596C51.6725 18.7596 51.6379 18.2496 51.4528 17.9727C51.2677 17.6958 51.0082 17.5361 50.8194 17.4695C50.6299 17.4022 50.5178 17.3742 50.2723 17.3644C50.0267 17.3545 49.7406 17.3538 49.7406 17.3538L51.6932 19.3105ZM47.7881 19.3105L47.8087 18.7596C47.8087 18.7596 47.8434 18.2496 48.0285 17.9727C48.2135 17.6958 48.4731 17.5361 48.6619 17.4695C48.8514 17.4022 48.9634 17.3742 49.209 17.3644C49.4545 17.3545 49.7406 17.3538 49.7406 17.3538L47.7881 19.3105L47.8087 19.8613C47.8087 19.8613 47.8434 20.3713 48.0285 20.6482C48.2135 20.9251 48.4731 21.0848 48.6619 21.1514C48.8514 21.2187 48.9634 21.2467 49.209 21.2566C49.4545 21.2664 49.7406 21.2672 49.7406 21.2672L47.7881 19.3105ZM49.7406 21.2672C49.7406 21.2672 50.0267 21.2656 50.2723 21.2566C50.5178 21.2475 50.6299 21.2187 50.8194 21.1514C51.0089 21.0841 51.2677 20.9251 51.4528 20.6482C51.6379 20.3713 51.6725 19.8613 51.6725 19.8613L51.6932 19.3105L49.7406 21.2672ZM49.7406 17.3545L47.7881 19.3112L49.7406 21.2679L51.6932 19.3112L49.7406 17.3545ZM51.6932 23.2238L51.6725 22.673C51.6725 22.673 51.6379 22.163 51.4528 21.8861C51.2677 21.6092 51.0081 21.4495 50.8186 21.3829C50.6291 21.3156 50.5171 21.2876 50.2715 21.2777C50.026 21.2679 49.7399 21.2672 49.7399 21.2672L51.6932 23.2238ZM49.7406 25.1798C49.7406 25.1798 49.4545 25.1783 49.209 25.1692C48.9634 25.1601 48.8514 25.1314 48.6619 25.064C48.4724 24.9967 48.2135 24.8378 48.0285 24.5608C47.8434 24.2839 47.8087 23.7739 47.8087 23.7739L47.7881 23.2231L49.7406 21.2664C49.7406 21.2664 49.4545 21.2679 49.209 21.277C48.9634 21.2861 48.8514 21.3148 48.6619 21.3822C48.4724 21.4495 48.2135 21.6084 48.0285 21.8853C47.8434 22.1623 47.8087 22.6722 47.8087 22.6722L47.7881 23.2231L49.7406 25.1798ZM49.7406 25.1798C49.7406 25.1798 50.0267 25.1783 50.2723 25.1692C50.5178 25.1601 50.6299 25.1314 50.8194 25.064C51.0089 24.9967 51.2677 24.8378 51.4535 24.5608C51.6393 24.2839 51.6733 23.7739 51.6733 23.7739L51.6939 23.2231L49.7406 25.1798ZM49.7406 21.2672L47.7881 23.2238L49.7406 25.1798L51.6932 23.2238L49.7406 21.2672Z" fill="white"/>
    <path d="M77.0686 19.3105L77.0479 18.7596C77.0479 18.7596 77.0133 18.2496 76.8282 17.9727C76.6432 17.6958 76.3836 17.5361 76.1941 17.4695C76.0046 17.4022 75.8925 17.3742 75.647 17.3644C75.4015 17.3545 75.1154 17.3538 75.1154 17.3538L77.0686 19.3105ZM73.1643 19.3105L73.1849 18.7596C73.1849 18.7596 73.2196 18.2496 73.4047 17.9727C73.5898 17.6958 73.8493 17.5361 74.0381 17.4695C74.2276 17.4022 74.3397 17.3742 74.5852 17.3644C74.8307 17.3545 75.1168 17.3538 75.1168 17.3538L73.1643 19.3105L73.1849 19.8613C73.1849 19.8613 73.2196 20.3713 73.4047 20.6482C73.5898 20.9252 73.8493 21.0848 74.0381 21.1514C74.2276 21.2187 74.3397 21.2467 74.5852 21.2566C74.8307 21.2664 75.1168 21.2672 75.1168 21.2672L73.1643 19.3105ZM75.1168 21.2672C75.1168 21.2672 75.4029 21.2656 75.6484 21.2566C75.894 21.2475 76.0061 21.2187 76.1956 21.1514C76.3851 21.0841 76.6439 20.9252 76.8297 20.6482C77.0155 20.3713 77.0494 19.8613 77.0494 19.8613L77.0701 19.3105L75.1168 21.2672ZM75.1168 17.3545L73.1643 19.3112L75.1168 21.2679L77.0693 19.3112L75.1168 17.3545ZM77.0693 23.2238L77.0487 22.673C77.0487 22.673 77.014 22.163 76.829 21.8861C76.6439 21.6092 76.3843 21.4495 76.1948 21.3829C76.0053 21.3156 75.8933 21.2876 75.6477 21.2778C75.4022 21.2679 75.1161 21.2672 75.1161 21.2672L77.0693 23.2238ZM75.1168 25.1798C75.1168 25.1798 74.8307 25.1783 74.5852 25.1692C74.3397 25.1601 74.2276 25.1314 74.0381 25.064C73.8486 24.9967 73.5898 24.8378 73.4047 24.5608C73.2196 24.2839 73.1849 23.7739 73.1849 23.7739L73.1643 23.2231L75.1168 21.2664C75.1168 21.2664 74.8307 21.2679 74.5852 21.277C74.3397 21.2861 74.2276 21.3148 74.0381 21.3822C73.8486 21.4495 73.5898 21.6084 73.4047 21.8853C73.2196 22.1623 73.1849 22.6722 73.1849 22.6722L73.1643 23.2231L75.1168 25.1798ZM75.1168 25.1798C75.1168 25.1798 75.4029 25.1783 75.6484 25.1692C75.894 25.1601 76.0061 25.1314 76.1956 25.064C76.3851 24.9967 76.6439 24.8378 76.8297 24.5608C77.0148 24.2839 77.0494 23.7739 77.0494 23.7739L77.0701 23.2231L75.1168 25.1798ZM75.1168 21.2672L73.1643 23.2238L75.1168 25.1805L77.0693 23.2238L75.1168 21.2672Z" fill="white"/>
    <path d="M62.4263 33.2419L62.4057 32.691C62.4057 32.691 62.371 32.1811 62.1859 31.9041C62.0008 31.6272 61.7413 31.4675 61.5518 31.4009C61.3623 31.3336 61.2502 31.3056 61.0047 31.2958C60.7591 31.2859 60.473 31.2852 60.473 31.2852L62.4263 33.2419ZM60.4738 35.1978C60.4738 35.1978 60.1877 35.1963 59.9421 35.1872C59.6966 35.1781 59.5845 35.1494 59.395 35.082C59.2055 35.0147 58.9467 34.8558 58.7616 34.5789C58.5765 34.3019 58.5419 33.792 58.5419 33.792L58.5212 33.2411L60.4738 31.2844C60.4738 31.2844 60.1877 31.2859 59.9421 31.295C59.6966 31.3041 59.5845 31.3328 59.395 31.4002C59.2055 31.4675 58.9467 31.6264 58.7616 31.9034C58.5765 32.1803 58.5419 32.6903 58.5419 32.6903L58.5212 33.2411L60.4738 35.1978ZM60.4738 35.1978C60.4738 35.1978 60.7598 35.1963 61.0054 35.1872C61.2509 35.1781 61.363 35.1494 61.5525 35.082C61.742 35.0147 62.0008 34.8558 62.1867 34.5789C62.3717 34.3019 62.4064 33.792 62.4064 33.792L62.427 33.2411L60.4738 35.1978ZM60.4738 31.2852L58.5212 33.2419L60.4738 35.1985L62.4263 33.2419L60.4738 31.2852ZM66.3335 33.2426L66.3129 32.6918C66.3129 32.6918 66.2783 32.1818 66.0932 31.9049C65.9081 31.6279 65.6485 31.4683 65.4598 31.4017C65.2703 31.3344 65.1582 31.3064 64.9127 31.2965C64.6671 31.2867 64.381 31.2859 64.381 31.2859L66.3335 33.2426ZM62.4285 33.2426L62.4491 32.6918C62.4491 32.6918 62.4838 32.1818 62.6689 31.9049C62.854 31.6279 63.1135 31.4683 63.303 31.4017C63.4925 31.3344 63.6046 31.3064 63.8501 31.2965C64.0957 31.2867 64.3818 31.2859 64.3818 31.2859L62.4285 33.2426L62.4491 33.7935C62.4491 33.7935 62.4838 34.3034 62.6689 34.5804C62.854 34.8573 63.1135 35.017 63.303 35.0836C63.4925 35.1509 63.6046 35.1789 63.8501 35.1887C64.0957 35.1986 64.3818 35.1993 64.3818 35.1993L62.4285 33.2426ZM64.381 35.1993C64.381 35.1993 64.6671 35.1978 64.9127 35.1887C65.1582 35.1797 65.2703 35.1509 65.4598 35.0836C65.6493 35.0162 65.9081 34.8573 66.0932 34.5804C66.2783 34.3034 66.3129 33.7935 66.3129 33.7935L66.3335 33.2426L64.381 35.1993ZM64.381 31.2859L62.4285 33.2426L64.381 35.1993L66.3335 33.2426L64.381 31.2859Z" fill="white"/>
    <path d="M96.6043 9.2908L96.5836 8.73996C96.5836 8.73996 96.5489 8.22997 96.3639 7.95304C96.1788 7.67611 95.9193 7.51647 95.7305 7.44989C95.541 7.38254 95.4289 7.35454 95.1834 7.34471C94.9378 7.33487 94.6517 7.33411 94.6517 7.33411L96.6043 9.2908ZM92.6999 9.2908L92.7206 8.73996C92.7206 8.73996 92.7552 8.22997 92.9403 7.95304C93.1254 7.67611 93.385 7.51647 93.5745 7.44989C93.764 7.38254 93.8761 7.35454 94.1216 7.34471C94.3671 7.33487 94.6532 7.33411 94.6532 7.33411L92.6999 9.2908L92.7206 9.84164C92.7206 9.84164 92.7552 10.3516 92.9403 10.6286C93.1254 10.9055 93.385 11.0652 93.5745 11.1317C93.764 11.1991 93.8761 11.2271 94.1216 11.2369C94.3671 11.2467 94.6532 11.2475 94.6532 11.2475L92.6999 9.2908ZM94.6525 11.2475C94.6525 11.2475 94.9386 11.246 95.1841 11.2369C95.4296 11.2278 95.5417 11.1991 95.7312 11.1317C95.9207 11.0644 96.1795 10.9055 96.3646 10.6286C96.5497 10.3516 96.5843 9.84164 96.5843 9.84164L96.605 9.2908L94.6525 11.2475ZM94.6517 7.33487L92.6992 9.29156L94.6517 11.2483L96.6043 9.29156L94.6517 7.33487ZM96.605 13.2042L96.5843 12.6534C96.5843 12.6534 96.5497 12.1434 96.3646 11.8664C96.1795 11.5895 95.92 11.4299 95.7305 11.3633C95.541 11.2959 95.4289 11.2679 95.1834 11.2581C94.9378 11.2483 94.6517 11.2475 94.6517 11.2475L96.605 13.2042ZM92.6999 13.2042L92.7206 12.6534C92.7206 12.6534 92.7552 12.1434 92.9403 11.8664C93.1254 11.5895 93.3849 11.4299 93.5737 11.3633C93.7632 11.2959 93.8753 11.2679 94.1208 11.2581C94.3664 11.2483 94.6525 11.2475 94.6525 11.2475L92.6999 13.2042L92.7206 13.755C92.7206 13.755 92.7552 14.265 92.9403 14.542C93.1254 14.8189 93.3849 14.9785 93.5737 15.0451C93.7632 15.1125 93.8753 15.1405 94.1208 15.1503C94.3664 15.1602 94.6525 15.1609 94.6525 15.1609L92.6999 13.2042ZM94.6525 15.1602C94.6525 15.1602 94.9386 15.1586 95.1841 15.1496C95.4296 15.1405 95.5417 15.1117 95.7312 15.0444C95.9207 14.977 96.1795 14.8181 96.3653 14.5412C96.5504 14.2643 96.5851 13.7543 96.5851 13.7543L96.6057 13.2035L94.6525 15.1602ZM94.6525 11.2475L92.6999 13.2042L94.6525 15.1609L96.605 13.2042L94.6525 11.2475Z" fill="white"/>
    <path d="M94.6496 17.3522C94.6496 17.3522 94.9356 17.3537 95.1812 17.3628C95.4267 17.3719 95.5388 17.4006 95.7283 17.468C95.9178 17.5353 96.1766 17.6942 96.3624 17.9711C96.5482 18.2481 96.5821 18.758 96.5821 18.758L96.6028 19.3089L94.6496 17.3522ZM92.697 19.3089L92.7176 18.758C92.7176 18.758 92.7523 18.2481 92.9374 17.9711C93.1225 17.6942 93.382 17.5345 93.5708 17.468C93.7603 17.4006 93.8724 17.3726 94.1179 17.3628C94.3635 17.3529 94.6496 17.3522 94.6496 17.3522L92.697 19.3089L92.7176 19.8597C92.7176 19.8597 92.7523 20.3697 92.9374 20.6466C93.1225 20.9236 93.382 21.0832 93.5708 21.1498C93.7603 21.2172 93.8724 21.2452 94.1179 21.255C94.3635 21.2648 94.6496 21.2656 94.6496 21.2656L92.697 19.3089ZM94.6496 21.2648C94.6496 21.2648 94.9356 21.2633 95.1812 21.2542C95.4267 21.2451 95.5388 21.2164 95.7283 21.149C95.9178 21.0817 96.1766 20.9228 96.3624 20.6459C96.5482 20.369 96.5821 19.859 96.5821 19.859L96.6028 19.3081L94.6496 21.2648ZM94.6496 17.3522L92.697 19.3089L94.6496 21.2656L96.602 19.3089L94.6496 17.3522ZM96.602 23.2215L96.5814 22.6707C96.5814 22.6707 96.5467 22.1607 96.3617 21.8838C96.1766 21.6068 95.9171 21.4472 95.7276 21.3806C95.5381 21.3132 95.426 21.2853 95.1804 21.2754C94.9349 21.2656 94.6488 21.2648 94.6488 21.2648L96.602 23.2215ZM92.697 23.2215L92.7176 22.6707C92.7176 22.6707 92.7523 22.1607 92.9374 21.8838C93.1225 21.6068 93.382 21.4472 93.5708 21.3806C93.7603 21.3132 93.8724 21.2853 94.1179 21.2754C94.3635 21.2656 94.6496 21.2648 94.6496 21.2648L92.697 23.2215L92.7176 23.7724C92.7176 23.7724 92.7523 24.2823 92.9374 24.5593C93.1225 24.8362 93.382 24.9959 93.5708 25.0624C93.7603 25.1298 93.8724 25.1578 94.1179 25.1676C94.3635 25.1775 94.6496 25.1782 94.6496 25.1782L92.697 23.2215ZM94.6496 25.1782C94.6496 25.1782 94.9356 25.1767 95.1812 25.1676C95.4267 25.1585 95.5388 25.1298 95.7283 25.0624C95.9178 24.9951 96.1766 24.8362 96.3624 24.5593C96.5482 24.2823 96.5821 23.7724 96.5821 23.7724L96.6028 23.2215L94.6496 25.1782ZM94.6496 21.2656L92.697 23.2223L94.6496 25.179L96.602 23.2223L94.6496 21.2656Z" fill="white"/>
    <path d="M94.651 27.3702C94.651 27.3702 94.9371 27.3718 95.1826 27.3808C95.4282 27.3899 95.5402 27.4187 95.7297 27.486C95.9192 27.5533 96.178 27.7122 96.3639 27.9892C96.5489 28.2661 96.5836 28.7761 96.5836 28.7761L96.6043 29.3269L94.651 27.3702ZM92.6985 29.3269L92.7191 28.7761C92.7191 28.7761 92.7538 28.2661 92.9389 27.9892C93.1239 27.7122 93.3835 27.5526 93.573 27.486C93.7625 27.4187 93.8746 27.3907 94.1201 27.3808C94.3656 27.3718 94.6517 27.3702 94.6517 27.3702L92.6985 29.3269L92.7191 29.8778C92.7191 29.8778 92.7538 30.3878 92.9389 30.6647C93.1239 30.9416 93.3835 31.1013 93.573 31.1678C93.7625 31.2352 93.8746 31.2632 94.1201 31.273C94.3656 31.2821 94.6517 31.2836 94.6517 31.2836L92.6985 29.3269ZM94.651 31.2829C94.651 31.2829 94.9371 31.2813 95.1826 31.2723C95.4282 31.2632 95.5402 31.2345 95.7297 31.1671C95.9192 31.0998 96.178 30.9409 96.3639 30.6639C96.5489 30.387 96.5836 29.877 96.5836 29.877L96.6043 29.3262L94.651 31.2829ZM94.651 27.3702L92.6985 29.3269L94.651 31.2836L96.6035 29.3269L94.651 27.3702ZM96.6035 33.2396L96.5829 32.6887C96.5829 32.6887 96.5482 32.1787 96.3631 31.9018C96.1781 31.6249 95.9185 31.4652 95.7297 31.3986C95.5402 31.3313 95.4282 31.3033 95.1826 31.2935C94.9371 31.2844 94.651 31.2829 94.651 31.2829L96.6035 33.2396ZM92.6985 33.2396L92.7191 32.6887C92.7191 32.6887 92.7538 32.1787 92.9389 31.9018C93.1239 31.6249 93.3835 31.4652 93.573 31.3986C93.7625 31.3313 93.8746 31.3033 94.1201 31.2935C94.3656 31.2836 94.6517 31.2829 94.6517 31.2829L92.6985 33.2396L92.7191 33.7904C92.7191 33.7904 92.7538 34.3004 92.9389 34.5773C93.1239 34.8543 93.3835 35.0139 93.573 35.0805C93.7625 35.1478 93.8746 35.1758 94.1201 35.1857C94.3656 35.1955 94.6517 35.1963 94.6517 35.1963L92.6985 33.2396ZM94.651 35.1963C94.651 35.1963 94.9371 35.1947 95.1826 35.1857C95.4282 35.1766 95.5402 35.1478 95.7297 35.0805C95.9192 35.0132 96.1781 34.8543 96.3631 34.5773C96.5482 34.3004 96.5829 33.7904 96.5829 33.7904L96.6035 33.2396L94.651 35.1963ZM94.651 31.2836L92.6985 33.2403L94.651 35.197L96.6035 33.2403L94.651 31.2836Z" fill="white"/>
    <path d="M102.46 9.29385L102.44 8.74302C102.44 8.74302 102.405 8.23303 102.22 7.95609C102.035 7.67916 101.775 7.51952 101.586 7.45294C101.396 7.3856 101.284 7.35759 101.039 7.34776C100.793 7.33792 100.507 7.33716 100.507 7.33716L102.46 9.29385ZM98.5554 9.29385L98.576 8.74302C98.576 8.74302 98.6107 8.23303 98.7958 7.95609C98.9809 7.67916 99.2404 7.51952 99.4292 7.45294C99.6187 7.3856 99.7308 7.35759 99.9763 7.34776C100.222 7.33792 100.508 7.33716 100.508 7.33716L98.5554 9.29385L98.576 9.84469C98.576 9.84469 98.6107 10.3547 98.7958 10.6316C98.9809 10.9085 99.2404 11.0682 99.4292 11.1348C99.6187 11.2021 99.7308 11.2301 99.9763 11.24C100.222 11.2498 100.508 11.2505 100.508 11.2505L98.5554 9.29385ZM100.508 11.2498C100.508 11.2498 100.794 11.2483 101.04 11.2392C101.285 11.2301 101.397 11.2014 101.587 11.134C101.776 11.0667 102.035 10.9078 102.221 10.6309C102.406 10.3539 102.441 9.84395 102.441 9.84395L102.461 9.29309L100.508 11.2498ZM100.508 7.33716L98.5554 9.29385L100.508 11.2505L102.46 9.29385L100.508 7.33716ZM106.368 9.29462L106.347 8.74378C106.347 8.74378 106.312 8.23379 106.127 7.95685C105.942 7.67992 105.683 7.52026 105.494 7.45368C105.304 7.38633 105.192 7.35836 104.947 7.34852C104.701 7.33868 104.415 7.33792 104.415 7.33792L106.368 9.29462ZM102.463 9.29462L102.483 8.74378C102.483 8.74378 102.518 8.23379 102.703 7.95685C102.888 7.67992 103.148 7.52026 103.337 7.45368C103.527 7.38633 103.639 7.35836 103.884 7.34852C104.13 7.33868 104.416 7.33792 104.416 7.33792L102.463 9.29462L102.483 9.84545C102.483 9.84545 102.518 10.3554 102.703 10.6324C102.888 10.9093 103.148 11.069 103.337 11.1356C103.527 11.2029 103.639 11.2309 103.884 11.2407C104.13 11.2505 104.416 11.2513 104.416 11.2513L102.463 9.29462ZM104.415 11.2513C104.415 11.2513 104.701 11.2498 104.947 11.2407C105.192 11.2316 105.304 11.2029 105.494 11.1356C105.683 11.0682 105.942 10.9093 106.127 10.6324C106.312 10.3554 106.347 9.84545 106.347 9.84545L106.368 9.29462L104.415 11.2513ZM104.415 7.33868L102.463 9.29538L104.415 11.2521L106.368 9.29538L104.415 7.33868Z" fill="white"/>
    <path d="M102.462 19.3104L102.441 18.7595C102.441 18.7595 102.406 18.2495 102.221 17.9726C102.036 17.6957 101.777 17.536 101.587 17.4694C101.398 17.4021 101.286 17.3741 101.04 17.3643C100.795 17.3544 100.508 17.3537 100.508 17.3537L102.462 19.3104ZM100.509 21.2663C100.509 21.2663 100.223 21.2648 99.9775 21.2557C99.732 21.2466 99.6199 21.2179 99.4304 21.1505C99.2409 21.0832 98.9821 20.9243 98.7971 20.6474C98.612 20.3704 98.5773 19.8604 98.5773 19.8604L98.5566 19.3096L100.509 17.3529C100.509 17.3529 100.223 17.3544 99.9775 17.3635C99.732 17.3726 99.6199 17.4013 99.4304 17.4687C99.2409 17.536 98.9821 17.6949 98.7971 17.9718C98.612 18.2488 98.5773 18.7588 98.5773 18.7588L98.5566 19.3096L100.509 21.2663ZM100.509 21.2663C100.509 21.2663 100.795 21.2648 101.041 21.2557C101.286 21.2466 101.398 21.2179 101.588 21.1505C101.777 21.0832 102.036 20.9243 102.222 20.6474C102.408 20.3704 102.442 19.8604 102.442 19.8604L102.462 19.3096L100.509 21.2663ZM100.509 17.3537L98.5566 19.3104L100.509 21.2671L102.462 19.3104L100.509 17.3537ZM106.369 19.3111L106.348 18.7603C106.348 18.7603 106.314 18.2503 106.129 17.9734C105.944 17.6964 105.684 17.5368 105.495 17.4702C105.306 17.4028 105.194 17.3749 104.948 17.365C104.703 17.3552 104.416 17.3544 104.416 17.3544L106.369 19.3111ZM102.464 19.3111L102.485 18.7603C102.485 18.7603 102.519 18.2503 102.704 17.9734C102.889 17.6964 103.149 17.5368 103.338 17.4702C103.528 17.4028 103.64 17.3749 103.886 17.365C104.131 17.3552 104.417 17.3544 104.417 17.3544L102.464 19.3111L102.485 19.862C102.485 19.862 102.519 20.372 102.704 20.6489C102.889 20.9258 103.149 21.0855 103.338 21.152C103.528 21.2194 103.64 21.2474 103.886 21.2572C104.131 21.2671 104.417 21.2678 104.417 21.2678L102.464 19.3111ZM104.416 21.2678C104.416 21.2678 104.703 21.2663 104.948 21.2572C105.194 21.2481 105.306 21.2194 105.495 21.152C105.685 21.0847 105.944 20.9258 106.129 20.6489C106.314 20.372 106.348 19.862 106.348 19.862L106.369 19.3111L104.416 21.2678ZM104.416 17.3552L102.464 19.3119L104.416 21.2678L106.369 19.3119L104.416 17.3552Z" fill="white"/>
    <path d="M112.218 12.2046L112.197 11.6538C112.197 11.6538 112.163 11.1438 111.977 10.8669C111.792 10.5899 111.533 10.4303 111.343 10.3637C111.154 10.2963 111.042 10.2683 110.796 10.2585C110.551 10.2487 110.265 10.2479 110.265 10.2479L112.218 12.2046ZM108.313 12.2046L108.333 11.6538C108.333 11.6538 108.368 11.1438 108.553 10.8669C108.738 10.5899 108.998 10.4303 109.187 10.3637C109.376 10.2963 109.488 10.2683 109.734 10.2585C109.979 10.2494 110.265 10.2479 110.265 10.2479L108.313 12.2046L108.333 12.7555C108.333 12.7555 108.368 13.2654 108.553 13.5424C108.738 13.8193 108.998 13.979 109.187 14.0455C109.376 14.1129 109.488 14.1409 109.734 14.1507C109.979 14.1598 110.265 14.1613 110.265 14.1613L108.313 12.2046ZM110.265 14.1613C110.265 14.1613 110.551 14.1598 110.797 14.1507C111.042 14.1416 111.155 14.1129 111.344 14.0455C111.534 13.9782 111.792 13.8193 111.978 13.5424C112.163 13.2654 112.198 12.7555 112.198 12.7555L112.219 12.2046L110.265 14.1613ZM110.265 10.2487L108.313 12.2054L110.265 14.1621L112.218 12.2054L110.265 10.2487ZM112.218 16.118L112.197 15.5672C112.197 15.5672 112.163 15.0572 111.977 14.7803C111.792 14.5033 111.533 14.3437 111.343 14.2771C111.154 14.2097 111.042 14.1818 110.796 14.1719C110.551 14.1628 110.265 14.1613 110.265 14.1613L112.218 16.118ZM108.313 16.118L108.334 15.5672C108.334 15.5672 108.369 15.0572 108.554 14.7803C108.739 14.5033 108.998 14.3437 109.188 14.2771C109.377 14.2097 109.49 14.1818 109.735 14.1719C109.981 14.1628 110.267 14.1613 110.267 14.1613L108.313 16.118L108.334 16.6689C108.334 16.6689 108.369 17.1788 108.554 17.4558C108.739 17.7327 108.998 17.8923 109.188 17.9589C109.377 18.0263 109.49 18.0543 109.735 18.0641C109.981 18.0732 110.267 18.0747 110.267 18.0747L108.313 16.118ZM110.265 18.0739C110.265 18.0739 110.551 18.0724 110.797 18.0633C111.042 18.0543 111.155 18.0255 111.344 17.9582C111.534 17.8908 111.792 17.7319 111.978 17.455C112.163 17.1781 112.198 16.6681 112.198 16.6681L112.219 16.1173L110.265 18.0739ZM110.265 14.1613L108.313 16.118L110.265 18.0747L112.218 16.118L110.265 14.1613Z" fill="white"/>
    <path d="M112.212 29.3269L112.191 28.7761C112.191 28.7761 112.157 28.2661 111.972 27.9892C111.787 27.7122 111.527 27.5526 111.337 27.486C111.148 27.4187 111.036 27.3907 110.79 27.3808C110.545 27.371 110.259 27.3702 110.259 27.3702L112.212 29.3269ZM108.307 29.3269L108.328 28.7761C108.328 28.7761 108.362 28.2661 108.547 27.9892C108.732 27.7122 108.992 27.5526 109.181 27.486C109.37 27.4187 109.482 27.3907 109.728 27.3808C109.973 27.371 110.259 27.3702 110.259 27.3702L108.307 29.3269L108.328 29.8778C108.328 29.8778 108.362 30.3878 108.547 30.6647C108.732 30.9416 108.992 31.1013 109.181 31.1678C109.37 31.2352 109.482 31.2632 109.728 31.273C109.973 31.2829 110.259 31.2836 110.259 31.2836L108.307 29.3269ZM110.259 31.2829C110.259 31.2829 110.546 31.2813 110.791 31.2723C111.037 31.2632 111.149 31.2345 111.338 31.1671C111.528 31.0998 111.787 30.9409 111.972 30.6639C112.157 30.387 112.192 29.877 112.192 29.877L112.213 29.3262L110.259 31.2829ZM110.259 27.3702L108.307 29.3269L110.259 31.2836L112.212 29.3269L110.259 27.3702ZM112.212 33.2396L112.191 32.6887C112.191 32.6887 112.157 32.1787 111.972 31.9018C111.787 31.6249 111.527 31.4652 111.337 31.3986C111.148 31.3313 111.036 31.3033 110.79 31.2935C110.545 31.2844 110.259 31.2829 110.259 31.2829L112.212 33.2396ZM110.259 35.1963C110.259 35.1963 109.973 35.1947 109.728 35.1857C109.482 35.1766 109.37 35.1478 109.181 35.0805C108.991 35.0132 108.732 34.8543 108.547 34.5773C108.361 34.3004 108.327 33.7904 108.327 33.7904L108.306 33.2396L110.259 31.2829C110.259 31.2829 109.973 31.2844 109.727 31.2935C109.482 31.3025 109.369 31.3313 109.18 31.3986C108.99 31.466 108.732 31.6249 108.546 31.9018C108.361 32.1787 108.326 32.6887 108.326 32.6887L108.305 33.2396L110.259 35.1963ZM110.259 35.1963C110.259 35.1963 110.546 35.1947 110.791 35.1857C111.037 35.1766 111.149 35.1478 111.338 35.0805C111.528 35.0132 111.787 34.8543 111.972 34.5773C112.158 34.3004 112.192 33.7904 112.192 33.7904L112.213 33.2396L110.259 35.1963ZM110.259 31.2836L108.307 33.2403L110.259 35.197L112.212 33.2403L110.259 31.2836Z" fill="white"/>
    <path d="M131.754 9.29849L131.734 8.74765C131.734 8.74765 131.699 8.23767 131.514 7.96073C131.329 7.6838 131.069 7.52414 130.88 7.45755C130.691 7.39021 130.579 7.36223 130.333 7.3524C130.088 7.34256 129.802 7.3418 129.802 7.3418L131.754 9.29849ZM129.802 11.2552C129.802 11.2552 129.516 11.2537 129.27 11.2446C129.024 11.2355 128.912 11.2068 128.723 11.1394C128.533 11.0721 128.275 10.9132 128.089 10.6363C127.903 10.3593 127.869 9.84933 127.869 9.84933L127.848 9.29849L129.801 7.3418C129.801 7.3418 129.515 7.34332 129.269 7.3524C129.024 7.36148 128.912 7.39021 128.722 7.45755C128.533 7.52489 128.274 7.6838 128.088 7.96073C127.902 8.23767 127.868 8.74765 127.868 8.74765L127.848 9.29849L129.802 11.2552ZM129.802 11.2552C129.802 11.2552 130.088 11.2537 130.334 11.2446C130.58 11.2355 130.692 11.2068 130.881 11.1394C131.071 11.0721 131.329 10.9132 131.515 10.6363C131.7 10.3593 131.734 9.84933 131.734 9.84933L131.755 9.29849L129.802 11.2552ZM129.802 7.34256L127.849 9.29925L129.802 11.2559L131.754 9.29925L129.802 7.34256ZM135.661 9.29999L135.641 8.74915C135.641 8.74915 135.606 8.23919 135.421 7.96226C135.236 7.68532 134.976 7.52566 134.787 7.45908C134.597 7.39173 134.485 7.36373 134.24 7.3539C133.994 7.34482 133.708 7.3433 133.708 7.3433L135.661 9.29999ZM133.709 11.2559C133.709 11.2559 133.423 11.2544 133.177 11.2454C132.932 11.2363 132.82 11.2075 132.63 11.1402C132.441 11.0728 132.182 10.9139 131.996 10.637C131.81 10.3601 131.776 9.85009 131.776 9.85009L131.756 9.29925L133.708 7.34256C133.708 7.34256 133.422 7.34405 133.177 7.35313C132.931 7.36221 132.819 7.39097 132.629 7.45831C132.44 7.52566 132.181 7.68456 131.995 7.96149C131.809 8.23843 131.776 8.74842 131.776 8.74842L131.755 9.29925L133.709 11.2559ZM133.709 11.2559C133.709 11.2559 133.995 11.2544 134.241 11.2454C134.486 11.2363 134.598 11.2075 134.788 11.1402C134.977 11.0728 135.236 10.9139 135.422 10.637C135.608 10.3601 135.642 9.85009 135.642 9.85009L135.662 9.29925L133.709 11.2559ZM133.709 7.3433L131.756 9.29999L133.709 11.2567L135.661 9.29999L133.709 7.3433Z" fill="white"/>
    <path d="M147.366 9.2908L147.345 8.73996C147.345 8.73996 147.31 8.22997 147.125 7.95304C146.94 7.67611 146.68 7.51647 146.491 7.44989C146.301 7.38254 146.189 7.35454 145.944 7.34471C145.698 7.33487 145.412 7.33411 145.412 7.33411L147.366 9.2908ZM143.461 9.2908L143.482 8.73996C143.482 8.73996 143.517 8.22997 143.702 7.95304C143.887 7.67611 144.146 7.51647 144.335 7.44989C144.524 7.38254 144.637 7.35454 144.882 7.34471C145.128 7.33487 145.414 7.33411 145.414 7.33411L143.461 9.2908L143.482 9.84164C143.482 9.84164 143.517 10.3516 143.702 10.6286C143.887 10.9055 144.146 11.0652 144.335 11.1317C144.524 11.1991 144.637 11.2271 144.882 11.2369C145.128 11.2467 145.414 11.2475 145.414 11.2475L143.461 9.2908ZM145.414 11.2475C145.414 11.2475 145.7 11.246 145.945 11.2369C146.191 11.2278 146.303 11.1991 146.492 11.1317C146.682 11.0644 146.941 10.9055 147.127 10.6286C147.312 10.3516 147.346 9.84164 147.346 9.84164L147.367 9.2908L145.414 11.2475ZM145.413 7.33487L143.46 9.29156L145.413 11.2483L147.366 9.29156L145.413 7.33487ZM151.273 9.29233L151.252 8.74149C151.252 8.74149 151.217 8.2315 151.032 7.95456C150.847 7.67763 150.588 7.51797 150.399 7.45139C150.209 7.38404 150.097 7.35604 149.852 7.34621C149.606 7.33637 149.32 7.33563 149.32 7.33563L151.273 9.29233ZM147.368 9.29233L147.388 8.74149C147.388 8.74149 147.423 8.2315 147.608 7.95456C147.793 7.67763 148.053 7.51797 148.242 7.45139C148.432 7.38404 148.544 7.35604 148.789 7.34621C149.035 7.33637 149.321 7.33563 149.321 7.33563L147.368 9.29233L147.388 9.84316C147.388 9.84316 147.423 10.3532 147.608 10.6301C147.793 10.907 148.053 11.0667 148.242 11.1332C148.432 11.2006 148.544 11.2286 148.789 11.2384C149.035 11.2483 149.321 11.249 149.321 11.249L147.368 9.29233ZM149.32 11.2483C149.32 11.2483 149.606 11.2467 149.852 11.2377C150.097 11.2286 150.209 11.1998 150.399 11.1325C150.589 11.0651 150.847 10.9063 151.032 10.6293C151.217 10.3524 151.252 9.8424 151.252 9.8424L151.273 9.29156L149.32 11.2483ZM149.32 7.33563L147.368 9.29233L149.32 11.249L151.273 9.29233L149.32 7.33563Z" fill="white"/>
    <path d="M141.509 29.3239L141.488 28.773C141.488 28.773 141.453 28.2631 141.268 27.9861C141.083 27.7092 140.824 27.5495 140.634 27.4829C140.445 27.4156 140.332 27.3876 140.087 27.3778C139.841 27.3679 139.555 27.3672 139.555 27.3672L141.509 29.3239ZM137.604 29.3239L137.624 28.773C137.624 28.773 137.659 28.2631 137.844 27.9861C138.029 27.7092 138.289 27.5495 138.477 27.4829C138.667 27.4156 138.779 27.3876 139.024 27.3778C139.27 27.3679 139.556 27.3672 139.556 27.3672L137.604 29.3239L137.624 29.8747C137.624 29.8747 137.659 30.3847 137.844 30.6616C138.029 30.9386 138.289 31.0982 138.477 31.1648C138.667 31.2321 138.779 31.2601 139.024 31.27C139.27 31.2798 139.556 31.2806 139.556 31.2806L137.604 29.3239ZM139.556 31.2806C139.556 31.2806 139.842 31.2791 140.088 31.27C140.333 31.2609 140.445 31.2321 140.635 31.1648C140.824 31.0975 141.083 30.9386 141.269 30.6616C141.455 30.3847 141.489 29.8747 141.489 29.8747L141.509 29.3239L139.556 31.2806ZM139.556 27.3679L137.604 29.3246L139.556 31.2813L141.509 29.3246L139.556 27.3679ZM141.509 33.2373L141.488 32.6864C141.488 32.6864 141.453 32.1764 141.268 31.8995C141.083 31.6226 140.824 31.4629 140.634 31.3963C140.445 31.329 140.332 31.301 140.087 31.2912C139.841 31.2813 139.555 31.2806 139.555 31.2806L141.509 33.2373ZM137.604 33.2373L137.624 32.6864C137.624 32.6864 137.659 32.1764 137.844 31.8995C138.029 31.6226 138.289 31.4629 138.478 31.3963C138.668 31.329 138.78 31.301 139.025 31.2912C139.271 31.2821 139.557 31.2806 139.557 31.2806L137.604 33.2373L137.624 33.7881C137.624 33.7881 137.659 34.2981 137.844 34.575C138.029 34.852 138.289 35.0116 138.478 35.0782C138.668 35.1455 138.78 35.1735 139.025 35.1834C139.271 35.1925 139.557 35.194 139.557 35.194L137.604 33.2373ZM139.556 35.1932C139.556 35.1932 139.842 35.1917 140.088 35.1826C140.333 35.1735 140.445 35.1448 140.635 35.0775C140.824 35.0101 141.083 34.8512 141.269 34.5743C141.455 34.2973 141.489 33.7874 141.489 33.7874L141.509 33.2365L139.556 35.1932ZM139.556 31.2806L137.604 33.2373L139.556 35.1932L141.509 33.2373L139.556 31.2806Z" fill="white"/>
    <path d="M141.505 19.3118L141.484 18.761C141.484 18.761 141.45 18.251 141.265 17.9741C141.079 17.6971 140.82 17.5375 140.63 17.4709C140.441 17.4035 140.329 17.3755 140.083 17.3657C139.838 17.3566 139.552 17.3551 139.552 17.3551L141.505 19.3118ZM139.552 21.2678C139.552 21.2678 139.266 21.2662 139.021 21.2572C138.775 21.2481 138.663 21.2193 138.474 21.152C138.284 21.0846 138.025 20.9258 137.84 20.6488C137.654 20.3719 137.62 19.8619 137.62 19.8619L137.599 19.3111L139.552 17.3544C139.552 17.3544 139.266 17.3559 139.02 17.365C138.775 17.374 138.662 17.4028 138.473 17.4701C138.283 17.5375 138.025 17.6964 137.839 17.9733C137.654 18.2502 137.619 18.7602 137.619 18.7602L137.598 19.3111L139.552 21.2678ZM139.552 21.2678C139.552 21.2678 139.839 21.2662 140.084 21.2572C140.33 21.2481 140.442 21.2193 140.631 21.152C140.821 21.0846 141.079 20.9258 141.265 20.6488C141.45 20.3719 141.485 19.8619 141.485 19.8619L141.506 19.3111L139.552 21.2678ZM139.552 17.3551L137.6 19.3118L139.552 21.2685L141.505 19.3118L139.552 17.3551ZM141.506 23.2245L141.485 22.6736C141.485 22.6736 141.45 22.1636 141.265 21.8867C141.08 21.6098 140.821 21.4501 140.632 21.3835C140.442 21.3162 140.33 21.2882 140.085 21.2784C139.839 21.2693 139.553 21.2678 139.553 21.2678L141.506 23.2245ZM137.601 23.2245L137.621 22.6736C137.621 22.6736 137.656 22.1636 137.841 21.8867C138.026 21.6098 138.286 21.4501 138.475 21.3835C138.665 21.3162 138.777 21.2882 139.022 21.2784C139.268 21.2685 139.554 21.2678 139.554 21.2678L137.601 23.2245L137.621 23.7753C137.621 23.7753 137.656 24.2853 137.841 24.5622C138.026 24.8392 138.286 24.9988 138.475 25.0654C138.665 25.1327 138.777 25.1607 139.022 25.1706C139.268 25.1804 139.554 25.1812 139.554 25.1812L137.601 23.2245ZM139.553 25.1812C139.553 25.1812 139.839 25.1796 140.085 25.1706C140.33 25.1615 140.442 25.1327 140.632 25.0654C140.821 24.998 141.08 24.8392 141.265 24.5622C141.45 24.2853 141.485 23.7753 141.485 23.7753L141.506 23.2245L139.553 25.1812ZM139.553 21.2685L137.601 23.2252L139.553 25.1819L141.506 23.2252L139.553 21.2685Z" fill="white"/>
</svg>
