<svg width="186" height="44" viewBox="0 0 186 44" fill="none" xmlns="http://www.w3.org/2000/svg">
<path d="M7.08569 6.16048H13.0643V20.0205H29.0071C29.0071 20.0205 31.0009 20.0192 31.0009 18.0396C31.0009 16.06 29.008 16.0596 29.008 16.0596V6.16003H34.9857V37.84H29.0071V23.98H13.0643C13.0643 23.98 11.0719 23.9792 11.0719 25.9596C11.0719 27.94 13.0647 27.9396 13.0647 27.9396V37.8396H7.08569V6.16048ZM42.958 6.16048V37.8405H68.8652L70.858 33.5945L48.9366 33.8805C48.9366 33.8805 46.9437 33.8805 46.9437 31.9005C46.9437 29.9205 48.9366 29.9205 48.9366 29.9205V23.9809H62.8866V20.0209H48.9366V14.0809C48.9366 14.0809 46.9437 14.0809 46.9437 12.1009C46.9437 10.1209 48.9366 10.1209 48.9366 10.1209L68.8652 10.3211L66.8723 6.16091H42.958V6.16048ZM78.829 6.16048V37.8405H84.8076V33.8805C84.8076 33.8805 82.8147 33.8805 82.8147 31.9005C82.8147 29.9205 84.8076 29.9205 84.8076 29.9205V14.0809C84.8076 14.0809 82.8147 14.0809 82.8147 12.1009C82.8147 10.1209 84.8076 10.1209 84.8076 10.1209V6.16091H78.829V6.16048ZM78.8281 10.1205H92.7781C92.7781 10.1205 102.825 10.1205 102.825 22.0005C102.825 33.8805 92.7781 33.8805 92.7781 33.8805H78.829V37.8405H92.7781C92.7781 37.8405 106.728 37.8405 106.728 22.0005C106.728 6.16048 92.7781 6.16048 92.7781 6.16048H78.829L78.8281 10.1205ZM142.6 16.0605C142.6 16.0605 140.608 6.16048 128.65 6.16048C126.875 6.16048 114.7 6.16048 114.7 22.0005C114.7 37.8405 127.342 37.8405 128.65 37.8405C138.615 37.8405 139.9 31.9005 139.9 31.9005L140.607 37.8405H142.6V20.0205H130.643L128.65 23.9805H138.614C138.614 23.9805 138.614 33.5945 128.65 33.5945C126.865 33.5945 118.686 33.6803 118.686 22.0005C118.686 10.3207 126.617 10.1205 128.65 10.1205C136.621 10.1205 138.614 16.0605 138.614 16.0605H142.6ZM150.572 6.16048V37.8405H176.479L178.472 33.5945L156.551 33.8805C156.551 33.8805 154.558 33.8805 154.558 31.9005C154.558 29.9205 156.551 29.9205 156.551 29.9205V23.9809H170.501V20.0209H156.551V14.0809C156.551 14.0809 154.558 14.0809 154.558 12.1009C154.558 10.1209 156.551 10.1209 156.551 10.1209L176.479 10.3211L174.487 6.16091H150.572V6.16048Z" fill="white"/>
</svg>
